G04 #@! TF.GenerationSoftware,KiCad,Pcbnew,(5.1.4)-1*
G04 #@! TF.CreationDate,2019-12-08T17:57:44-07:00*
G04 #@! TF.ProjectId,BAEmacropad,4241456d-6163-4726-9f70-61642e6b6963,rev?*
G04 #@! TF.SameCoordinates,Original*
G04 #@! TF.FileFunction,Drawing*
%FSLAX46Y46*%
G04 Gerber Fmt 4.6, Leading zero omitted, Abs format (unit mm)*
G04 Created by KiCad (PCBNEW (5.1.4)-1) date 2019-12-08 17:57:44*
%MOMM*%
%LPD*%
G04 APERTURE LIST*
%ADD10C,0.150000*%
%ADD11C,0.200000*%
G04 APERTURE END LIST*
D10*
X59531250Y-71437500D02*
X59531250Y-90487500D01*
X64293750Y-109537500D02*
X88106250Y-109537500D01*
X88106250Y-71437500D02*
X88106250Y-109537500D01*
X59531250Y-71437500D02*
X88106250Y-71437500D01*
X69200000Y-83487500D02*
X69200000Y-85487500D01*
X71200000Y-83487500D02*
X69200000Y-83487500D01*
X69200000Y-97487500D02*
X71200000Y-97487500D01*
X69200000Y-95487500D02*
X69200000Y-97487500D01*
X83200000Y-97487500D02*
X83200000Y-95487500D01*
X81200000Y-97487500D02*
X83200000Y-97487500D01*
X83200000Y-83487500D02*
X83200000Y-85487500D01*
X81200000Y-83487500D02*
X83200000Y-83487500D01*
X64293750Y-90487500D02*
X59531250Y-90487500D01*
X64293750Y-109537500D02*
X64293750Y-90487500D01*
X45243750Y-109537500D02*
X45243750Y-90487500D01*
X64293750Y-109537500D02*
X45243750Y-109537500D01*
X64293750Y-90487500D02*
X64293750Y-109537500D01*
X45243750Y-90487500D02*
X64293750Y-90487500D01*
X47768750Y-93012500D02*
X47768750Y-95012500D01*
X49768750Y-93012500D02*
X47768750Y-93012500D01*
X47768750Y-107012500D02*
X49768750Y-107012500D01*
X47768750Y-105012500D02*
X47768750Y-107012500D01*
X61768750Y-107012500D02*
X61768750Y-105012500D01*
X59768750Y-107012500D02*
X61768750Y-107012500D01*
X61768750Y-93012500D02*
X61768750Y-95012500D01*
X59768750Y-93012500D02*
X61768750Y-93012500D01*
D11*
X103568500Y-68802250D02*
X103568500Y-73882250D01*
X96202500Y-68802250D02*
X103568500Y-68802250D01*
X96202500Y-73882250D02*
X96202500Y-68802250D01*
X103568500Y-73882250D02*
X96202500Y-73882250D01*
D10*
X74914285Y-94114880D02*
X74914285Y-93114880D01*
X75247619Y-93829166D01*
X75580952Y-93114880D01*
X75580952Y-94114880D01*
X75961904Y-93114880D02*
X76628571Y-94114880D01*
X76628571Y-93114880D02*
X75961904Y-94114880D01*
X76961904Y-93210119D02*
X77009523Y-93162500D01*
X77104761Y-93114880D01*
X77342857Y-93114880D01*
X77438095Y-93162500D01*
X77485714Y-93210119D01*
X77533333Y-93305357D01*
X77533333Y-93400595D01*
X77485714Y-93543452D01*
X76914285Y-94114880D01*
X77533333Y-94114880D01*
X73414285Y-83002380D02*
X73414285Y-82002380D01*
X73747619Y-82716666D01*
X74080952Y-82002380D01*
X74080952Y-83002380D01*
X74461904Y-82002380D02*
X75128571Y-83002380D01*
X75128571Y-82002380D02*
X74461904Y-83002380D01*
X75509523Y-82621428D02*
X76271428Y-82621428D01*
X77223809Y-83002380D02*
X76747619Y-83002380D01*
X76747619Y-82002380D01*
X77557142Y-82478571D02*
X77890476Y-82478571D01*
X78033333Y-83002380D02*
X77557142Y-83002380D01*
X77557142Y-82002380D01*
X78033333Y-82002380D01*
X78461904Y-83002380D02*
X78461904Y-82002380D01*
X78700000Y-82002380D01*
X78842857Y-82050000D01*
X78938095Y-82145238D01*
X78985714Y-82240476D01*
X79033333Y-82430952D01*
X79033333Y-82573809D01*
X78985714Y-82764285D01*
X78938095Y-82859523D01*
X78842857Y-82954761D01*
X78700000Y-83002380D01*
X78461904Y-83002380D01*
X53483035Y-103639880D02*
X53483035Y-102639880D01*
X53816369Y-103354166D01*
X54149702Y-102639880D01*
X54149702Y-103639880D01*
X54530654Y-102639880D02*
X55197321Y-103639880D01*
X55197321Y-102639880D02*
X54530654Y-103639880D01*
X56102083Y-103639880D02*
X55530654Y-103639880D01*
X55816369Y-103639880D02*
X55816369Y-102639880D01*
X55721130Y-102782738D01*
X55625892Y-102877976D01*
X55530654Y-102925595D01*
X51006845Y-92527380D02*
X51006845Y-91527380D01*
X51340178Y-92241666D01*
X51673511Y-91527380D01*
X51673511Y-92527380D01*
X52054464Y-91527380D02*
X52721130Y-92527380D01*
X52721130Y-91527380D02*
X52054464Y-92527380D01*
X53102083Y-92146428D02*
X53863988Y-92146428D01*
X54340178Y-92527380D02*
X54340178Y-91527380D01*
X54911607Y-92527380D01*
X54911607Y-91527380D01*
X55530654Y-92527380D02*
X55435416Y-92479761D01*
X55387797Y-92432142D01*
X55340178Y-92336904D01*
X55340178Y-92051190D01*
X55387797Y-91955952D01*
X55435416Y-91908333D01*
X55530654Y-91860714D01*
X55673511Y-91860714D01*
X55768750Y-91908333D01*
X55816369Y-91955952D01*
X55863988Y-92051190D01*
X55863988Y-92336904D01*
X55816369Y-92432142D01*
X55768750Y-92479761D01*
X55673511Y-92527380D01*
X55530654Y-92527380D01*
X56768750Y-92527380D02*
X56292559Y-92527380D01*
X56292559Y-91527380D01*
X57102083Y-92003571D02*
X57435416Y-92003571D01*
X57578273Y-92527380D02*
X57102083Y-92527380D01*
X57102083Y-91527380D01*
X57578273Y-91527380D01*
X58006845Y-92527380D02*
X58006845Y-91527380D01*
X58244940Y-91527380D01*
X58387797Y-91575000D01*
X58483035Y-91670238D01*
X58530654Y-91765476D01*
X58578273Y-91955952D01*
X58578273Y-92098809D01*
X58530654Y-92289285D01*
X58483035Y-92384523D01*
X58387797Y-92479761D01*
X58244940Y-92527380D01*
X58006845Y-92527380D01*
M02*
