G04 #@! TF.GenerationSoftware,KiCad,Pcbnew,(5.1.4)-1*
G04 #@! TF.CreationDate,2019-12-08T17:57:44-07:00*
G04 #@! TF.ProjectId,BAEmacropad,4241456d-6163-4726-9f70-61642e6b6963,rev?*
G04 #@! TF.SameCoordinates,Original*
G04 #@! TF.FileFunction,Soldermask,Top*
G04 #@! TF.FilePolarity,Negative*
%FSLAX46Y46*%
G04 Gerber Fmt 4.6, Leading zero omitted, Abs format (unit mm)*
G04 Created by KiCad (PCBNEW (5.1.4)-1) date 2019-12-08 17:57:44*
%MOMM*%
%LPD*%
G04 APERTURE LIST*
%ADD10C,0.100000*%
G04 APERTURE END LIST*
D10*
G36*
X103263500Y-106926000D02*
G01*
X101661500Y-106926000D01*
X101661500Y-105824000D01*
X103263500Y-105824000D01*
X103263500Y-106926000D01*
X103263500Y-106926000D01*
G37*
G36*
X98363500Y-106926000D02*
G01*
X96761500Y-106926000D01*
X96761500Y-105824000D01*
X98363500Y-105824000D01*
X98363500Y-106926000D01*
X98363500Y-106926000D01*
G37*
G36*
X85051474Y-100459184D02*
G01*
X85269474Y-100549483D01*
X85423623Y-100613333D01*
X85758548Y-100837123D01*
X86043377Y-101121952D01*
X86267167Y-101456877D01*
X86326813Y-101600877D01*
X86421316Y-101829026D01*
X86499900Y-102224094D01*
X86499900Y-102626906D01*
X86421316Y-103021974D01*
X86359363Y-103171541D01*
X86267167Y-103394123D01*
X86043377Y-103729048D01*
X85758548Y-104013877D01*
X85423623Y-104237667D01*
X85269474Y-104301517D01*
X85051474Y-104391816D01*
X84656406Y-104470400D01*
X84253594Y-104470400D01*
X83858526Y-104391816D01*
X83640526Y-104301517D01*
X83486377Y-104237667D01*
X83151452Y-104013877D01*
X82866623Y-103729048D01*
X82642833Y-103394123D01*
X82550637Y-103171541D01*
X82488684Y-103021974D01*
X82410100Y-102626906D01*
X82410100Y-102224094D01*
X82488684Y-101829026D01*
X82583187Y-101600877D01*
X82642833Y-101456877D01*
X82866623Y-101121952D01*
X83151452Y-100837123D01*
X83486377Y-100613333D01*
X83640526Y-100549483D01*
X83858526Y-100459184D01*
X84253594Y-100380600D01*
X84656406Y-100380600D01*
X85051474Y-100459184D01*
X85051474Y-100459184D01*
G37*
G36*
X69674411Y-100911026D02*
G01*
X69793137Y-100960204D01*
X69961041Y-101029752D01*
X69961042Y-101029753D01*
X70219004Y-101202117D01*
X70438383Y-101421496D01*
X70462024Y-101456878D01*
X70610748Y-101679459D01*
X70663066Y-101805767D01*
X70729474Y-101966089D01*
X70733219Y-101984918D01*
X70790000Y-102270375D01*
X70790000Y-102580625D01*
X70759737Y-102732767D01*
X70729474Y-102884911D01*
X70695092Y-102967915D01*
X70610748Y-103171541D01*
X70610747Y-103171542D01*
X70438383Y-103429504D01*
X70219004Y-103648883D01*
X70099028Y-103729048D01*
X69961041Y-103821248D01*
X69793137Y-103890796D01*
X69674411Y-103939974D01*
X69370125Y-104000500D01*
X69059875Y-104000500D01*
X68755589Y-103939974D01*
X68636863Y-103890796D01*
X68468959Y-103821248D01*
X68330972Y-103729048D01*
X68210996Y-103648883D01*
X67991617Y-103429504D01*
X67819253Y-103171542D01*
X67819252Y-103171541D01*
X67734908Y-102967915D01*
X67700526Y-102884911D01*
X67640000Y-102580625D01*
X67640000Y-102270375D01*
X67696781Y-101984918D01*
X67700526Y-101966089D01*
X67766934Y-101805767D01*
X67819252Y-101679459D01*
X67967976Y-101456878D01*
X67991617Y-101421496D01*
X68210996Y-101202117D01*
X68468958Y-101029753D01*
X68468959Y-101029752D01*
X68636863Y-100960204D01*
X68755589Y-100911026D01*
X68907733Y-100880763D01*
X69059875Y-100850500D01*
X69370125Y-100850500D01*
X69674411Y-100911026D01*
X69674411Y-100911026D01*
G37*
G36*
X103263500Y-103726000D02*
G01*
X101661500Y-103726000D01*
X101661500Y-102624000D01*
X103263500Y-102624000D01*
X103263500Y-103726000D01*
X103263500Y-103726000D01*
G37*
G36*
X98363500Y-103726000D02*
G01*
X96761500Y-103726000D01*
X96761500Y-102624000D01*
X98363500Y-102624000D01*
X98363500Y-103726000D01*
X98363500Y-103726000D01*
G37*
G36*
X92891583Y-101184585D02*
G01*
X93060340Y-101254486D01*
X93212218Y-101355968D01*
X93341382Y-101485132D01*
X93442864Y-101637010D01*
X93512765Y-101805767D01*
X93548400Y-101984918D01*
X93548400Y-102167582D01*
X93512765Y-102346733D01*
X93442864Y-102515490D01*
X93341382Y-102667368D01*
X93212218Y-102796532D01*
X93060340Y-102898014D01*
X92891583Y-102967915D01*
X92712432Y-103003550D01*
X92529768Y-103003550D01*
X92350617Y-102967915D01*
X92181860Y-102898014D01*
X92029982Y-102796532D01*
X91900818Y-102667368D01*
X91799336Y-102515490D01*
X91729435Y-102346733D01*
X91693800Y-102167582D01*
X91693800Y-101984918D01*
X91729435Y-101805767D01*
X91799336Y-101637010D01*
X91900818Y-101485132D01*
X92029982Y-101355968D01*
X92181860Y-101254486D01*
X92350617Y-101184585D01*
X92529768Y-101148950D01*
X92712432Y-101148950D01*
X92891583Y-101184585D01*
X92891583Y-101184585D01*
G37*
G36*
X107674383Y-101184585D02*
G01*
X107843140Y-101254486D01*
X107995018Y-101355968D01*
X108124182Y-101485132D01*
X108225664Y-101637010D01*
X108295565Y-101805767D01*
X108331200Y-101984918D01*
X108331200Y-102167582D01*
X108295565Y-102346733D01*
X108225664Y-102515490D01*
X108124182Y-102667368D01*
X107995018Y-102796532D01*
X107843140Y-102898014D01*
X107674383Y-102967915D01*
X107495232Y-103003550D01*
X107312568Y-103003550D01*
X107133417Y-102967915D01*
X106964660Y-102898014D01*
X106812782Y-102796532D01*
X106683618Y-102667368D01*
X106582136Y-102515490D01*
X106512235Y-102346733D01*
X106476600Y-102167582D01*
X106476600Y-101984918D01*
X106512235Y-101805767D01*
X106582136Y-101637010D01*
X106683618Y-101485132D01*
X106812782Y-101355968D01*
X106964660Y-101254486D01*
X107133417Y-101184585D01*
X107312568Y-101148950D01*
X107495232Y-101148950D01*
X107674383Y-101184585D01*
X107674383Y-101184585D01*
G37*
G36*
X55365224Y-98046184D02*
G01*
X55583224Y-98136483D01*
X55737373Y-98200333D01*
X56072298Y-98424123D01*
X56357127Y-98708952D01*
X56580917Y-99043877D01*
X56613312Y-99122086D01*
X56735066Y-99416026D01*
X56813650Y-99811094D01*
X56813650Y-100213906D01*
X56735066Y-100608974D01*
X56684201Y-100731772D01*
X56580917Y-100981123D01*
X56357127Y-101316048D01*
X56072298Y-101600877D01*
X55737373Y-101824667D01*
X55583224Y-101888517D01*
X55365224Y-101978816D01*
X54970156Y-102057400D01*
X54567344Y-102057400D01*
X54172276Y-101978816D01*
X53954276Y-101888517D01*
X53800127Y-101824667D01*
X53465202Y-101600877D01*
X53180373Y-101316048D01*
X52956583Y-100981123D01*
X52853299Y-100731772D01*
X52802434Y-100608974D01*
X52723850Y-100213906D01*
X52723850Y-99811094D01*
X52802434Y-99416026D01*
X52924188Y-99122086D01*
X52956583Y-99043877D01*
X53180373Y-98708952D01*
X53465202Y-98424123D01*
X53800127Y-98200333D01*
X53954276Y-98136483D01*
X54172276Y-98046184D01*
X54567344Y-97967600D01*
X54970156Y-97967600D01*
X55365224Y-98046184D01*
X55365224Y-98046184D01*
G37*
G36*
X49958854Y-99122085D02*
G01*
X50127376Y-99191889D01*
X50279041Y-99293228D01*
X50408022Y-99422209D01*
X50509361Y-99573874D01*
X50579165Y-99742396D01*
X50614750Y-99921297D01*
X50614750Y-100103703D01*
X50579165Y-100282604D01*
X50509361Y-100451126D01*
X50408022Y-100602791D01*
X50279041Y-100731772D01*
X50127376Y-100833111D01*
X49958854Y-100902915D01*
X49779953Y-100938500D01*
X49597547Y-100938500D01*
X49418646Y-100902915D01*
X49250124Y-100833111D01*
X49098459Y-100731772D01*
X48969478Y-100602791D01*
X48868139Y-100451126D01*
X48798335Y-100282604D01*
X48762750Y-100103703D01*
X48762750Y-99921297D01*
X48798335Y-99742396D01*
X48868139Y-99573874D01*
X48969478Y-99422209D01*
X49098459Y-99293228D01*
X49250124Y-99191889D01*
X49418646Y-99122085D01*
X49597547Y-99086500D01*
X49779953Y-99086500D01*
X49958854Y-99122085D01*
X49958854Y-99122085D01*
G37*
G36*
X60118854Y-99122085D02*
G01*
X60287376Y-99191889D01*
X60439041Y-99293228D01*
X60568022Y-99422209D01*
X60669361Y-99573874D01*
X60739165Y-99742396D01*
X60774750Y-99921297D01*
X60774750Y-100103703D01*
X60739165Y-100282604D01*
X60669361Y-100451126D01*
X60568022Y-100602791D01*
X60439041Y-100731772D01*
X60287376Y-100833111D01*
X60118854Y-100902915D01*
X59939953Y-100938500D01*
X59757547Y-100938500D01*
X59578646Y-100902915D01*
X59410124Y-100833111D01*
X59258459Y-100731772D01*
X59129478Y-100602791D01*
X59028139Y-100451126D01*
X58958335Y-100282604D01*
X58922750Y-100103703D01*
X58922750Y-99921297D01*
X58958335Y-99742396D01*
X59028139Y-99573874D01*
X59129478Y-99422209D01*
X59258459Y-99293228D01*
X59410124Y-99191889D01*
X59578646Y-99122085D01*
X59757547Y-99086500D01*
X59939953Y-99086500D01*
X60118854Y-99122085D01*
X60118854Y-99122085D01*
G37*
G36*
X92434383Y-98644585D02*
G01*
X92603140Y-98714486D01*
X92755018Y-98815968D01*
X92884182Y-98945132D01*
X92985664Y-99097010D01*
X93055565Y-99265767D01*
X93091200Y-99444918D01*
X93091200Y-99627582D01*
X93055565Y-99806733D01*
X92985664Y-99975490D01*
X92884182Y-100127368D01*
X92755018Y-100256532D01*
X92603140Y-100358014D01*
X92434383Y-100427915D01*
X92255232Y-100463550D01*
X92072568Y-100463550D01*
X91893417Y-100427915D01*
X91724660Y-100358014D01*
X91572782Y-100256532D01*
X91443618Y-100127368D01*
X91342136Y-99975490D01*
X91272235Y-99806733D01*
X91236600Y-99627582D01*
X91236600Y-99444918D01*
X91272235Y-99265767D01*
X91342136Y-99097010D01*
X91443618Y-98945132D01*
X91572782Y-98815968D01*
X91724660Y-98714486D01*
X91893417Y-98644585D01*
X92072568Y-98608950D01*
X92255232Y-98608950D01*
X92434383Y-98644585D01*
X92434383Y-98644585D01*
G37*
G36*
X108131583Y-98644585D02*
G01*
X108300340Y-98714486D01*
X108452218Y-98815968D01*
X108581382Y-98945132D01*
X108682864Y-99097010D01*
X108752765Y-99265767D01*
X108788400Y-99444918D01*
X108788400Y-99627582D01*
X108752765Y-99806733D01*
X108682864Y-99975490D01*
X108581382Y-100127368D01*
X108452218Y-100256532D01*
X108300340Y-100358014D01*
X108131583Y-100427915D01*
X107952432Y-100463550D01*
X107769768Y-100463550D01*
X107590617Y-100427915D01*
X107421860Y-100358014D01*
X107269982Y-100256532D01*
X107140818Y-100127368D01*
X107039336Y-99975490D01*
X106969435Y-99806733D01*
X106933800Y-99627582D01*
X106933800Y-99444918D01*
X106969435Y-99265767D01*
X107039336Y-99097010D01*
X107140818Y-98945132D01*
X107269982Y-98815968D01*
X107421860Y-98714486D01*
X107590617Y-98644585D01*
X107769768Y-98608950D01*
X107952432Y-98608950D01*
X108131583Y-98644585D01*
X108131583Y-98644585D01*
G37*
G36*
X92891583Y-96104585D02*
G01*
X93060340Y-96174486D01*
X93212218Y-96275968D01*
X93341382Y-96405132D01*
X93442864Y-96557010D01*
X93512765Y-96725767D01*
X93548400Y-96904918D01*
X93548400Y-97087582D01*
X93512765Y-97266733D01*
X93442864Y-97435490D01*
X93341382Y-97587368D01*
X93212218Y-97716532D01*
X93060340Y-97818014D01*
X92891583Y-97887915D01*
X92712432Y-97923550D01*
X92529768Y-97923550D01*
X92350617Y-97887915D01*
X92181860Y-97818014D01*
X92029982Y-97716532D01*
X91900818Y-97587368D01*
X91799336Y-97435490D01*
X91729435Y-97266733D01*
X91693800Y-97087582D01*
X91693800Y-96904918D01*
X91729435Y-96725767D01*
X91799336Y-96557010D01*
X91900818Y-96405132D01*
X92029982Y-96275968D01*
X92181860Y-96174486D01*
X92350617Y-96104585D01*
X92529768Y-96068950D01*
X92712432Y-96068950D01*
X92891583Y-96104585D01*
X92891583Y-96104585D01*
G37*
G36*
X107674383Y-96104585D02*
G01*
X107843140Y-96174486D01*
X107995018Y-96275968D01*
X108124182Y-96405132D01*
X108225664Y-96557010D01*
X108295565Y-96725767D01*
X108331200Y-96904918D01*
X108331200Y-97087582D01*
X108295565Y-97266733D01*
X108225664Y-97435490D01*
X108124182Y-97587368D01*
X107995018Y-97716532D01*
X107843140Y-97818014D01*
X107674383Y-97887915D01*
X107495232Y-97923550D01*
X107312568Y-97923550D01*
X107133417Y-97887915D01*
X106964660Y-97818014D01*
X106812782Y-97716532D01*
X106683618Y-97587368D01*
X106582136Y-97435490D01*
X106512235Y-97266733D01*
X106476600Y-97087582D01*
X106476600Y-96904918D01*
X106512235Y-96725767D01*
X106582136Y-96557010D01*
X106683618Y-96405132D01*
X106812782Y-96275968D01*
X106964660Y-96174486D01*
X107133417Y-96104585D01*
X107312568Y-96068950D01*
X107495232Y-96068950D01*
X107674383Y-96104585D01*
X107674383Y-96104585D01*
G37*
G36*
X76375952Y-94682930D02*
G01*
X76463075Y-94700259D01*
X76572498Y-94745584D01*
X76627211Y-94768247D01*
X76773933Y-94866283D01*
X76774928Y-94866948D01*
X76900552Y-94992572D01*
X76900554Y-94992575D01*
X76999253Y-95140289D01*
X76999253Y-95140290D01*
X77067241Y-95304425D01*
X77101900Y-95478671D01*
X77101900Y-95656329D01*
X77067241Y-95830575D01*
X77021916Y-95939998D01*
X76999253Y-95994711D01*
X76949648Y-96068950D01*
X76900552Y-96142428D01*
X76774928Y-96268052D01*
X76774925Y-96268054D01*
X76627211Y-96366753D01*
X76572498Y-96389416D01*
X76463075Y-96434741D01*
X76375952Y-96452070D01*
X76288831Y-96469400D01*
X76111169Y-96469400D01*
X76024048Y-96452070D01*
X75936925Y-96434741D01*
X75827502Y-96389416D01*
X75772789Y-96366753D01*
X75625075Y-96268054D01*
X75625072Y-96268052D01*
X75499448Y-96142428D01*
X75450352Y-96068950D01*
X75400747Y-95994711D01*
X75378084Y-95939998D01*
X75332759Y-95830575D01*
X75298100Y-95656329D01*
X75298100Y-95478671D01*
X75332759Y-95304425D01*
X75400747Y-95140290D01*
X75400747Y-95140289D01*
X75499446Y-94992575D01*
X75499448Y-94992572D01*
X75625072Y-94866948D01*
X75626067Y-94866283D01*
X75772789Y-94768247D01*
X75827502Y-94745584D01*
X75936925Y-94700259D01*
X76024048Y-94682929D01*
X76111169Y-94665600D01*
X76288831Y-94665600D01*
X76375952Y-94682930D01*
X76375952Y-94682930D01*
G37*
G36*
X108131583Y-93564585D02*
G01*
X108300340Y-93634486D01*
X108452218Y-93735968D01*
X108581382Y-93865132D01*
X108682864Y-94017010D01*
X108752765Y-94185767D01*
X108788400Y-94364918D01*
X108788400Y-94547582D01*
X108752765Y-94726733D01*
X108682864Y-94895490D01*
X108581382Y-95047368D01*
X108452218Y-95176532D01*
X108300340Y-95278014D01*
X108131583Y-95347915D01*
X107952432Y-95383550D01*
X107769768Y-95383550D01*
X107590617Y-95347915D01*
X107421860Y-95278014D01*
X107269982Y-95176532D01*
X107140818Y-95047368D01*
X107039336Y-94895490D01*
X106969435Y-94726733D01*
X106933800Y-94547582D01*
X106933800Y-94364918D01*
X106969435Y-94185767D01*
X107039336Y-94017010D01*
X107140818Y-93865132D01*
X107269982Y-93735968D01*
X107421860Y-93634486D01*
X107590617Y-93564585D01*
X107769768Y-93528950D01*
X107952432Y-93528950D01*
X108131583Y-93564585D01*
X108131583Y-93564585D01*
G37*
G36*
X92434383Y-93564585D02*
G01*
X92603140Y-93634486D01*
X92755018Y-93735968D01*
X92884182Y-93865132D01*
X92985664Y-94017010D01*
X93055565Y-94185767D01*
X93091200Y-94364918D01*
X93091200Y-94547582D01*
X93055565Y-94726733D01*
X92985664Y-94895490D01*
X92884182Y-95047368D01*
X92755018Y-95176532D01*
X92603140Y-95278014D01*
X92434383Y-95347915D01*
X92255232Y-95383550D01*
X92072568Y-95383550D01*
X91893417Y-95347915D01*
X91724660Y-95278014D01*
X91572782Y-95176532D01*
X91443618Y-95047368D01*
X91342136Y-94895490D01*
X91272235Y-94726733D01*
X91236600Y-94547582D01*
X91236600Y-94364918D01*
X91272235Y-94185767D01*
X91342136Y-94017010D01*
X91443618Y-93865132D01*
X91572782Y-93735968D01*
X91724660Y-93634486D01*
X91893417Y-93564585D01*
X92072568Y-93528950D01*
X92255232Y-93528950D01*
X92434383Y-93564585D01*
X92434383Y-93564585D01*
G37*
G36*
X98363500Y-95019750D02*
G01*
X96761500Y-95019750D01*
X96761500Y-93917750D01*
X98363500Y-93917750D01*
X98363500Y-95019750D01*
X98363500Y-95019750D01*
G37*
G36*
X103263500Y-95019750D02*
G01*
X101661500Y-95019750D01*
X101661500Y-93917750D01*
X103263500Y-93917750D01*
X103263500Y-95019750D01*
X103263500Y-95019750D01*
G37*
G36*
X107674383Y-91024585D02*
G01*
X107843140Y-91094486D01*
X107995018Y-91195968D01*
X108124182Y-91325132D01*
X108225664Y-91477010D01*
X108295565Y-91645767D01*
X108331200Y-91824918D01*
X108331200Y-92007582D01*
X108295565Y-92186733D01*
X108225664Y-92355490D01*
X108124182Y-92507368D01*
X107995018Y-92636532D01*
X107843140Y-92738014D01*
X107674383Y-92807915D01*
X107495232Y-92843550D01*
X107312568Y-92843550D01*
X107133417Y-92807915D01*
X106964660Y-92738014D01*
X106812782Y-92636532D01*
X106683618Y-92507368D01*
X106582136Y-92355490D01*
X106512235Y-92186733D01*
X106476600Y-92007582D01*
X106476600Y-91824918D01*
X106512235Y-91645767D01*
X106582136Y-91477010D01*
X106683618Y-91325132D01*
X106812782Y-91195968D01*
X106964660Y-91094486D01*
X107133417Y-91024585D01*
X107312568Y-90988950D01*
X107495232Y-90988950D01*
X107674383Y-91024585D01*
X107674383Y-91024585D01*
G37*
G36*
X92891583Y-91024585D02*
G01*
X93060340Y-91094486D01*
X93212218Y-91195968D01*
X93341382Y-91325132D01*
X93442864Y-91477010D01*
X93512765Y-91645767D01*
X93548400Y-91824918D01*
X93548400Y-92007582D01*
X93512765Y-92186733D01*
X93442864Y-92355490D01*
X93341382Y-92507368D01*
X93212218Y-92636532D01*
X93060340Y-92738014D01*
X92891583Y-92807915D01*
X92712432Y-92843550D01*
X92529768Y-92843550D01*
X92350617Y-92807915D01*
X92181860Y-92738014D01*
X92029982Y-92636532D01*
X91900818Y-92507368D01*
X91799336Y-92355490D01*
X91729435Y-92186733D01*
X91693800Y-92007582D01*
X91693800Y-91824918D01*
X91729435Y-91645767D01*
X91799336Y-91477010D01*
X91900818Y-91325132D01*
X92029982Y-91195968D01*
X92181860Y-91094486D01*
X92350617Y-91024585D01*
X92529768Y-90988950D01*
X92712432Y-90988950D01*
X92891583Y-91024585D01*
X92891583Y-91024585D01*
G37*
G36*
X76796474Y-88521184D02*
G01*
X76876874Y-88554487D01*
X77168623Y-88675333D01*
X77503548Y-88899123D01*
X77788377Y-89183952D01*
X78012167Y-89518877D01*
X78012167Y-89518878D01*
X78166316Y-89891026D01*
X78244900Y-90286094D01*
X78244900Y-90688906D01*
X78166316Y-91083974D01*
X78161961Y-91094487D01*
X78012167Y-91456123D01*
X77788377Y-91791048D01*
X77503548Y-92075877D01*
X77168623Y-92299667D01*
X77033854Y-92355490D01*
X76796474Y-92453816D01*
X76401406Y-92532400D01*
X75998594Y-92532400D01*
X75603526Y-92453816D01*
X75366146Y-92355490D01*
X75231377Y-92299667D01*
X74896452Y-92075877D01*
X74611623Y-91791048D01*
X74387833Y-91456123D01*
X74238039Y-91094487D01*
X74233684Y-91083974D01*
X74155100Y-90688906D01*
X74155100Y-90286094D01*
X74233684Y-89891026D01*
X74387833Y-89518878D01*
X74387833Y-89518877D01*
X74611623Y-89183952D01*
X74896452Y-88899123D01*
X75231377Y-88675333D01*
X75523126Y-88554487D01*
X75603526Y-88521184D01*
X75998594Y-88442600D01*
X76401406Y-88442600D01*
X76796474Y-88521184D01*
X76796474Y-88521184D01*
G37*
G36*
X98363500Y-91819750D02*
G01*
X96761500Y-91819750D01*
X96761500Y-90717750D01*
X98363500Y-90717750D01*
X98363500Y-91819750D01*
X98363500Y-91819750D01*
G37*
G36*
X103263500Y-91819750D02*
G01*
X101661500Y-91819750D01*
X101661500Y-90717750D01*
X103263500Y-90717750D01*
X103263500Y-91819750D01*
X103263500Y-91819750D01*
G37*
G36*
X108131583Y-88484585D02*
G01*
X108300340Y-88554486D01*
X108452218Y-88655968D01*
X108581382Y-88785132D01*
X108682864Y-88937010D01*
X108752765Y-89105767D01*
X108788400Y-89284918D01*
X108788400Y-89467582D01*
X108752765Y-89646733D01*
X108682864Y-89815490D01*
X108581382Y-89967368D01*
X108452218Y-90096532D01*
X108300340Y-90198014D01*
X108131583Y-90267915D01*
X107952432Y-90303550D01*
X107769768Y-90303550D01*
X107590617Y-90267915D01*
X107421860Y-90198014D01*
X107269982Y-90096532D01*
X107140818Y-89967368D01*
X107039336Y-89815490D01*
X106969435Y-89646733D01*
X106933800Y-89467582D01*
X106933800Y-89284918D01*
X106969435Y-89105767D01*
X107039336Y-88937010D01*
X107140818Y-88785132D01*
X107269982Y-88655968D01*
X107421860Y-88554486D01*
X107590617Y-88484585D01*
X107769768Y-88448950D01*
X107952432Y-88448950D01*
X108131583Y-88484585D01*
X108131583Y-88484585D01*
G37*
G36*
X92434383Y-88484585D02*
G01*
X92603140Y-88554486D01*
X92755018Y-88655968D01*
X92884182Y-88785132D01*
X92985664Y-88937010D01*
X93055565Y-89105767D01*
X93091200Y-89284918D01*
X93091200Y-89467582D01*
X93055565Y-89646733D01*
X92985664Y-89815490D01*
X92884182Y-89967368D01*
X92755018Y-90096532D01*
X92603140Y-90198014D01*
X92434383Y-90267915D01*
X92255232Y-90303550D01*
X92072568Y-90303550D01*
X91893417Y-90267915D01*
X91724660Y-90198014D01*
X91572782Y-90096532D01*
X91443618Y-89967368D01*
X91342136Y-89815490D01*
X91272235Y-89646733D01*
X91236600Y-89467582D01*
X91236600Y-89284918D01*
X91272235Y-89105767D01*
X91342136Y-88937010D01*
X91443618Y-88785132D01*
X91572782Y-88655968D01*
X91724660Y-88554486D01*
X91893417Y-88484585D01*
X92072568Y-88448950D01*
X92255232Y-88448950D01*
X92434383Y-88484585D01*
X92434383Y-88484585D01*
G37*
G36*
X92891583Y-85944585D02*
G01*
X93060340Y-86014486D01*
X93212218Y-86115968D01*
X93341382Y-86245132D01*
X93442864Y-86397010D01*
X93512765Y-86565767D01*
X93548400Y-86744918D01*
X93548400Y-86927582D01*
X93512765Y-87106733D01*
X93442864Y-87275490D01*
X93341382Y-87427368D01*
X93212218Y-87556532D01*
X93060340Y-87658014D01*
X92891583Y-87727915D01*
X92712432Y-87763550D01*
X92529768Y-87763550D01*
X92350617Y-87727915D01*
X92181860Y-87658014D01*
X92029982Y-87556532D01*
X91900818Y-87427368D01*
X91799336Y-87275490D01*
X91729435Y-87106733D01*
X91693800Y-86927582D01*
X91693800Y-86744918D01*
X91729435Y-86565767D01*
X91799336Y-86397010D01*
X91900818Y-86245132D01*
X92029982Y-86115968D01*
X92181860Y-86014486D01*
X92350617Y-85944585D01*
X92529768Y-85908950D01*
X92712432Y-85908950D01*
X92891583Y-85944585D01*
X92891583Y-85944585D01*
G37*
G36*
X107674383Y-85944585D02*
G01*
X107843140Y-86014486D01*
X107995018Y-86115968D01*
X108124182Y-86245132D01*
X108225664Y-86397010D01*
X108295565Y-86565767D01*
X108331200Y-86744918D01*
X108331200Y-86927582D01*
X108295565Y-87106733D01*
X108225664Y-87275490D01*
X108124182Y-87427368D01*
X107995018Y-87556532D01*
X107843140Y-87658014D01*
X107674383Y-87727915D01*
X107495232Y-87763550D01*
X107312568Y-87763550D01*
X107133417Y-87727915D01*
X106964660Y-87658014D01*
X106812782Y-87556532D01*
X106683618Y-87427368D01*
X106582136Y-87275490D01*
X106512235Y-87106733D01*
X106476600Y-86927582D01*
X106476600Y-86744918D01*
X106512235Y-86565767D01*
X106582136Y-86397010D01*
X106683618Y-86245132D01*
X106812782Y-86115968D01*
X106964660Y-86014486D01*
X107133417Y-85944585D01*
X107312568Y-85908950D01*
X107495232Y-85908950D01*
X107674383Y-85944585D01*
X107674383Y-85944585D01*
G37*
G36*
X76375952Y-84522930D02*
G01*
X76463075Y-84540259D01*
X76572498Y-84585584D01*
X76627211Y-84608247D01*
X76773933Y-84706283D01*
X76774928Y-84706948D01*
X76900552Y-84832572D01*
X76900554Y-84832575D01*
X76999253Y-84980289D01*
X76999253Y-84980290D01*
X77067241Y-85144425D01*
X77101900Y-85318671D01*
X77101900Y-85496329D01*
X77067241Y-85670575D01*
X77021916Y-85779998D01*
X76999253Y-85834711D01*
X76949648Y-85908950D01*
X76900552Y-85982428D01*
X76774928Y-86108052D01*
X76774925Y-86108054D01*
X76627211Y-86206753D01*
X76572498Y-86229416D01*
X76463075Y-86274741D01*
X76375952Y-86292071D01*
X76288831Y-86309400D01*
X76111169Y-86309400D01*
X76024048Y-86292071D01*
X75936925Y-86274741D01*
X75827502Y-86229416D01*
X75772789Y-86206753D01*
X75625075Y-86108054D01*
X75625072Y-86108052D01*
X75499448Y-85982428D01*
X75450352Y-85908950D01*
X75400747Y-85834711D01*
X75378084Y-85779998D01*
X75332759Y-85670575D01*
X75298100Y-85496329D01*
X75298100Y-85318671D01*
X75332759Y-85144425D01*
X75400747Y-84980290D01*
X75400747Y-84980289D01*
X75499446Y-84832575D01*
X75499448Y-84832572D01*
X75625072Y-84706948D01*
X75626067Y-84706283D01*
X75772789Y-84608247D01*
X75827502Y-84585584D01*
X75936925Y-84540259D01*
X76024048Y-84522930D01*
X76111169Y-84505600D01*
X76288831Y-84505600D01*
X76375952Y-84522930D01*
X76375952Y-84522930D01*
G37*
G36*
X108131583Y-83404585D02*
G01*
X108300340Y-83474486D01*
X108452218Y-83575968D01*
X108581382Y-83705132D01*
X108682864Y-83857010D01*
X108752765Y-84025767D01*
X108788400Y-84204918D01*
X108788400Y-84387582D01*
X108752765Y-84566733D01*
X108682864Y-84735490D01*
X108581382Y-84887368D01*
X108452218Y-85016532D01*
X108300340Y-85118014D01*
X108131583Y-85187915D01*
X107952432Y-85223550D01*
X107769768Y-85223550D01*
X107590617Y-85187915D01*
X107421860Y-85118014D01*
X107269982Y-85016532D01*
X107140818Y-84887368D01*
X107039336Y-84735490D01*
X106969435Y-84566733D01*
X106933800Y-84387582D01*
X106933800Y-84204918D01*
X106969435Y-84025767D01*
X107039336Y-83857010D01*
X107140818Y-83705132D01*
X107269982Y-83575968D01*
X107421860Y-83474486D01*
X107590617Y-83404585D01*
X107769768Y-83368950D01*
X107952432Y-83368950D01*
X108131583Y-83404585D01*
X108131583Y-83404585D01*
G37*
G36*
X92434383Y-83404585D02*
G01*
X92603140Y-83474486D01*
X92755018Y-83575968D01*
X92884182Y-83705132D01*
X92985664Y-83857010D01*
X93055565Y-84025767D01*
X93091200Y-84204918D01*
X93091200Y-84387582D01*
X93055565Y-84566733D01*
X92985664Y-84735490D01*
X92884182Y-84887368D01*
X92755018Y-85016532D01*
X92603140Y-85118014D01*
X92434383Y-85187915D01*
X92255232Y-85223550D01*
X92072568Y-85223550D01*
X91893417Y-85187915D01*
X91724660Y-85118014D01*
X91572782Y-85016532D01*
X91443618Y-84887368D01*
X91342136Y-84735490D01*
X91272235Y-84566733D01*
X91236600Y-84387582D01*
X91236600Y-84204918D01*
X91272235Y-84025767D01*
X91342136Y-83857010D01*
X91443618Y-83705132D01*
X91572782Y-83575968D01*
X91724660Y-83474486D01*
X91893417Y-83404585D01*
X92072568Y-83368950D01*
X92255232Y-83368950D01*
X92434383Y-83404585D01*
X92434383Y-83404585D01*
G37*
G36*
X103263500Y-83113500D02*
G01*
X101661500Y-83113500D01*
X101661500Y-82011500D01*
X103263500Y-82011500D01*
X103263500Y-83113500D01*
X103263500Y-83113500D01*
G37*
G36*
X98363500Y-83113500D02*
G01*
X96761500Y-83113500D01*
X96761500Y-82011500D01*
X98363500Y-82011500D01*
X98363500Y-83113500D01*
X98363500Y-83113500D01*
G37*
G36*
X107674383Y-80864585D02*
G01*
X107843140Y-80934486D01*
X107995018Y-81035968D01*
X108124182Y-81165132D01*
X108225664Y-81317010D01*
X108295565Y-81485767D01*
X108331200Y-81664918D01*
X108331200Y-81847582D01*
X108295565Y-82026733D01*
X108225664Y-82195490D01*
X108124182Y-82347368D01*
X107995018Y-82476532D01*
X107843140Y-82578014D01*
X107674383Y-82647915D01*
X107495232Y-82683550D01*
X107312568Y-82683550D01*
X107133417Y-82647915D01*
X106964660Y-82578014D01*
X106812782Y-82476532D01*
X106683618Y-82347368D01*
X106582136Y-82195490D01*
X106512235Y-82026733D01*
X106476600Y-81847582D01*
X106476600Y-81664918D01*
X106512235Y-81485767D01*
X106582136Y-81317010D01*
X106683618Y-81165132D01*
X106812782Y-81035968D01*
X106964660Y-80934486D01*
X107133417Y-80864585D01*
X107312568Y-80828950D01*
X107495232Y-80828950D01*
X107674383Y-80864585D01*
X107674383Y-80864585D01*
G37*
G36*
X92891583Y-80864585D02*
G01*
X93060340Y-80934486D01*
X93212218Y-81035968D01*
X93341382Y-81165132D01*
X93442864Y-81317010D01*
X93512765Y-81485767D01*
X93548400Y-81664918D01*
X93548400Y-81847582D01*
X93512765Y-82026733D01*
X93442864Y-82195490D01*
X93341382Y-82347368D01*
X93212218Y-82476532D01*
X93060340Y-82578014D01*
X92891583Y-82647915D01*
X92712432Y-82683550D01*
X92529768Y-82683550D01*
X92350617Y-82647915D01*
X92181860Y-82578014D01*
X92029982Y-82476532D01*
X91900818Y-82347368D01*
X91799336Y-82195490D01*
X91729435Y-82026733D01*
X91693800Y-81847582D01*
X91693800Y-81664918D01*
X91729435Y-81485767D01*
X91799336Y-81317010D01*
X91900818Y-81165132D01*
X92029982Y-81035968D01*
X92181860Y-80934486D01*
X92350617Y-80864585D01*
X92529768Y-80828950D01*
X92712432Y-80828950D01*
X92891583Y-80864585D01*
X92891583Y-80864585D01*
G37*
G36*
X85051474Y-76583184D02*
G01*
X85269474Y-76673483D01*
X85423623Y-76737333D01*
X85758548Y-76961123D01*
X86043377Y-77245952D01*
X86267167Y-77580877D01*
X86267167Y-77580878D01*
X86421316Y-77953026D01*
X86499900Y-78348094D01*
X86499900Y-78750906D01*
X86421316Y-79145974D01*
X86359363Y-79295541D01*
X86267167Y-79518123D01*
X86043377Y-79853048D01*
X85758548Y-80137877D01*
X85423623Y-80361667D01*
X85269474Y-80425517D01*
X85051474Y-80515816D01*
X84656406Y-80594400D01*
X84253594Y-80594400D01*
X83858526Y-80515816D01*
X83640526Y-80425517D01*
X83486377Y-80361667D01*
X83151452Y-80137877D01*
X82866623Y-79853048D01*
X82642833Y-79518123D01*
X82550637Y-79295541D01*
X82488684Y-79145974D01*
X82410100Y-78750906D01*
X82410100Y-78348094D01*
X82488684Y-77953026D01*
X82642833Y-77580878D01*
X82642833Y-77580877D01*
X82866623Y-77245952D01*
X83151452Y-76961123D01*
X83486377Y-76737333D01*
X83640526Y-76673483D01*
X83858526Y-76583184D01*
X84253594Y-76504600D01*
X84656406Y-76504600D01*
X85051474Y-76583184D01*
X85051474Y-76583184D01*
G37*
G36*
X92434383Y-78324585D02*
G01*
X92603140Y-78394486D01*
X92755018Y-78495968D01*
X92884182Y-78625132D01*
X92985664Y-78777010D01*
X93055565Y-78945767D01*
X93091200Y-79124918D01*
X93091200Y-79307582D01*
X93055565Y-79486733D01*
X92985664Y-79655490D01*
X92884182Y-79807368D01*
X92755018Y-79936532D01*
X92603140Y-80038014D01*
X92434383Y-80107915D01*
X92255232Y-80143550D01*
X92072568Y-80143550D01*
X91893417Y-80107915D01*
X91724660Y-80038014D01*
X91572782Y-79936532D01*
X91443618Y-79807368D01*
X91342136Y-79655490D01*
X91272235Y-79486733D01*
X91236600Y-79307582D01*
X91236600Y-79124918D01*
X91272235Y-78945767D01*
X91342136Y-78777010D01*
X91443618Y-78625132D01*
X91572782Y-78495968D01*
X91724660Y-78394486D01*
X91893417Y-78324585D01*
X92072568Y-78288950D01*
X92255232Y-78288950D01*
X92434383Y-78324585D01*
X92434383Y-78324585D01*
G37*
G36*
X108131583Y-78324585D02*
G01*
X108300340Y-78394486D01*
X108452218Y-78495968D01*
X108581382Y-78625132D01*
X108682864Y-78777010D01*
X108752765Y-78945767D01*
X108788400Y-79124918D01*
X108788400Y-79307582D01*
X108752765Y-79486733D01*
X108682864Y-79655490D01*
X108581382Y-79807368D01*
X108452218Y-79936532D01*
X108300340Y-80038014D01*
X108131583Y-80107915D01*
X107952432Y-80143550D01*
X107769768Y-80143550D01*
X107590617Y-80107915D01*
X107421860Y-80038014D01*
X107269982Y-79936532D01*
X107140818Y-79807368D01*
X107039336Y-79655490D01*
X106969435Y-79486733D01*
X106933800Y-79307582D01*
X106933800Y-79124918D01*
X106969435Y-78945767D01*
X107039336Y-78777010D01*
X107140818Y-78625132D01*
X107269982Y-78495968D01*
X107421860Y-78394486D01*
X107590617Y-78324585D01*
X107769768Y-78288950D01*
X107952432Y-78288950D01*
X108131583Y-78324585D01*
X108131583Y-78324585D01*
G37*
G36*
X69522267Y-77004763D02*
G01*
X69674411Y-77035026D01*
X69793137Y-77084204D01*
X69961041Y-77153752D01*
X69961042Y-77153753D01*
X70219004Y-77326117D01*
X70438383Y-77545496D01*
X70462024Y-77580878D01*
X70610748Y-77803459D01*
X70729474Y-78090090D01*
X70790000Y-78394375D01*
X70790000Y-78704625D01*
X70729474Y-79008910D01*
X70610748Y-79295541D01*
X70610747Y-79295542D01*
X70438383Y-79553504D01*
X70219004Y-79772883D01*
X70099028Y-79853048D01*
X69961041Y-79945248D01*
X69793137Y-80014796D01*
X69674411Y-80063974D01*
X69522267Y-80094237D01*
X69370125Y-80124500D01*
X69059875Y-80124500D01*
X68907733Y-80094237D01*
X68755589Y-80063974D01*
X68636863Y-80014796D01*
X68468959Y-79945248D01*
X68330972Y-79853048D01*
X68210996Y-79772883D01*
X67991617Y-79553504D01*
X67819253Y-79295542D01*
X67819252Y-79295541D01*
X67700526Y-79008910D01*
X67640000Y-78704625D01*
X67640000Y-78394375D01*
X67700526Y-78090090D01*
X67819252Y-77803459D01*
X67967976Y-77580878D01*
X67991617Y-77545496D01*
X68210996Y-77326117D01*
X68468958Y-77153753D01*
X68468959Y-77153752D01*
X68636863Y-77084204D01*
X68755589Y-77035026D01*
X68907733Y-77004763D01*
X69059875Y-76974500D01*
X69370125Y-76974500D01*
X69522267Y-77004763D01*
X69522267Y-77004763D01*
G37*
G36*
X103263500Y-79913500D02*
G01*
X101661500Y-79913500D01*
X101661500Y-78811500D01*
X103263500Y-78811500D01*
X103263500Y-79913500D01*
X103263500Y-79913500D01*
G37*
G36*
X98363500Y-79913500D02*
G01*
X96761500Y-79913500D01*
X96761500Y-78811500D01*
X98363500Y-78811500D01*
X98363500Y-79913500D01*
X98363500Y-79913500D01*
G37*
G36*
X107674383Y-75784585D02*
G01*
X107843140Y-75854486D01*
X107995018Y-75955968D01*
X108124182Y-76085132D01*
X108225664Y-76237010D01*
X108295565Y-76405767D01*
X108331200Y-76584918D01*
X108331200Y-76767582D01*
X108295565Y-76946733D01*
X108225664Y-77115490D01*
X108124182Y-77267368D01*
X107995018Y-77396532D01*
X107843140Y-77498014D01*
X107674383Y-77567915D01*
X107495232Y-77603550D01*
X107312568Y-77603550D01*
X107133417Y-77567915D01*
X106964660Y-77498014D01*
X106812782Y-77396532D01*
X106683618Y-77267368D01*
X106582136Y-77115490D01*
X106512235Y-76946733D01*
X106476600Y-76767582D01*
X106476600Y-76584918D01*
X106512235Y-76405767D01*
X106582136Y-76237010D01*
X106683618Y-76085132D01*
X106812782Y-75955968D01*
X106964660Y-75854486D01*
X107133417Y-75784585D01*
X107312568Y-75748950D01*
X107495232Y-75748950D01*
X107674383Y-75784585D01*
X107674383Y-75784585D01*
G37*
G36*
X92891583Y-75784585D02*
G01*
X93060340Y-75854486D01*
X93212218Y-75955968D01*
X93341382Y-76085132D01*
X93442864Y-76237010D01*
X93512765Y-76405767D01*
X93548400Y-76584918D01*
X93548400Y-76767582D01*
X93512765Y-76946733D01*
X93442864Y-77115490D01*
X93341382Y-77267368D01*
X93212218Y-77396532D01*
X93060340Y-77498014D01*
X92891583Y-77567915D01*
X92712432Y-77603550D01*
X92529768Y-77603550D01*
X92350617Y-77567915D01*
X92181860Y-77498014D01*
X92029982Y-77396532D01*
X91900818Y-77267368D01*
X91799336Y-77115490D01*
X91729435Y-76946733D01*
X91693800Y-76767582D01*
X91693800Y-76584918D01*
X91729435Y-76405767D01*
X91799336Y-76237010D01*
X91900818Y-76085132D01*
X92029982Y-75955968D01*
X92181860Y-75854486D01*
X92350617Y-75784585D01*
X92529768Y-75748950D01*
X92712432Y-75748950D01*
X92891583Y-75784585D01*
X92891583Y-75784585D01*
G37*
G36*
X55439795Y-73800156D02*
G01*
X55546150Y-73821311D01*
X55646334Y-73862809D01*
X55746520Y-73904307D01*
X55926844Y-74024795D01*
X56080205Y-74178156D01*
X56200693Y-74358480D01*
X56283689Y-74558851D01*
X56326000Y-74771560D01*
X56326000Y-74988440D01*
X56283689Y-75201149D01*
X56200693Y-75401520D01*
X56080205Y-75581844D01*
X55926844Y-75735205D01*
X55746520Y-75855693D01*
X55546150Y-75938689D01*
X55459283Y-75955968D01*
X55333440Y-75981000D01*
X55116560Y-75981000D01*
X54990717Y-75955968D01*
X54903850Y-75938689D01*
X54703480Y-75855693D01*
X54523156Y-75735205D01*
X54369795Y-75581844D01*
X54249307Y-75401520D01*
X54166311Y-75201149D01*
X54124000Y-74988440D01*
X54124000Y-74771560D01*
X54166311Y-74558851D01*
X54249307Y-74358480D01*
X54369795Y-74178156D01*
X54523156Y-74024795D01*
X54703480Y-73904307D01*
X54803666Y-73862809D01*
X54903850Y-73821311D01*
X55010205Y-73800156D01*
X55116560Y-73779000D01*
X55333440Y-73779000D01*
X55439795Y-73800156D01*
X55439795Y-73800156D01*
G37*
G36*
X48429795Y-73800156D02*
G01*
X48536150Y-73821311D01*
X48636334Y-73862809D01*
X48736520Y-73904307D01*
X48916844Y-74024795D01*
X49070205Y-74178156D01*
X49190693Y-74358480D01*
X49273689Y-74558851D01*
X49316000Y-74771560D01*
X49316000Y-74988440D01*
X49273689Y-75201149D01*
X49190693Y-75401520D01*
X49070205Y-75581844D01*
X48916844Y-75735205D01*
X48736520Y-75855693D01*
X48536150Y-75938689D01*
X48449283Y-75955968D01*
X48323440Y-75981000D01*
X48106560Y-75981000D01*
X47980717Y-75955968D01*
X47893850Y-75938689D01*
X47693480Y-75855693D01*
X47513156Y-75735205D01*
X47359795Y-75581844D01*
X47239307Y-75401520D01*
X47156311Y-75201149D01*
X47114000Y-74988440D01*
X47114000Y-74771560D01*
X47156311Y-74558851D01*
X47239307Y-74358480D01*
X47359795Y-74178156D01*
X47513156Y-74024795D01*
X47693480Y-73904307D01*
X47793666Y-73862809D01*
X47893850Y-73821311D01*
X48000205Y-73800156D01*
X48106560Y-73779000D01*
X48323440Y-73779000D01*
X48429795Y-73800156D01*
X48429795Y-73800156D01*
G37*
G36*
X93091200Y-75063550D02*
G01*
X91236600Y-75063550D01*
X91236600Y-73208950D01*
X93091200Y-73208950D01*
X93091200Y-75063550D01*
X93091200Y-75063550D01*
G37*
G36*
X108131583Y-73244585D02*
G01*
X108300340Y-73314486D01*
X108452218Y-73415968D01*
X108581382Y-73545132D01*
X108682864Y-73697010D01*
X108752765Y-73865767D01*
X108788400Y-74044918D01*
X108788400Y-74227582D01*
X108752765Y-74406733D01*
X108682864Y-74575490D01*
X108581382Y-74727368D01*
X108452218Y-74856532D01*
X108300340Y-74958014D01*
X108131583Y-75027915D01*
X107952432Y-75063550D01*
X107769768Y-75063550D01*
X107590617Y-75027915D01*
X107421860Y-74958014D01*
X107269982Y-74856532D01*
X107140818Y-74727368D01*
X107039336Y-74575490D01*
X106969435Y-74406733D01*
X106933800Y-74227582D01*
X106933800Y-74044918D01*
X106969435Y-73865767D01*
X107039336Y-73697010D01*
X107140818Y-73545132D01*
X107269982Y-73415968D01*
X107421860Y-73314486D01*
X107590617Y-73244585D01*
X107769768Y-73208950D01*
X107952432Y-73208950D01*
X108131583Y-73244585D01*
X108131583Y-73244585D01*
G37*
G36*
X49745104Y-71499585D02*
G01*
X49913626Y-71569389D01*
X50065291Y-71670728D01*
X50194272Y-71799709D01*
X50295611Y-71951374D01*
X50365415Y-72119896D01*
X50401000Y-72298797D01*
X50401000Y-72481203D01*
X50365415Y-72660104D01*
X50295611Y-72828626D01*
X50194272Y-72980291D01*
X50065291Y-73109272D01*
X49913626Y-73210611D01*
X49745104Y-73280415D01*
X49566203Y-73316000D01*
X49383797Y-73316000D01*
X49204896Y-73280415D01*
X49036374Y-73210611D01*
X48884709Y-73109272D01*
X48755728Y-72980291D01*
X48654389Y-72828626D01*
X48584585Y-72660104D01*
X48549000Y-72481203D01*
X48549000Y-72298797D01*
X48584585Y-72119896D01*
X48654389Y-71951374D01*
X48755728Y-71799709D01*
X48884709Y-71670728D01*
X49036374Y-71569389D01*
X49204896Y-71499585D01*
X49383797Y-71464000D01*
X49566203Y-71464000D01*
X49745104Y-71499585D01*
X49745104Y-71499585D01*
G37*
G36*
X54245104Y-71499585D02*
G01*
X54413626Y-71569389D01*
X54565291Y-71670728D01*
X54694272Y-71799709D01*
X54795611Y-71951374D01*
X54865415Y-72119896D01*
X54901000Y-72298797D01*
X54901000Y-72481203D01*
X54865415Y-72660104D01*
X54795611Y-72828626D01*
X54694272Y-72980291D01*
X54565291Y-73109272D01*
X54413626Y-73210611D01*
X54245104Y-73280415D01*
X54066203Y-73316000D01*
X53883797Y-73316000D01*
X53704896Y-73280415D01*
X53536374Y-73210611D01*
X53384709Y-73109272D01*
X53255728Y-72980291D01*
X53154389Y-72828626D01*
X53084585Y-72660104D01*
X53049000Y-72481203D01*
X53049000Y-72298797D01*
X53084585Y-72119896D01*
X53154389Y-71951374D01*
X53255728Y-71799709D01*
X53384709Y-71670728D01*
X53536374Y-71569389D01*
X53704896Y-71499585D01*
X53883797Y-71464000D01*
X54066203Y-71464000D01*
X54245104Y-71499585D01*
X54245104Y-71499585D01*
G37*
M02*
