G04 #@! TF.GenerationSoftware,KiCad,Pcbnew,(5.1.4)-1*
G04 #@! TF.CreationDate,2019-12-08T17:57:44-07:00*
G04 #@! TF.ProjectId,BAEmacropad,4241456d-6163-4726-9f70-61642e6b6963,rev?*
G04 #@! TF.SameCoordinates,Original*
G04 #@! TF.FileFunction,Legend,Top*
G04 #@! TF.FilePolarity,Positive*
%FSLAX46Y46*%
G04 Gerber Fmt 4.6, Leading zero omitted, Abs format (unit mm)*
G04 Created by KiCad (PCBNEW (5.1.4)-1) date 2019-12-08 17:57:44*
%MOMM*%
%LPD*%
G04 APERTURE LIST*
%ADD10C,0.120000*%
%ADD11C,0.150000*%
%ADD12C,0.381000*%
G04 APERTURE END LIST*
D10*
X102616000Y-107505500D02*
X103662500Y-106375000D01*
X103662500Y-94468750D02*
X102552500Y-95567500D01*
X103662500Y-82562500D02*
X102552500Y-83693000D01*
D11*
X95623571Y-108989761D02*
X95766428Y-109037380D01*
X96004523Y-109037380D01*
X96099761Y-108989761D01*
X96147380Y-108942142D01*
X96195000Y-108846904D01*
X96195000Y-108751666D01*
X96147380Y-108656428D01*
X96099761Y-108608809D01*
X96004523Y-108561190D01*
X95814047Y-108513571D01*
X95718809Y-108465952D01*
X95671190Y-108418333D01*
X95623571Y-108323095D01*
X95623571Y-108227857D01*
X95671190Y-108132619D01*
X95718809Y-108085000D01*
X95814047Y-108037380D01*
X96052142Y-108037380D01*
X96195000Y-108085000D01*
X97052142Y-108989761D02*
X96956904Y-109037380D01*
X96766428Y-109037380D01*
X96671190Y-108989761D01*
X96623571Y-108942142D01*
X96575952Y-108846904D01*
X96575952Y-108561190D01*
X96623571Y-108465952D01*
X96671190Y-108418333D01*
X96766428Y-108370714D01*
X96956904Y-108370714D01*
X97052142Y-108418333D01*
X97480714Y-109037380D02*
X97480714Y-108370714D01*
X97480714Y-108561190D02*
X97528333Y-108465952D01*
X97575952Y-108418333D01*
X97671190Y-108370714D01*
X97766428Y-108370714D01*
X98242619Y-109037380D02*
X98147380Y-108989761D01*
X98099761Y-108942142D01*
X98052142Y-108846904D01*
X98052142Y-108561190D01*
X98099761Y-108465952D01*
X98147380Y-108418333D01*
X98242619Y-108370714D01*
X98385476Y-108370714D01*
X98480714Y-108418333D01*
X98528333Y-108465952D01*
X98575952Y-108561190D01*
X98575952Y-108846904D01*
X98528333Y-108942142D01*
X98480714Y-108989761D01*
X98385476Y-109037380D01*
X98242619Y-109037380D01*
X99147380Y-109037380D02*
X99052142Y-108989761D01*
X99004523Y-108894523D01*
X99004523Y-108037380D01*
X99671190Y-109037380D02*
X99575952Y-108989761D01*
X99528333Y-108894523D01*
X99528333Y-108037380D01*
X101290238Y-109037380D02*
X100814047Y-109037380D01*
X100814047Y-108037380D01*
X101766428Y-109037380D02*
X101671190Y-108989761D01*
X101623571Y-108942142D01*
X101575952Y-108846904D01*
X101575952Y-108561190D01*
X101623571Y-108465952D01*
X101671190Y-108418333D01*
X101766428Y-108370714D01*
X101909285Y-108370714D01*
X102004523Y-108418333D01*
X102052142Y-108465952D01*
X102099761Y-108561190D01*
X102099761Y-108846904D01*
X102052142Y-108942142D01*
X102004523Y-108989761D01*
X101909285Y-109037380D01*
X101766428Y-109037380D01*
X102956904Y-108989761D02*
X102861666Y-109037380D01*
X102671190Y-109037380D01*
X102575952Y-108989761D01*
X102528333Y-108942142D01*
X102480714Y-108846904D01*
X102480714Y-108561190D01*
X102528333Y-108465952D01*
X102575952Y-108418333D01*
X102671190Y-108370714D01*
X102861666Y-108370714D01*
X102956904Y-108418333D01*
X103385476Y-109037380D02*
X103385476Y-108037380D01*
X103480714Y-108656428D02*
X103766428Y-109037380D01*
X103766428Y-108370714D02*
X103385476Y-108751666D01*
X96218809Y-96972380D02*
X96218809Y-95972380D01*
X96790238Y-96972380D01*
X96790238Y-95972380D01*
X97695000Y-96305714D02*
X97695000Y-96972380D01*
X97266428Y-96305714D02*
X97266428Y-96829523D01*
X97314047Y-96924761D01*
X97409285Y-96972380D01*
X97552142Y-96972380D01*
X97647380Y-96924761D01*
X97695000Y-96877142D01*
X98171190Y-96972380D02*
X98171190Y-96305714D01*
X98171190Y-96400952D02*
X98218809Y-96353333D01*
X98314047Y-96305714D01*
X98456904Y-96305714D01*
X98552142Y-96353333D01*
X98599761Y-96448571D01*
X98599761Y-96972380D01*
X98599761Y-96448571D02*
X98647380Y-96353333D01*
X98742619Y-96305714D01*
X98885476Y-96305714D01*
X98980714Y-96353333D01*
X99028333Y-96448571D01*
X99028333Y-96972380D01*
X100742619Y-96972380D02*
X100266428Y-96972380D01*
X100266428Y-95972380D01*
X101218809Y-96972380D02*
X101123571Y-96924761D01*
X101075952Y-96877142D01*
X101028333Y-96781904D01*
X101028333Y-96496190D01*
X101075952Y-96400952D01*
X101123571Y-96353333D01*
X101218809Y-96305714D01*
X101361666Y-96305714D01*
X101456904Y-96353333D01*
X101504523Y-96400952D01*
X101552142Y-96496190D01*
X101552142Y-96781904D01*
X101504523Y-96877142D01*
X101456904Y-96924761D01*
X101361666Y-96972380D01*
X101218809Y-96972380D01*
X102409285Y-96924761D02*
X102314047Y-96972380D01*
X102123571Y-96972380D01*
X102028333Y-96924761D01*
X101980714Y-96877142D01*
X101933095Y-96781904D01*
X101933095Y-96496190D01*
X101980714Y-96400952D01*
X102028333Y-96353333D01*
X102123571Y-96305714D01*
X102314047Y-96305714D01*
X102409285Y-96353333D01*
X102837857Y-96972380D02*
X102837857Y-95972380D01*
X102933095Y-96591428D02*
X103218809Y-96972380D01*
X103218809Y-96305714D02*
X102837857Y-96686666D01*
X96623571Y-84812142D02*
X96575952Y-84859761D01*
X96433095Y-84907380D01*
X96337857Y-84907380D01*
X96195000Y-84859761D01*
X96099761Y-84764523D01*
X96052142Y-84669285D01*
X96004523Y-84478809D01*
X96004523Y-84335952D01*
X96052142Y-84145476D01*
X96099761Y-84050238D01*
X96195000Y-83955000D01*
X96337857Y-83907380D01*
X96433095Y-83907380D01*
X96575952Y-83955000D01*
X96623571Y-84002619D01*
X97480714Y-84907380D02*
X97480714Y-84383571D01*
X97433095Y-84288333D01*
X97337857Y-84240714D01*
X97147380Y-84240714D01*
X97052142Y-84288333D01*
X97480714Y-84859761D02*
X97385476Y-84907380D01*
X97147380Y-84907380D01*
X97052142Y-84859761D01*
X97004523Y-84764523D01*
X97004523Y-84669285D01*
X97052142Y-84574047D01*
X97147380Y-84526428D01*
X97385476Y-84526428D01*
X97480714Y-84478809D01*
X97956904Y-84240714D02*
X97956904Y-85240714D01*
X97956904Y-84288333D02*
X98052142Y-84240714D01*
X98242619Y-84240714D01*
X98337857Y-84288333D01*
X98385476Y-84335952D01*
X98433095Y-84431190D01*
X98433095Y-84716904D01*
X98385476Y-84812142D01*
X98337857Y-84859761D01*
X98242619Y-84907380D01*
X98052142Y-84907380D01*
X97956904Y-84859761D01*
X98814047Y-84859761D02*
X98909285Y-84907380D01*
X99099761Y-84907380D01*
X99195000Y-84859761D01*
X99242619Y-84764523D01*
X99242619Y-84716904D01*
X99195000Y-84621666D01*
X99099761Y-84574047D01*
X98956904Y-84574047D01*
X98861666Y-84526428D01*
X98814047Y-84431190D01*
X98814047Y-84383571D01*
X98861666Y-84288333D01*
X98956904Y-84240714D01*
X99099761Y-84240714D01*
X99195000Y-84288333D01*
X100909285Y-84907380D02*
X100433095Y-84907380D01*
X100433095Y-83907380D01*
X101385476Y-84907380D02*
X101290238Y-84859761D01*
X101242619Y-84812142D01*
X101195000Y-84716904D01*
X101195000Y-84431190D01*
X101242619Y-84335952D01*
X101290238Y-84288333D01*
X101385476Y-84240714D01*
X101528333Y-84240714D01*
X101623571Y-84288333D01*
X101671190Y-84335952D01*
X101718809Y-84431190D01*
X101718809Y-84716904D01*
X101671190Y-84812142D01*
X101623571Y-84859761D01*
X101528333Y-84907380D01*
X101385476Y-84907380D01*
X102575952Y-84859761D02*
X102480714Y-84907380D01*
X102290238Y-84907380D01*
X102195000Y-84859761D01*
X102147380Y-84812142D01*
X102099761Y-84716904D01*
X102099761Y-84431190D01*
X102147380Y-84335952D01*
X102195000Y-84288333D01*
X102290238Y-84240714D01*
X102480714Y-84240714D01*
X102575952Y-84288333D01*
X103004523Y-84907380D02*
X103004523Y-83907380D01*
X103099761Y-84526428D02*
X103385476Y-84907380D01*
X103385476Y-84240714D02*
X103004523Y-84621666D01*
X47308095Y-84003571D02*
X47450952Y-84051190D01*
X47498571Y-84098809D01*
X47546190Y-84194047D01*
X47546190Y-84336904D01*
X47498571Y-84432142D01*
X47450952Y-84479761D01*
X47355714Y-84527380D01*
X46974761Y-84527380D01*
X46974761Y-83527380D01*
X47308095Y-83527380D01*
X47403333Y-83575000D01*
X47450952Y-83622619D01*
X47498571Y-83717857D01*
X47498571Y-83813095D01*
X47450952Y-83908333D01*
X47403333Y-83955952D01*
X47308095Y-84003571D01*
X46974761Y-84003571D01*
X47927142Y-84241666D02*
X48403333Y-84241666D01*
X47831904Y-84527380D02*
X48165238Y-83527380D01*
X48498571Y-84527380D01*
X48831904Y-84003571D02*
X49165238Y-84003571D01*
X49308095Y-84527380D02*
X48831904Y-84527380D01*
X48831904Y-83527380D01*
X49308095Y-83527380D01*
X50498571Y-84527380D02*
X50498571Y-83527380D01*
X50831904Y-84241666D01*
X51165238Y-83527380D01*
X51165238Y-84527380D01*
X52070000Y-84527380D02*
X52070000Y-84003571D01*
X52022380Y-83908333D01*
X51927142Y-83860714D01*
X51736666Y-83860714D01*
X51641428Y-83908333D01*
X52070000Y-84479761D02*
X51974761Y-84527380D01*
X51736666Y-84527380D01*
X51641428Y-84479761D01*
X51593809Y-84384523D01*
X51593809Y-84289285D01*
X51641428Y-84194047D01*
X51736666Y-84146428D01*
X51974761Y-84146428D01*
X52070000Y-84098809D01*
X52974761Y-84479761D02*
X52879523Y-84527380D01*
X52689047Y-84527380D01*
X52593809Y-84479761D01*
X52546190Y-84432142D01*
X52498571Y-84336904D01*
X52498571Y-84051190D01*
X52546190Y-83955952D01*
X52593809Y-83908333D01*
X52689047Y-83860714D01*
X52879523Y-83860714D01*
X52974761Y-83908333D01*
X53403333Y-84527380D02*
X53403333Y-83860714D01*
X53403333Y-84051190D02*
X53450952Y-83955952D01*
X53498571Y-83908333D01*
X53593809Y-83860714D01*
X53689047Y-83860714D01*
X54165238Y-84527380D02*
X54070000Y-84479761D01*
X54022380Y-84432142D01*
X53974761Y-84336904D01*
X53974761Y-84051190D01*
X54022380Y-83955952D01*
X54070000Y-83908333D01*
X54165238Y-83860714D01*
X54308095Y-83860714D01*
X54403333Y-83908333D01*
X54450952Y-83955952D01*
X54498571Y-84051190D01*
X54498571Y-84336904D01*
X54450952Y-84432142D01*
X54403333Y-84479761D01*
X54308095Y-84527380D01*
X54165238Y-84527380D01*
X54927142Y-83860714D02*
X54927142Y-84860714D01*
X54927142Y-83908333D02*
X55022380Y-83860714D01*
X55212857Y-83860714D01*
X55308095Y-83908333D01*
X55355714Y-83955952D01*
X55403333Y-84051190D01*
X55403333Y-84336904D01*
X55355714Y-84432142D01*
X55308095Y-84479761D01*
X55212857Y-84527380D01*
X55022380Y-84527380D01*
X54927142Y-84479761D01*
X56260476Y-84527380D02*
X56260476Y-84003571D01*
X56212857Y-83908333D01*
X56117619Y-83860714D01*
X55927142Y-83860714D01*
X55831904Y-83908333D01*
X56260476Y-84479761D02*
X56165238Y-84527380D01*
X55927142Y-84527380D01*
X55831904Y-84479761D01*
X55784285Y-84384523D01*
X55784285Y-84289285D01*
X55831904Y-84194047D01*
X55927142Y-84146428D01*
X56165238Y-84146428D01*
X56260476Y-84098809D01*
X57165238Y-84527380D02*
X57165238Y-83527380D01*
X57165238Y-84479761D02*
X57070000Y-84527380D01*
X56879523Y-84527380D01*
X56784285Y-84479761D01*
X56736666Y-84432142D01*
X56689047Y-84336904D01*
X56689047Y-84051190D01*
X56736666Y-83955952D01*
X56784285Y-83908333D01*
X56879523Y-83860714D01*
X57070000Y-83860714D01*
X57165238Y-83908333D01*
X45998571Y-86177380D02*
X45522380Y-86177380D01*
X45522380Y-85177380D01*
X46760476Y-86177380D02*
X46760476Y-85653571D01*
X46712857Y-85558333D01*
X46617619Y-85510714D01*
X46427142Y-85510714D01*
X46331904Y-85558333D01*
X46760476Y-86129761D02*
X46665238Y-86177380D01*
X46427142Y-86177380D01*
X46331904Y-86129761D01*
X46284285Y-86034523D01*
X46284285Y-85939285D01*
X46331904Y-85844047D01*
X46427142Y-85796428D01*
X46665238Y-85796428D01*
X46760476Y-85748809D01*
X47141428Y-85510714D02*
X47379523Y-86177380D01*
X47617619Y-85510714D02*
X47379523Y-86177380D01*
X47284285Y-86415476D01*
X47236666Y-86463095D01*
X47141428Y-86510714D01*
X48141428Y-86177380D02*
X48046190Y-86129761D01*
X47998571Y-86082142D01*
X47950952Y-85986904D01*
X47950952Y-85701190D01*
X47998571Y-85605952D01*
X48046190Y-85558333D01*
X48141428Y-85510714D01*
X48284285Y-85510714D01*
X48379523Y-85558333D01*
X48427142Y-85605952D01*
X48474761Y-85701190D01*
X48474761Y-85986904D01*
X48427142Y-86082142D01*
X48379523Y-86129761D01*
X48284285Y-86177380D01*
X48141428Y-86177380D01*
X49331904Y-85510714D02*
X49331904Y-86177380D01*
X48903333Y-85510714D02*
X48903333Y-86034523D01*
X48950952Y-86129761D01*
X49046190Y-86177380D01*
X49189047Y-86177380D01*
X49284285Y-86129761D01*
X49331904Y-86082142D01*
X49665238Y-85510714D02*
X50046190Y-85510714D01*
X49808095Y-85177380D02*
X49808095Y-86034523D01*
X49855714Y-86129761D01*
X49950952Y-86177380D01*
X50046190Y-86177380D01*
X51141428Y-86177380D02*
X51141428Y-85177380D01*
X51141428Y-85558333D02*
X51236666Y-85510714D01*
X51427142Y-85510714D01*
X51522380Y-85558333D01*
X51570000Y-85605952D01*
X51617619Y-85701190D01*
X51617619Y-85986904D01*
X51570000Y-86082142D01*
X51522380Y-86129761D01*
X51427142Y-86177380D01*
X51236666Y-86177380D01*
X51141428Y-86129761D01*
X51950952Y-85510714D02*
X52189047Y-86177380D01*
X52427142Y-85510714D02*
X52189047Y-86177380D01*
X52093809Y-86415476D01*
X52046190Y-86463095D01*
X51950952Y-86510714D01*
X53427142Y-85510714D02*
X53808095Y-85510714D01*
X53570000Y-85177380D02*
X53570000Y-86034523D01*
X53617619Y-86129761D01*
X53712857Y-86177380D01*
X53808095Y-86177380D01*
X54141428Y-86177380D02*
X54141428Y-85510714D01*
X54141428Y-85701190D02*
X54189047Y-85605952D01*
X54236666Y-85558333D01*
X54331904Y-85510714D01*
X54427142Y-85510714D01*
X55141428Y-86129761D02*
X55046190Y-86177380D01*
X54855714Y-86177380D01*
X54760476Y-86129761D01*
X54712857Y-86034523D01*
X54712857Y-85653571D01*
X54760476Y-85558333D01*
X54855714Y-85510714D01*
X55046190Y-85510714D01*
X55141428Y-85558333D01*
X55189047Y-85653571D01*
X55189047Y-85748809D01*
X54712857Y-85844047D01*
X55522380Y-85510714D02*
X55760476Y-86177380D01*
X55998571Y-85510714D02*
X55760476Y-86177380D01*
X55665238Y-86415476D01*
X55617619Y-86463095D01*
X55522380Y-86510714D01*
X56379523Y-85510714D02*
X56379523Y-86510714D01*
X56379523Y-85558333D02*
X56474761Y-85510714D01*
X56665238Y-85510714D01*
X56760476Y-85558333D01*
X56808095Y-85605952D01*
X56855714Y-85701190D01*
X56855714Y-85986904D01*
X56808095Y-86082142D01*
X56760476Y-86129761D01*
X56665238Y-86177380D01*
X56474761Y-86177380D01*
X56379523Y-86129761D01*
X57427142Y-86177380D02*
X57331904Y-86129761D01*
X57284285Y-86082142D01*
X57236666Y-85986904D01*
X57236666Y-85701190D01*
X57284285Y-85605952D01*
X57331904Y-85558333D01*
X57427142Y-85510714D01*
X57570000Y-85510714D01*
X57665238Y-85558333D01*
X57712857Y-85605952D01*
X57760476Y-85701190D01*
X57760476Y-85986904D01*
X57712857Y-86082142D01*
X57665238Y-86129761D01*
X57570000Y-86177380D01*
X57427142Y-86177380D01*
X58189047Y-85510714D02*
X58189047Y-86510714D01*
X58189047Y-85558333D02*
X58284285Y-85510714D01*
X58474761Y-85510714D01*
X58570000Y-85558333D01*
X58617619Y-85605952D01*
X58665238Y-85701190D01*
X58665238Y-85986904D01*
X58617619Y-86082142D01*
X58570000Y-86129761D01*
X58474761Y-86177380D01*
X58284285Y-86177380D01*
X58189047Y-86129761D01*
X47189047Y-87827380D02*
X47189047Y-86827380D01*
X47570000Y-86827380D01*
X47665238Y-86875000D01*
X47712857Y-86922619D01*
X47760476Y-87017857D01*
X47760476Y-87160714D01*
X47712857Y-87255952D01*
X47665238Y-87303571D01*
X47570000Y-87351190D01*
X47189047Y-87351190D01*
X48760476Y-87732142D02*
X48712857Y-87779761D01*
X48570000Y-87827380D01*
X48474761Y-87827380D01*
X48331904Y-87779761D01*
X48236666Y-87684523D01*
X48189047Y-87589285D01*
X48141428Y-87398809D01*
X48141428Y-87255952D01*
X48189047Y-87065476D01*
X48236666Y-86970238D01*
X48331904Y-86875000D01*
X48474761Y-86827380D01*
X48570000Y-86827380D01*
X48712857Y-86875000D01*
X48760476Y-86922619D01*
X49522380Y-87303571D02*
X49665238Y-87351190D01*
X49712857Y-87398809D01*
X49760476Y-87494047D01*
X49760476Y-87636904D01*
X49712857Y-87732142D01*
X49665238Y-87779761D01*
X49570000Y-87827380D01*
X49189047Y-87827380D01*
X49189047Y-86827380D01*
X49522380Y-86827380D01*
X49617619Y-86875000D01*
X49665238Y-86922619D01*
X49712857Y-87017857D01*
X49712857Y-87113095D01*
X49665238Y-87208333D01*
X49617619Y-87255952D01*
X49522380Y-87303571D01*
X49189047Y-87303571D01*
X50950952Y-87827380D02*
X50950952Y-86827380D01*
X50950952Y-87208333D02*
X51046190Y-87160714D01*
X51236666Y-87160714D01*
X51331904Y-87208333D01*
X51379523Y-87255952D01*
X51427142Y-87351190D01*
X51427142Y-87636904D01*
X51379523Y-87732142D01*
X51331904Y-87779761D01*
X51236666Y-87827380D01*
X51046190Y-87827380D01*
X50950952Y-87779761D01*
X51760476Y-87160714D02*
X51998571Y-87827380D01*
X52236666Y-87160714D02*
X51998571Y-87827380D01*
X51903333Y-88065476D01*
X51855714Y-88113095D01*
X51760476Y-88160714D01*
X53712857Y-87303571D02*
X53379523Y-87303571D01*
X53379523Y-87827380D02*
X53379523Y-86827380D01*
X53855714Y-86827380D01*
X54236666Y-87827380D02*
X54236666Y-87160714D01*
X54236666Y-86827380D02*
X54189047Y-86875000D01*
X54236666Y-86922619D01*
X54284285Y-86875000D01*
X54236666Y-86827380D01*
X54236666Y-86922619D01*
X54855714Y-87827380D02*
X54760476Y-87779761D01*
X54712857Y-87732142D01*
X54665238Y-87636904D01*
X54665238Y-87351190D01*
X54712857Y-87255952D01*
X54760476Y-87208333D01*
X54855714Y-87160714D01*
X54998571Y-87160714D01*
X55093809Y-87208333D01*
X55141428Y-87255952D01*
X55189047Y-87351190D01*
X55189047Y-87636904D01*
X55141428Y-87732142D01*
X55093809Y-87779761D01*
X54998571Y-87827380D01*
X54855714Y-87827380D01*
X55617619Y-87160714D02*
X55617619Y-87827380D01*
X55617619Y-87255952D02*
X55665238Y-87208333D01*
X55760476Y-87160714D01*
X55903333Y-87160714D01*
X55998571Y-87208333D01*
X56046190Y-87303571D01*
X56046190Y-87827380D01*
X56950952Y-87827380D02*
X56950952Y-87303571D01*
X56903333Y-87208333D01*
X56808095Y-87160714D01*
X56617619Y-87160714D01*
X56522380Y-87208333D01*
X56950952Y-87779761D02*
X56855714Y-87827380D01*
X56617619Y-87827380D01*
X56522380Y-87779761D01*
X56474761Y-87684523D01*
X56474761Y-87589285D01*
X56522380Y-87494047D01*
X56617619Y-87446428D01*
X56855714Y-87446428D01*
X56950952Y-87398809D01*
D12*
X93662500Y-72866250D02*
X91122500Y-72866250D01*
X91122500Y-70326250D02*
X91122500Y-72866250D01*
X108902500Y-70326250D02*
X91122500Y-70326250D01*
X108902500Y-72866250D02*
X108902500Y-70326250D01*
D11*
G36*
X104944068Y-79345610D02*
G01*
X104944068Y-79545610D01*
X104844068Y-79545610D01*
X104844068Y-79345610D01*
X104944068Y-79345610D01*
G37*
X104944068Y-79345610D02*
X104944068Y-79545610D01*
X104844068Y-79545610D01*
X104844068Y-79345610D01*
X104944068Y-79345610D01*
G36*
X104544068Y-78745610D02*
G01*
X104544068Y-79545610D01*
X104444068Y-79545610D01*
X104444068Y-78745610D01*
X104544068Y-78745610D01*
G37*
X104544068Y-78745610D02*
X104544068Y-79545610D01*
X104444068Y-79545610D01*
X104444068Y-78745610D01*
X104544068Y-78745610D01*
G36*
X104944068Y-78745610D02*
G01*
X104944068Y-78845610D01*
X104444068Y-78845610D01*
X104444068Y-78745610D01*
X104944068Y-78745610D01*
G37*
X104944068Y-78745610D02*
X104944068Y-78845610D01*
X104444068Y-78845610D01*
X104444068Y-78745610D01*
X104944068Y-78745610D01*
G36*
X104744068Y-79145610D02*
G01*
X104744068Y-79245610D01*
X104644068Y-79245610D01*
X104644068Y-79145610D01*
X104744068Y-79145610D01*
G37*
X104744068Y-79145610D02*
X104744068Y-79245610D01*
X104644068Y-79245610D01*
X104644068Y-79145610D01*
X104744068Y-79145610D01*
G36*
X104944068Y-78745610D02*
G01*
X104944068Y-79045610D01*
X104844068Y-79045610D01*
X104844068Y-78745610D01*
X104944068Y-78745610D01*
G37*
X104944068Y-78745610D02*
X104944068Y-79045610D01*
X104844068Y-79045610D01*
X104844068Y-78745610D01*
X104944068Y-78745610D01*
D12*
X93662500Y-75406250D02*
X91122500Y-75406250D01*
X93662500Y-72866250D02*
X93662500Y-75406250D01*
X108902500Y-103346250D02*
X108902500Y-72866250D01*
X91122500Y-103346250D02*
X108902500Y-103346250D01*
X91122500Y-72866250D02*
X91122500Y-103346250D01*
D10*
X103662500Y-107525000D02*
X103662500Y-106375000D01*
X96362500Y-107525000D02*
X103662500Y-107525000D01*
X96362500Y-102025000D02*
X103662500Y-102025000D01*
X103662500Y-95618750D02*
X103662500Y-94468750D01*
X96362500Y-95618750D02*
X103662500Y-95618750D01*
X96362500Y-90118750D02*
X103662500Y-90118750D01*
X103662500Y-83712500D02*
X103662500Y-82562500D01*
X96362500Y-83712500D02*
X103662500Y-83712500D01*
X96362500Y-78212500D02*
X103662500Y-78212500D01*
D11*
X94250151Y-73698154D02*
X94707294Y-73698154D01*
X94478723Y-74498154D02*
X94478723Y-73698154D01*
X94897770Y-73698154D02*
X95431104Y-74498154D01*
X95431104Y-73698154D02*
X94897770Y-74498154D01*
X95888247Y-73698154D02*
X95964437Y-73698154D01*
X96040628Y-73736250D01*
X96078723Y-73774345D01*
X96116818Y-73850535D01*
X96154913Y-74002916D01*
X96154913Y-74193392D01*
X96116818Y-74345773D01*
X96078723Y-74421964D01*
X96040628Y-74460059D01*
X95964437Y-74498154D01*
X95888247Y-74498154D01*
X95812056Y-74460059D01*
X95773961Y-74421964D01*
X95735866Y-74345773D01*
X95697770Y-74193392D01*
X95697770Y-74002916D01*
X95735866Y-73850535D01*
X95773961Y-73774345D01*
X95812056Y-73736250D01*
X95888247Y-73698154D01*
X97069199Y-73660059D02*
X96383485Y-74688630D01*
X97335866Y-74498154D02*
X97335866Y-73698154D01*
X97526342Y-73698154D01*
X97640628Y-73736250D01*
X97716818Y-73812440D01*
X97754913Y-73888630D01*
X97793008Y-74041011D01*
X97793008Y-74155297D01*
X97754913Y-74307678D01*
X97716818Y-74383869D01*
X97640628Y-74460059D01*
X97526342Y-74498154D01*
X97335866Y-74498154D01*
X98059675Y-73698154D02*
X98554913Y-73698154D01*
X98288247Y-74002916D01*
X98402532Y-74002916D01*
X98478723Y-74041011D01*
X98516818Y-74079107D01*
X98554913Y-74155297D01*
X98554913Y-74345773D01*
X98516818Y-74421964D01*
X98478723Y-74460059D01*
X98402532Y-74498154D01*
X98173961Y-74498154D01*
X98097770Y-74460059D01*
X98059675Y-74421964D01*
X93961023Y-77038154D02*
X93961023Y-76238154D01*
X94151500Y-76238154D01*
X94265785Y-76276250D01*
X94341976Y-76352440D01*
X94380071Y-76428630D01*
X94418166Y-76581011D01*
X94418166Y-76695297D01*
X94380071Y-76847678D01*
X94341976Y-76923869D01*
X94265785Y-77000059D01*
X94151500Y-77038154D01*
X93961023Y-77038154D01*
X94722928Y-76314345D02*
X94761023Y-76276250D01*
X94837214Y-76238154D01*
X95027690Y-76238154D01*
X95103880Y-76276250D01*
X95141976Y-76314345D01*
X95180071Y-76390535D01*
X95180071Y-76466726D01*
X95141976Y-76581011D01*
X94684833Y-77038154D01*
X95180071Y-77038154D01*
X93961023Y-87198154D02*
X93961023Y-86398154D01*
X94151500Y-86398154D01*
X94265785Y-86436250D01*
X94341976Y-86512440D01*
X94380071Y-86588630D01*
X94418166Y-86741011D01*
X94418166Y-86855297D01*
X94380071Y-87007678D01*
X94341976Y-87083869D01*
X94265785Y-87160059D01*
X94151500Y-87198154D01*
X93961023Y-87198154D01*
X94913404Y-86398154D02*
X94989595Y-86398154D01*
X95065785Y-86436250D01*
X95103880Y-86474345D01*
X95141976Y-86550535D01*
X95180071Y-86702916D01*
X95180071Y-86893392D01*
X95141976Y-87045773D01*
X95103880Y-87121964D01*
X95065785Y-87160059D01*
X94989595Y-87198154D01*
X94913404Y-87198154D01*
X94837214Y-87160059D01*
X94799119Y-87121964D01*
X94761023Y-87045773D01*
X94722928Y-86893392D01*
X94722928Y-86702916D01*
X94761023Y-86550535D01*
X94799119Y-86474345D01*
X94837214Y-86436250D01*
X94913404Y-86398154D01*
X93961023Y-84658154D02*
X93961023Y-83858154D01*
X94151500Y-83858154D01*
X94265785Y-83896250D01*
X94341976Y-83972440D01*
X94380071Y-84048630D01*
X94418166Y-84201011D01*
X94418166Y-84315297D01*
X94380071Y-84467678D01*
X94341976Y-84543869D01*
X94265785Y-84620059D01*
X94151500Y-84658154D01*
X93961023Y-84658154D01*
X95180071Y-84658154D02*
X94722928Y-84658154D01*
X94951500Y-84658154D02*
X94951500Y-83858154D01*
X94875309Y-83972440D01*
X94799119Y-84048630D01*
X94722928Y-84086726D01*
X93941976Y-81356250D02*
X93865785Y-81318154D01*
X93751500Y-81318154D01*
X93637214Y-81356250D01*
X93561023Y-81432440D01*
X93522928Y-81508630D01*
X93484833Y-81661011D01*
X93484833Y-81775297D01*
X93522928Y-81927678D01*
X93561023Y-82003869D01*
X93637214Y-82080059D01*
X93751500Y-82118154D01*
X93827690Y-82118154D01*
X93941976Y-82080059D01*
X93980071Y-82041964D01*
X93980071Y-81775297D01*
X93827690Y-81775297D01*
X94322928Y-82118154D02*
X94322928Y-81318154D01*
X94780071Y-82118154D01*
X94780071Y-81318154D01*
X95161023Y-82118154D02*
X95161023Y-81318154D01*
X95351500Y-81318154D01*
X95465785Y-81356250D01*
X95541976Y-81432440D01*
X95580071Y-81508630D01*
X95618166Y-81661011D01*
X95618166Y-81775297D01*
X95580071Y-81927678D01*
X95541976Y-82003869D01*
X95465785Y-82080059D01*
X95351500Y-82118154D01*
X95161023Y-82118154D01*
X93941976Y-78816250D02*
X93865785Y-78778154D01*
X93751500Y-78778154D01*
X93637214Y-78816250D01*
X93561023Y-78892440D01*
X93522928Y-78968630D01*
X93484833Y-79121011D01*
X93484833Y-79235297D01*
X93522928Y-79387678D01*
X93561023Y-79463869D01*
X93637214Y-79540059D01*
X93751500Y-79578154D01*
X93827690Y-79578154D01*
X93941976Y-79540059D01*
X93980071Y-79501964D01*
X93980071Y-79235297D01*
X93827690Y-79235297D01*
X94322928Y-79578154D02*
X94322928Y-78778154D01*
X94780071Y-79578154D01*
X94780071Y-78778154D01*
X95161023Y-79578154D02*
X95161023Y-78778154D01*
X95351500Y-78778154D01*
X95465785Y-78816250D01*
X95541976Y-78892440D01*
X95580071Y-78968630D01*
X95618166Y-79121011D01*
X95618166Y-79235297D01*
X95580071Y-79387678D01*
X95541976Y-79463869D01*
X95465785Y-79540059D01*
X95351500Y-79578154D01*
X95161023Y-79578154D01*
X93961023Y-89738154D02*
X93961023Y-88938154D01*
X94151500Y-88938154D01*
X94265785Y-88976250D01*
X94341976Y-89052440D01*
X94380071Y-89128630D01*
X94418166Y-89281011D01*
X94418166Y-89395297D01*
X94380071Y-89547678D01*
X94341976Y-89623869D01*
X94265785Y-89700059D01*
X94151500Y-89738154D01*
X93961023Y-89738154D01*
X95103880Y-89204821D02*
X95103880Y-89738154D01*
X94913404Y-88900059D02*
X94722928Y-89471488D01*
X95218166Y-89471488D01*
X94418166Y-92201964D02*
X94380071Y-92240059D01*
X94265785Y-92278154D01*
X94189595Y-92278154D01*
X94075309Y-92240059D01*
X93999119Y-92163869D01*
X93961023Y-92087678D01*
X93922928Y-91935297D01*
X93922928Y-91821011D01*
X93961023Y-91668630D01*
X93999119Y-91592440D01*
X94075309Y-91516250D01*
X94189595Y-91478154D01*
X94265785Y-91478154D01*
X94380071Y-91516250D01*
X94418166Y-91554345D01*
X95103880Y-91478154D02*
X94951500Y-91478154D01*
X94875309Y-91516250D01*
X94837214Y-91554345D01*
X94761023Y-91668630D01*
X94722928Y-91821011D01*
X94722928Y-92125773D01*
X94761023Y-92201964D01*
X94799119Y-92240059D01*
X94875309Y-92278154D01*
X95027690Y-92278154D01*
X95103880Y-92240059D01*
X95141976Y-92201964D01*
X95180071Y-92125773D01*
X95180071Y-91935297D01*
X95141976Y-91859107D01*
X95103880Y-91821011D01*
X95027690Y-91782916D01*
X94875309Y-91782916D01*
X94799119Y-91821011D01*
X94761023Y-91859107D01*
X94722928Y-91935297D01*
X93961023Y-94818154D02*
X93961023Y-94018154D01*
X94151500Y-94018154D01*
X94265785Y-94056250D01*
X94341976Y-94132440D01*
X94380071Y-94208630D01*
X94418166Y-94361011D01*
X94418166Y-94475297D01*
X94380071Y-94627678D01*
X94341976Y-94703869D01*
X94265785Y-94780059D01*
X94151500Y-94818154D01*
X93961023Y-94818154D01*
X94684833Y-94018154D02*
X95218166Y-94018154D01*
X94875309Y-94818154D01*
X93999119Y-96939107D02*
X94265785Y-96939107D01*
X94380071Y-97358154D02*
X93999119Y-97358154D01*
X93999119Y-96558154D01*
X94380071Y-96558154D01*
X95065785Y-96558154D02*
X94913404Y-96558154D01*
X94837214Y-96596250D01*
X94799119Y-96634345D01*
X94722928Y-96748630D01*
X94684833Y-96901011D01*
X94684833Y-97205773D01*
X94722928Y-97281964D01*
X94761023Y-97320059D01*
X94837214Y-97358154D01*
X94989595Y-97358154D01*
X95065785Y-97320059D01*
X95103880Y-97281964D01*
X95141976Y-97205773D01*
X95141976Y-97015297D01*
X95103880Y-96939107D01*
X95065785Y-96901011D01*
X94989595Y-96862916D01*
X94837214Y-96862916D01*
X94761023Y-96901011D01*
X94722928Y-96939107D01*
X94684833Y-97015297D01*
X94227690Y-99479107D02*
X94341976Y-99517202D01*
X94380071Y-99555297D01*
X94418166Y-99631488D01*
X94418166Y-99745773D01*
X94380071Y-99821964D01*
X94341976Y-99860059D01*
X94265785Y-99898154D01*
X93961023Y-99898154D01*
X93961023Y-99098154D01*
X94227690Y-99098154D01*
X94303880Y-99136250D01*
X94341976Y-99174345D01*
X94380071Y-99250535D01*
X94380071Y-99326726D01*
X94341976Y-99402916D01*
X94303880Y-99441011D01*
X94227690Y-99479107D01*
X93961023Y-99479107D01*
X95103880Y-99364821D02*
X95103880Y-99898154D01*
X94913404Y-99060059D02*
X94722928Y-99631488D01*
X95218166Y-99631488D01*
X94227690Y-102019107D02*
X94341976Y-102057202D01*
X94380071Y-102095297D01*
X94418166Y-102171488D01*
X94418166Y-102285773D01*
X94380071Y-102361964D01*
X94341976Y-102400059D01*
X94265785Y-102438154D01*
X93961023Y-102438154D01*
X93961023Y-101638154D01*
X94227690Y-101638154D01*
X94303880Y-101676250D01*
X94341976Y-101714345D01*
X94380071Y-101790535D01*
X94380071Y-101866726D01*
X94341976Y-101942916D01*
X94303880Y-101981011D01*
X94227690Y-102019107D01*
X93961023Y-102019107D01*
X95141976Y-101638154D02*
X94761023Y-101638154D01*
X94722928Y-102019107D01*
X94761023Y-101981011D01*
X94837214Y-101942916D01*
X95027690Y-101942916D01*
X95103880Y-101981011D01*
X95141976Y-102019107D01*
X95180071Y-102095297D01*
X95180071Y-102285773D01*
X95141976Y-102361964D01*
X95103880Y-102400059D01*
X95027690Y-102438154D01*
X94837214Y-102438154D01*
X94761023Y-102400059D01*
X94722928Y-102361964D01*
X105149690Y-102019107D02*
X105263976Y-102057202D01*
X105302071Y-102095297D01*
X105340166Y-102171488D01*
X105340166Y-102285773D01*
X105302071Y-102361964D01*
X105263976Y-102400059D01*
X105187785Y-102438154D01*
X104883023Y-102438154D01*
X104883023Y-101638154D01*
X105149690Y-101638154D01*
X105225880Y-101676250D01*
X105263976Y-101714345D01*
X105302071Y-101790535D01*
X105302071Y-101866726D01*
X105263976Y-101942916D01*
X105225880Y-101981011D01*
X105149690Y-102019107D01*
X104883023Y-102019107D01*
X106025880Y-101638154D02*
X105873500Y-101638154D01*
X105797309Y-101676250D01*
X105759214Y-101714345D01*
X105683023Y-101828630D01*
X105644928Y-101981011D01*
X105644928Y-102285773D01*
X105683023Y-102361964D01*
X105721119Y-102400059D01*
X105797309Y-102438154D01*
X105949690Y-102438154D01*
X106025880Y-102400059D01*
X106063976Y-102361964D01*
X106102071Y-102285773D01*
X106102071Y-102095297D01*
X106063976Y-102019107D01*
X106025880Y-101981011D01*
X105949690Y-101942916D01*
X105797309Y-101942916D01*
X105721119Y-101981011D01*
X105683023Y-102019107D01*
X105644928Y-102095297D01*
X105149690Y-96939107D02*
X105263976Y-96977202D01*
X105302071Y-97015297D01*
X105340166Y-97091488D01*
X105340166Y-97205773D01*
X105302071Y-97281964D01*
X105263976Y-97320059D01*
X105187785Y-97358154D01*
X104883023Y-97358154D01*
X104883023Y-96558154D01*
X105149690Y-96558154D01*
X105225880Y-96596250D01*
X105263976Y-96634345D01*
X105302071Y-96710535D01*
X105302071Y-96786726D01*
X105263976Y-96862916D01*
X105225880Y-96901011D01*
X105149690Y-96939107D01*
X104883023Y-96939107D01*
X105606833Y-96558154D02*
X106102071Y-96558154D01*
X105835404Y-96862916D01*
X105949690Y-96862916D01*
X106025880Y-96901011D01*
X106063976Y-96939107D01*
X106102071Y-97015297D01*
X106102071Y-97205773D01*
X106063976Y-97281964D01*
X106025880Y-97320059D01*
X105949690Y-97358154D01*
X105721119Y-97358154D01*
X105644928Y-97320059D01*
X105606833Y-97281964D01*
X105149690Y-94399107D02*
X105263976Y-94437202D01*
X105302071Y-94475297D01*
X105340166Y-94551488D01*
X105340166Y-94665773D01*
X105302071Y-94741964D01*
X105263976Y-94780059D01*
X105187785Y-94818154D01*
X104883023Y-94818154D01*
X104883023Y-94018154D01*
X105149690Y-94018154D01*
X105225880Y-94056250D01*
X105263976Y-94094345D01*
X105302071Y-94170535D01*
X105302071Y-94246726D01*
X105263976Y-94322916D01*
X105225880Y-94361011D01*
X105149690Y-94399107D01*
X104883023Y-94399107D01*
X106102071Y-94818154D02*
X105644928Y-94818154D01*
X105873500Y-94818154D02*
X105873500Y-94018154D01*
X105797309Y-94132440D01*
X105721119Y-94208630D01*
X105644928Y-94246726D01*
X105206833Y-84239107D02*
X104940166Y-84239107D01*
X104940166Y-84658154D02*
X104940166Y-83858154D01*
X105321119Y-83858154D01*
X105968738Y-84124821D02*
X105968738Y-84658154D01*
X105778261Y-83820059D02*
X105587785Y-84391488D01*
X106083023Y-84391488D01*
X104406833Y-81318154D02*
X104673500Y-82118154D01*
X104940166Y-81318154D01*
X105663976Y-82041964D02*
X105625880Y-82080059D01*
X105511595Y-82118154D01*
X105435404Y-82118154D01*
X105321119Y-82080059D01*
X105244928Y-82003869D01*
X105206833Y-81927678D01*
X105168738Y-81775297D01*
X105168738Y-81661011D01*
X105206833Y-81508630D01*
X105244928Y-81432440D01*
X105321119Y-81356250D01*
X105435404Y-81318154D01*
X105511595Y-81318154D01*
X105625880Y-81356250D01*
X105663976Y-81394345D01*
X106463976Y-82041964D02*
X106425880Y-82080059D01*
X106311595Y-82118154D01*
X106235404Y-82118154D01*
X106121119Y-82080059D01*
X106044928Y-82003869D01*
X106006833Y-81927678D01*
X105968738Y-81775297D01*
X105968738Y-81661011D01*
X106006833Y-81508630D01*
X106044928Y-81432440D01*
X106121119Y-81356250D01*
X106235404Y-81318154D01*
X106311595Y-81318154D01*
X106425880Y-81356250D01*
X106463976Y-81394345D01*
X105212286Y-79510059D02*
X105326572Y-79548154D01*
X105517048Y-79548154D01*
X105593239Y-79510059D01*
X105631334Y-79471964D01*
X105669429Y-79395773D01*
X105669429Y-79319583D01*
X105631334Y-79243392D01*
X105593239Y-79205297D01*
X105517048Y-79167202D01*
X105364667Y-79129107D01*
X105288477Y-79091011D01*
X105250381Y-79052916D01*
X105212286Y-78976726D01*
X105212286Y-78900535D01*
X105250381Y-78824345D01*
X105288477Y-78786250D01*
X105364667Y-78748154D01*
X105555143Y-78748154D01*
X105669429Y-78786250D01*
X105898000Y-78748154D02*
X106355143Y-78748154D01*
X106126572Y-79548154D02*
X106126572Y-78748154D01*
X104863976Y-76276250D02*
X104787785Y-76238154D01*
X104673500Y-76238154D01*
X104559214Y-76276250D01*
X104483023Y-76352440D01*
X104444928Y-76428630D01*
X104406833Y-76581011D01*
X104406833Y-76695297D01*
X104444928Y-76847678D01*
X104483023Y-76923869D01*
X104559214Y-77000059D01*
X104673500Y-77038154D01*
X104749690Y-77038154D01*
X104863976Y-77000059D01*
X104902071Y-76961964D01*
X104902071Y-76695297D01*
X104749690Y-76695297D01*
X105244928Y-77038154D02*
X105244928Y-76238154D01*
X105702071Y-77038154D01*
X105702071Y-76238154D01*
X106083023Y-77038154D02*
X106083023Y-76238154D01*
X106273500Y-76238154D01*
X106387785Y-76276250D01*
X106463976Y-76352440D01*
X106502071Y-76428630D01*
X106540166Y-76581011D01*
X106540166Y-76695297D01*
X106502071Y-76847678D01*
X106463976Y-76923869D01*
X106387785Y-77000059D01*
X106273500Y-77038154D01*
X106083023Y-77038154D01*
X104921119Y-74498154D02*
X104654452Y-74117202D01*
X104463976Y-74498154D02*
X104463976Y-73698154D01*
X104768738Y-73698154D01*
X104844928Y-73736250D01*
X104883023Y-73774345D01*
X104921119Y-73850535D01*
X104921119Y-73964821D01*
X104883023Y-74041011D01*
X104844928Y-74079107D01*
X104768738Y-74117202D01*
X104463976Y-74117202D01*
X105225880Y-74269583D02*
X105606833Y-74269583D01*
X105149690Y-74498154D02*
X105416357Y-73698154D01*
X105683023Y-74498154D01*
X105873500Y-73698154D02*
X106063976Y-74498154D01*
X106216357Y-73926726D01*
X106368738Y-74498154D01*
X106559214Y-73698154D01*
X105206833Y-86779107D02*
X104940166Y-86779107D01*
X104940166Y-87198154D02*
X104940166Y-86398154D01*
X105321119Y-86398154D01*
X106006833Y-86398154D02*
X105625880Y-86398154D01*
X105587785Y-86779107D01*
X105625880Y-86741011D01*
X105702071Y-86702916D01*
X105892547Y-86702916D01*
X105968738Y-86741011D01*
X106006833Y-86779107D01*
X106044928Y-86855297D01*
X106044928Y-87045773D01*
X106006833Y-87121964D01*
X105968738Y-87160059D01*
X105892547Y-87198154D01*
X105702071Y-87198154D01*
X105625880Y-87160059D01*
X105587785Y-87121964D01*
X105206833Y-89319107D02*
X104940166Y-89319107D01*
X104940166Y-89738154D02*
X104940166Y-88938154D01*
X105321119Y-88938154D01*
X105968738Y-88938154D02*
X105816357Y-88938154D01*
X105740166Y-88976250D01*
X105702071Y-89014345D01*
X105625880Y-89128630D01*
X105587785Y-89281011D01*
X105587785Y-89585773D01*
X105625880Y-89661964D01*
X105663976Y-89700059D01*
X105740166Y-89738154D01*
X105892547Y-89738154D01*
X105968738Y-89700059D01*
X106006833Y-89661964D01*
X106044928Y-89585773D01*
X106044928Y-89395297D01*
X106006833Y-89319107D01*
X105968738Y-89281011D01*
X105892547Y-89242916D01*
X105740166Y-89242916D01*
X105663976Y-89281011D01*
X105625880Y-89319107D01*
X105587785Y-89395297D01*
X105206833Y-91859107D02*
X104940166Y-91859107D01*
X104940166Y-92278154D02*
X104940166Y-91478154D01*
X105321119Y-91478154D01*
X105549690Y-91478154D02*
X106083023Y-91478154D01*
X105740166Y-92278154D01*
X105149690Y-99479107D02*
X105263976Y-99517202D01*
X105302071Y-99555297D01*
X105340166Y-99631488D01*
X105340166Y-99745773D01*
X105302071Y-99821964D01*
X105263976Y-99860059D01*
X105187785Y-99898154D01*
X104883023Y-99898154D01*
X104883023Y-99098154D01*
X105149690Y-99098154D01*
X105225880Y-99136250D01*
X105263976Y-99174345D01*
X105302071Y-99250535D01*
X105302071Y-99326726D01*
X105263976Y-99402916D01*
X105225880Y-99441011D01*
X105149690Y-99479107D01*
X104883023Y-99479107D01*
X105644928Y-99174345D02*
X105683023Y-99136250D01*
X105759214Y-99098154D01*
X105949690Y-99098154D01*
X106025880Y-99136250D01*
X106063976Y-99174345D01*
X106102071Y-99250535D01*
X106102071Y-99326726D01*
X106063976Y-99441011D01*
X105606833Y-99898154D01*
X106102071Y-99898154D01*
X99274404Y-101727380D02*
X99274404Y-100727380D01*
X99512500Y-100727380D01*
X99655357Y-100775000D01*
X99750595Y-100870238D01*
X99798214Y-100965476D01*
X99845833Y-101155952D01*
X99845833Y-101298809D01*
X99798214Y-101489285D01*
X99750595Y-101584523D01*
X99655357Y-101679761D01*
X99512500Y-101727380D01*
X99274404Y-101727380D01*
X100179166Y-100727380D02*
X100798214Y-100727380D01*
X100464880Y-101108333D01*
X100607738Y-101108333D01*
X100702976Y-101155952D01*
X100750595Y-101203571D01*
X100798214Y-101298809D01*
X100798214Y-101536904D01*
X100750595Y-101632142D01*
X100702976Y-101679761D01*
X100607738Y-101727380D01*
X100322023Y-101727380D01*
X100226785Y-101679761D01*
X100179166Y-101632142D01*
X96148214Y-103627380D02*
X95576785Y-103627380D01*
X95862500Y-103627380D02*
X95862500Y-102627380D01*
X95767261Y-102770238D01*
X95672023Y-102865476D01*
X95576785Y-102913095D01*
X99274404Y-89821130D02*
X99274404Y-88821130D01*
X99512500Y-88821130D01*
X99655357Y-88868750D01*
X99750595Y-88963988D01*
X99798214Y-89059226D01*
X99845833Y-89249702D01*
X99845833Y-89392559D01*
X99798214Y-89583035D01*
X99750595Y-89678273D01*
X99655357Y-89773511D01*
X99512500Y-89821130D01*
X99274404Y-89821130D01*
X100226785Y-88916369D02*
X100274404Y-88868750D01*
X100369642Y-88821130D01*
X100607738Y-88821130D01*
X100702976Y-88868750D01*
X100750595Y-88916369D01*
X100798214Y-89011607D01*
X100798214Y-89106845D01*
X100750595Y-89249702D01*
X100179166Y-89821130D01*
X100798214Y-89821130D01*
X96148214Y-91721130D02*
X95576785Y-91721130D01*
X95862500Y-91721130D02*
X95862500Y-90721130D01*
X95767261Y-90863988D01*
X95672023Y-90959226D01*
X95576785Y-91006845D01*
X99274404Y-77914880D02*
X99274404Y-76914880D01*
X99512500Y-76914880D01*
X99655357Y-76962500D01*
X99750595Y-77057738D01*
X99798214Y-77152976D01*
X99845833Y-77343452D01*
X99845833Y-77486309D01*
X99798214Y-77676785D01*
X99750595Y-77772023D01*
X99655357Y-77867261D01*
X99512500Y-77914880D01*
X99274404Y-77914880D01*
X100798214Y-77914880D02*
X100226785Y-77914880D01*
X100512500Y-77914880D02*
X100512500Y-76914880D01*
X100417261Y-77057738D01*
X100322023Y-77152976D01*
X100226785Y-77200595D01*
X96148214Y-79814880D02*
X95576785Y-79814880D01*
X95862500Y-79814880D02*
X95862500Y-78814880D01*
X95767261Y-78957738D01*
X95672023Y-79052976D01*
X95576785Y-79100595D01*
M02*
