G04 #@! TF.GenerationSoftware,KiCad,Pcbnew,(5.1.4)-1*
G04 #@! TF.CreationDate,2019-12-08T17:57:44-07:00*
G04 #@! TF.ProjectId,BAEmacropad,4241456d-6163-4726-9f70-61642e6b6963,rev?*
G04 #@! TF.SameCoordinates,Original*
G04 #@! TF.FileFunction,Other,Fab,Top*
%FSLAX46Y46*%
G04 Gerber Fmt 4.6, Leading zero omitted, Abs format (unit mm)*
G04 Created by KiCad (PCBNEW (5.1.4)-1) date 2019-12-08 17:57:44*
%MOMM*%
%LPD*%
G04 APERTURE LIST*
%ADD10C,0.100000*%
%ADD11C,0.150000*%
G04 APERTURE END LIST*
D10*
X102012500Y-104775000D02*
G75*
G03X102012500Y-104775000I-2000000J0D01*
G01*
X102512500Y-102275000D02*
X97512500Y-102275000D01*
X102512500Y-107275000D02*
X102512500Y-102275000D01*
X97512500Y-107275000D02*
X102512500Y-107275000D01*
X97512500Y-102275000D02*
X97512500Y-107275000D01*
X102512500Y-106275000D02*
X101512500Y-107275000D01*
X102012500Y-92868750D02*
G75*
G03X102012500Y-92868750I-2000000J0D01*
G01*
X102512500Y-90368750D02*
X97512500Y-90368750D01*
X102512500Y-95368750D02*
X102512500Y-90368750D01*
X97512500Y-95368750D02*
X102512500Y-95368750D01*
X97512500Y-90368750D02*
X97512500Y-95368750D01*
X102512500Y-94368750D02*
X101512500Y-95368750D01*
X102012500Y-80962500D02*
G75*
G03X102012500Y-80962500I-2000000J0D01*
G01*
X102512500Y-78462500D02*
X97512500Y-78462500D01*
X102512500Y-83462500D02*
X102512500Y-78462500D01*
X97512500Y-83462500D02*
X102512500Y-83462500D01*
X97512500Y-78462500D02*
X97512500Y-83462500D01*
X102512500Y-82462500D02*
X101512500Y-83462500D01*
D11*
X96702976Y-108227380D02*
X96941071Y-109227380D01*
X97131547Y-108513095D01*
X97322023Y-109227380D01*
X97560119Y-108227380D01*
X97893452Y-109179761D02*
X98036309Y-109227380D01*
X98274404Y-109227380D01*
X98369642Y-109179761D01*
X98417261Y-109132142D01*
X98464880Y-109036904D01*
X98464880Y-108941666D01*
X98417261Y-108846428D01*
X98369642Y-108798809D01*
X98274404Y-108751190D01*
X98083928Y-108703571D01*
X97988690Y-108655952D01*
X97941071Y-108608333D01*
X97893452Y-108513095D01*
X97893452Y-108417857D01*
X97941071Y-108322619D01*
X97988690Y-108275000D01*
X98083928Y-108227380D01*
X98322023Y-108227380D01*
X98464880Y-108275000D01*
X98845833Y-108322619D02*
X98893452Y-108275000D01*
X98988690Y-108227380D01*
X99226785Y-108227380D01*
X99322023Y-108275000D01*
X99369642Y-108322619D01*
X99417261Y-108417857D01*
X99417261Y-108513095D01*
X99369642Y-108655952D01*
X98798214Y-109227380D01*
X99417261Y-109227380D01*
X99988690Y-108655952D02*
X99893452Y-108608333D01*
X99845833Y-108560714D01*
X99798214Y-108465476D01*
X99798214Y-108417857D01*
X99845833Y-108322619D01*
X99893452Y-108275000D01*
X99988690Y-108227380D01*
X100179166Y-108227380D01*
X100274404Y-108275000D01*
X100322023Y-108322619D01*
X100369642Y-108417857D01*
X100369642Y-108465476D01*
X100322023Y-108560714D01*
X100274404Y-108608333D01*
X100179166Y-108655952D01*
X99988690Y-108655952D01*
X99893452Y-108703571D01*
X99845833Y-108751190D01*
X99798214Y-108846428D01*
X99798214Y-109036904D01*
X99845833Y-109132142D01*
X99893452Y-109179761D01*
X99988690Y-109227380D01*
X100179166Y-109227380D01*
X100274404Y-109179761D01*
X100322023Y-109132142D01*
X100369642Y-109036904D01*
X100369642Y-108846428D01*
X100322023Y-108751190D01*
X100274404Y-108703571D01*
X100179166Y-108655952D01*
X101322023Y-109227380D02*
X100750595Y-109227380D01*
X101036309Y-109227380D02*
X101036309Y-108227380D01*
X100941071Y-108370238D01*
X100845833Y-108465476D01*
X100750595Y-108513095D01*
X101702976Y-108322619D02*
X101750595Y-108275000D01*
X101845833Y-108227380D01*
X102083928Y-108227380D01*
X102179166Y-108275000D01*
X102226785Y-108322619D01*
X102274404Y-108417857D01*
X102274404Y-108513095D01*
X102226785Y-108655952D01*
X101655357Y-109227380D01*
X102274404Y-109227380D01*
X103036309Y-108703571D02*
X103179166Y-108751190D01*
X103226785Y-108798809D01*
X103274404Y-108894047D01*
X103274404Y-109036904D01*
X103226785Y-109132142D01*
X103179166Y-109179761D01*
X103083928Y-109227380D01*
X102702976Y-109227380D01*
X102702976Y-108227380D01*
X103036309Y-108227380D01*
X103131547Y-108275000D01*
X103179166Y-108322619D01*
X103226785Y-108417857D01*
X103226785Y-108513095D01*
X103179166Y-108608333D01*
X103131547Y-108655952D01*
X103036309Y-108703571D01*
X102702976Y-108703571D01*
X99422023Y-105136904D02*
X99422023Y-104336904D01*
X99612500Y-104336904D01*
X99726785Y-104375000D01*
X99802976Y-104451190D01*
X99841071Y-104527380D01*
X99879166Y-104679761D01*
X99879166Y-104794047D01*
X99841071Y-104946428D01*
X99802976Y-105022619D01*
X99726785Y-105098809D01*
X99612500Y-105136904D01*
X99422023Y-105136904D01*
X100145833Y-104336904D02*
X100641071Y-104336904D01*
X100374404Y-104641666D01*
X100488690Y-104641666D01*
X100564880Y-104679761D01*
X100602976Y-104717857D01*
X100641071Y-104794047D01*
X100641071Y-104984523D01*
X100602976Y-105060714D01*
X100564880Y-105098809D01*
X100488690Y-105136904D01*
X100260119Y-105136904D01*
X100183928Y-105098809D01*
X100145833Y-105060714D01*
X96702976Y-96321130D02*
X96941071Y-97321130D01*
X97131547Y-96606845D01*
X97322023Y-97321130D01*
X97560119Y-96321130D01*
X97893452Y-97273511D02*
X98036309Y-97321130D01*
X98274404Y-97321130D01*
X98369642Y-97273511D01*
X98417261Y-97225892D01*
X98464880Y-97130654D01*
X98464880Y-97035416D01*
X98417261Y-96940178D01*
X98369642Y-96892559D01*
X98274404Y-96844940D01*
X98083928Y-96797321D01*
X97988690Y-96749702D01*
X97941071Y-96702083D01*
X97893452Y-96606845D01*
X97893452Y-96511607D01*
X97941071Y-96416369D01*
X97988690Y-96368750D01*
X98083928Y-96321130D01*
X98322023Y-96321130D01*
X98464880Y-96368750D01*
X98845833Y-96416369D02*
X98893452Y-96368750D01*
X98988690Y-96321130D01*
X99226785Y-96321130D01*
X99322023Y-96368750D01*
X99369642Y-96416369D01*
X99417261Y-96511607D01*
X99417261Y-96606845D01*
X99369642Y-96749702D01*
X98798214Y-97321130D01*
X99417261Y-97321130D01*
X99988690Y-96749702D02*
X99893452Y-96702083D01*
X99845833Y-96654464D01*
X99798214Y-96559226D01*
X99798214Y-96511607D01*
X99845833Y-96416369D01*
X99893452Y-96368750D01*
X99988690Y-96321130D01*
X100179166Y-96321130D01*
X100274404Y-96368750D01*
X100322023Y-96416369D01*
X100369642Y-96511607D01*
X100369642Y-96559226D01*
X100322023Y-96654464D01*
X100274404Y-96702083D01*
X100179166Y-96749702D01*
X99988690Y-96749702D01*
X99893452Y-96797321D01*
X99845833Y-96844940D01*
X99798214Y-96940178D01*
X99798214Y-97130654D01*
X99845833Y-97225892D01*
X99893452Y-97273511D01*
X99988690Y-97321130D01*
X100179166Y-97321130D01*
X100274404Y-97273511D01*
X100322023Y-97225892D01*
X100369642Y-97130654D01*
X100369642Y-96940178D01*
X100322023Y-96844940D01*
X100274404Y-96797321D01*
X100179166Y-96749702D01*
X101322023Y-97321130D02*
X100750595Y-97321130D01*
X101036309Y-97321130D02*
X101036309Y-96321130D01*
X100941071Y-96463988D01*
X100845833Y-96559226D01*
X100750595Y-96606845D01*
X101702976Y-96416369D02*
X101750595Y-96368750D01*
X101845833Y-96321130D01*
X102083928Y-96321130D01*
X102179166Y-96368750D01*
X102226785Y-96416369D01*
X102274404Y-96511607D01*
X102274404Y-96606845D01*
X102226785Y-96749702D01*
X101655357Y-97321130D01*
X102274404Y-97321130D01*
X103036309Y-96797321D02*
X103179166Y-96844940D01*
X103226785Y-96892559D01*
X103274404Y-96987797D01*
X103274404Y-97130654D01*
X103226785Y-97225892D01*
X103179166Y-97273511D01*
X103083928Y-97321130D01*
X102702976Y-97321130D01*
X102702976Y-96321130D01*
X103036309Y-96321130D01*
X103131547Y-96368750D01*
X103179166Y-96416369D01*
X103226785Y-96511607D01*
X103226785Y-96606845D01*
X103179166Y-96702083D01*
X103131547Y-96749702D01*
X103036309Y-96797321D01*
X102702976Y-96797321D01*
X99422023Y-93230654D02*
X99422023Y-92430654D01*
X99612500Y-92430654D01*
X99726785Y-92468750D01*
X99802976Y-92544940D01*
X99841071Y-92621130D01*
X99879166Y-92773511D01*
X99879166Y-92887797D01*
X99841071Y-93040178D01*
X99802976Y-93116369D01*
X99726785Y-93192559D01*
X99612500Y-93230654D01*
X99422023Y-93230654D01*
X100183928Y-92506845D02*
X100222023Y-92468750D01*
X100298214Y-92430654D01*
X100488690Y-92430654D01*
X100564880Y-92468750D01*
X100602976Y-92506845D01*
X100641071Y-92583035D01*
X100641071Y-92659226D01*
X100602976Y-92773511D01*
X100145833Y-93230654D01*
X100641071Y-93230654D01*
X96702976Y-84414880D02*
X96941071Y-85414880D01*
X97131547Y-84700595D01*
X97322023Y-85414880D01*
X97560119Y-84414880D01*
X97893452Y-85367261D02*
X98036309Y-85414880D01*
X98274404Y-85414880D01*
X98369642Y-85367261D01*
X98417261Y-85319642D01*
X98464880Y-85224404D01*
X98464880Y-85129166D01*
X98417261Y-85033928D01*
X98369642Y-84986309D01*
X98274404Y-84938690D01*
X98083928Y-84891071D01*
X97988690Y-84843452D01*
X97941071Y-84795833D01*
X97893452Y-84700595D01*
X97893452Y-84605357D01*
X97941071Y-84510119D01*
X97988690Y-84462500D01*
X98083928Y-84414880D01*
X98322023Y-84414880D01*
X98464880Y-84462500D01*
X98845833Y-84510119D02*
X98893452Y-84462500D01*
X98988690Y-84414880D01*
X99226785Y-84414880D01*
X99322023Y-84462500D01*
X99369642Y-84510119D01*
X99417261Y-84605357D01*
X99417261Y-84700595D01*
X99369642Y-84843452D01*
X98798214Y-85414880D01*
X99417261Y-85414880D01*
X99988690Y-84843452D02*
X99893452Y-84795833D01*
X99845833Y-84748214D01*
X99798214Y-84652976D01*
X99798214Y-84605357D01*
X99845833Y-84510119D01*
X99893452Y-84462500D01*
X99988690Y-84414880D01*
X100179166Y-84414880D01*
X100274404Y-84462500D01*
X100322023Y-84510119D01*
X100369642Y-84605357D01*
X100369642Y-84652976D01*
X100322023Y-84748214D01*
X100274404Y-84795833D01*
X100179166Y-84843452D01*
X99988690Y-84843452D01*
X99893452Y-84891071D01*
X99845833Y-84938690D01*
X99798214Y-85033928D01*
X99798214Y-85224404D01*
X99845833Y-85319642D01*
X99893452Y-85367261D01*
X99988690Y-85414880D01*
X100179166Y-85414880D01*
X100274404Y-85367261D01*
X100322023Y-85319642D01*
X100369642Y-85224404D01*
X100369642Y-85033928D01*
X100322023Y-84938690D01*
X100274404Y-84891071D01*
X100179166Y-84843452D01*
X101322023Y-85414880D02*
X100750595Y-85414880D01*
X101036309Y-85414880D02*
X101036309Y-84414880D01*
X100941071Y-84557738D01*
X100845833Y-84652976D01*
X100750595Y-84700595D01*
X101702976Y-84510119D02*
X101750595Y-84462500D01*
X101845833Y-84414880D01*
X102083928Y-84414880D01*
X102179166Y-84462500D01*
X102226785Y-84510119D01*
X102274404Y-84605357D01*
X102274404Y-84700595D01*
X102226785Y-84843452D01*
X101655357Y-85414880D01*
X102274404Y-85414880D01*
X103036309Y-84891071D02*
X103179166Y-84938690D01*
X103226785Y-84986309D01*
X103274404Y-85081547D01*
X103274404Y-85224404D01*
X103226785Y-85319642D01*
X103179166Y-85367261D01*
X103083928Y-85414880D01*
X102702976Y-85414880D01*
X102702976Y-84414880D01*
X103036309Y-84414880D01*
X103131547Y-84462500D01*
X103179166Y-84510119D01*
X103226785Y-84605357D01*
X103226785Y-84700595D01*
X103179166Y-84795833D01*
X103131547Y-84843452D01*
X103036309Y-84891071D01*
X102702976Y-84891071D01*
X99422023Y-81324404D02*
X99422023Y-80524404D01*
X99612500Y-80524404D01*
X99726785Y-80562500D01*
X99802976Y-80638690D01*
X99841071Y-80714880D01*
X99879166Y-80867261D01*
X99879166Y-80981547D01*
X99841071Y-81133928D01*
X99802976Y-81210119D01*
X99726785Y-81286309D01*
X99612500Y-81324404D01*
X99422023Y-81324404D01*
X100641071Y-81324404D02*
X100183928Y-81324404D01*
X100412500Y-81324404D02*
X100412500Y-80524404D01*
X100336309Y-80638690D01*
X100260119Y-80714880D01*
X100183928Y-80752976D01*
M02*
