G04 #@! TF.GenerationSoftware,KiCad,Pcbnew,(5.1.4)-1*
G04 #@! TF.CreationDate,2019-12-08T17:57:44-07:00*
G04 #@! TF.ProjectId,BAEmacropad,4241456d-6163-4726-9f70-61642e6b6963,rev?*
G04 #@! TF.SameCoordinates,Original*
G04 #@! TF.FileFunction,Copper,L1,Top*
G04 #@! TF.FilePolarity,Positive*
%FSLAX46Y46*%
G04 Gerber Fmt 4.6, Leading zero omitted, Abs format (unit mm)*
G04 Created by KiCad (PCBNEW (5.1.4)-1) date 2019-12-08 17:57:44*
%MOMM*%
%LPD*%
G04 APERTURE LIST*
%ADD10C,2.100000*%
%ADD11C,1.750000*%
%ADD12C,2.250000*%
%ADD13C,1.905000*%
%ADD14R,1.905000X1.905000*%
%ADD15C,2.250000*%
%ADD16C,1.752600*%
%ADD17R,1.752600X1.752600*%
%ADD18R,1.500000X1.000000*%
%ADD19C,0.800000*%
%ADD20C,0.500000*%
%ADD21C,0.250000*%
G04 APERTURE END LIST*
D10*
X55225000Y-74880000D03*
D11*
X53975000Y-72390000D03*
X49475000Y-72390000D03*
D10*
X48215000Y-74880000D03*
D12*
X73700000Y-94987500D03*
X78700000Y-94487500D03*
D13*
X71120000Y-89217500D03*
D14*
X71120000Y-91757500D03*
D12*
X80200000Y-87987500D03*
X79470004Y-87332495D03*
D15*
X78740000Y-86677500D02*
X80200008Y-87987490D01*
D12*
X81280000Y-93027500D03*
X80990000Y-93007499D03*
D15*
X80700000Y-92987500D02*
X81280000Y-93027498D01*
D12*
X52268750Y-96012500D03*
X51613751Y-96742500D03*
D15*
X50958750Y-97472500D02*
X52268752Y-96012500D01*
D12*
X57308750Y-94932500D03*
X57288750Y-95222500D03*
D15*
X57268750Y-95512500D02*
X57308750Y-94932500D01*
D16*
X107861100Y-74136250D03*
X92621100Y-102076250D03*
X107403900Y-76676250D03*
X107861100Y-79216250D03*
X107403900Y-81756250D03*
X107861100Y-84296250D03*
X107403900Y-86836250D03*
X107861100Y-89376250D03*
X107403900Y-91916250D03*
X107861100Y-94456250D03*
X107403900Y-96996250D03*
X107861100Y-99536250D03*
X107403900Y-102076250D03*
X92163900Y-99536250D03*
X92621100Y-96996250D03*
X92163900Y-94456250D03*
X92621100Y-91916250D03*
X92163900Y-89376250D03*
X92621100Y-86836250D03*
X92163900Y-84296250D03*
X92621100Y-81756250D03*
X92163900Y-79216250D03*
X92621100Y-76676250D03*
D17*
X92163900Y-74136250D03*
D18*
X97562500Y-103175000D03*
X97562500Y-106375000D03*
X102462500Y-103175000D03*
X102462500Y-106375000D03*
X97562500Y-91268750D03*
X97562500Y-94468750D03*
X102462500Y-91268750D03*
X102462500Y-94468750D03*
X97562500Y-79362500D03*
X97562500Y-82562500D03*
X102462500Y-79362500D03*
X102462500Y-82562500D03*
D19*
X95250000Y-82550000D03*
X102235000Y-100330000D03*
D20*
X95250000Y-81675000D02*
X97562500Y-79362500D01*
X95250000Y-82550000D02*
X95250000Y-81675000D01*
X95580000Y-103175000D02*
X97562500Y-103175000D01*
X95250000Y-103505000D02*
X95580000Y-103175000D01*
X95421250Y-91268750D02*
X97562500Y-91268750D01*
X95250000Y-91440000D02*
X95421250Y-91268750D01*
X95250000Y-91440000D02*
X95250000Y-103505000D01*
X95250000Y-82550000D02*
X95250000Y-91440000D01*
D21*
X102462500Y-80112500D02*
X99695000Y-82880000D01*
X102462500Y-79362500D02*
X102462500Y-80112500D01*
X99695000Y-82880000D02*
X99695000Y-91586250D01*
X97562500Y-93718750D02*
X97562500Y-94468750D01*
X99695000Y-91586250D02*
X97562500Y-93718750D01*
D20*
X107403900Y-76676250D02*
X105410000Y-78670150D01*
X105080000Y-106375000D02*
X102462500Y-106375000D01*
X105410000Y-106045000D02*
X105080000Y-106375000D01*
X104286250Y-94468750D02*
X102462500Y-94468750D01*
X105410000Y-93345000D02*
X104286250Y-94468750D01*
X105410000Y-93345000D02*
X105410000Y-106045000D01*
X104127500Y-82562500D02*
X102462500Y-82562500D01*
X105410000Y-81280000D02*
X104127500Y-82562500D01*
X105410000Y-81280000D02*
X105410000Y-93345000D01*
X105410000Y-78670150D02*
X105410000Y-81280000D01*
X92163900Y-81299050D02*
X92621100Y-81756250D01*
X92163900Y-79216250D02*
X92163900Y-81299050D01*
X97701100Y-76676250D02*
X107403900Y-76676250D01*
X92621100Y-81756250D02*
X97701100Y-76676250D01*
D21*
X102462500Y-92018750D02*
X99060000Y-95421250D01*
X102462500Y-91268750D02*
X102462500Y-92018750D01*
X97562500Y-105625000D02*
X97562500Y-106375000D01*
X99060000Y-104127500D02*
X97562500Y-105625000D01*
X99060000Y-95421250D02*
X99060000Y-104127500D01*
D20*
X102235000Y-102947500D02*
X102462500Y-103175000D01*
X102235000Y-100330000D02*
X102235000Y-102947500D01*
D21*
X86774724Y-92987500D02*
X87052224Y-92710000D01*
X87052224Y-92710000D02*
X90170000Y-92710000D01*
X90170000Y-101403076D02*
X96520000Y-107753076D01*
X90170000Y-92710000D02*
X90170000Y-101403076D01*
X96520000Y-107753076D02*
X104515110Y-107753076D01*
X82827500Y-92987500D02*
X86774724Y-92987500D01*
X80700000Y-92987500D02*
X82827500Y-92987500D01*
X80097500Y-95885000D02*
X78700000Y-94487500D01*
X81915000Y-95885000D02*
X80097500Y-95885000D01*
X82827500Y-92987500D02*
X82827500Y-94972500D01*
X82827500Y-94972500D02*
X81915000Y-95885000D01*
X108737399Y-85172549D02*
X107861100Y-84296250D01*
X109062401Y-85497551D02*
X108737399Y-85172549D01*
X109062401Y-103205785D02*
X109062401Y-85497551D01*
X104515110Y-107753076D02*
X109062401Y-103205785D01*
M02*
