M48
; DRILL file {KiCad (5.1.4)-1} date 12/8/2019 5:57:47 PM
; FORMAT={-:-/ absolute / inch / decimal}
; #@! TF.CreationDate,2019-12-08T17:57:47-07:00
; #@! TF.GenerationSoftware,Kicad,Pcbnew,(5.1.4)-1
; #@! TF.FileFunction,Plated,1,2,PTH
FMAT,2
INCH
T1C0.0157
T2C0.0390
T3C0.0409
T4C0.0430
T5C0.0512
T6C0.0579
%
G90
G05
T1
X3.75Y-3.25
X4.025Y-3.95
T2
X1.9478Y-2.85
X2.125Y-2.85
T3
X2.8Y-3.5125
X2.8Y-3.6125
T4
X3.6285Y-2.9187
X3.6285Y-3.1187
X3.6285Y-3.3188
X3.6285Y-3.5187
X3.6285Y-3.7188
X3.6285Y-3.9187
X3.6465Y-3.0187
X3.6465Y-3.2188
X3.6465Y-3.4187
X3.6465Y-3.6187
X3.6465Y-3.8188
X3.6465Y-4.0187
X4.2285Y-3.0187
X4.2285Y-3.2188
X4.2285Y-3.4187
X4.2285Y-3.6187
X4.2285Y-3.8188
X4.2285Y-4.0187
X4.2465Y-2.9187
X4.2465Y-3.1187
X4.2465Y-3.3188
X4.2465Y-3.5187
X4.2465Y-3.7188
X4.2465Y-3.9187
T5
X1.8982Y-2.948
X2.1742Y-2.948
T6
X2.9016Y-3.7397
X3.0984Y-3.72
X3.1Y-3.4125
X3.1575Y-3.4641
X3.1772Y-3.6609
X3.2Y-3.6625
X2.0063Y-3.8375
X2.0578Y-3.78
X2.2547Y-3.7603
X2.2563Y-3.7375
T0
M30
