G04 #@! TF.GenerationSoftware,KiCad,Pcbnew,(5.1.4)-1*
G04 #@! TF.CreationDate,2019-12-08T17:57:44-07:00*
G04 #@! TF.ProjectId,BAEmacropad,4241456d-6163-4726-9f70-61642e6b6963,rev?*
G04 #@! TF.SameCoordinates,Original*
G04 #@! TF.FileFunction,Soldermask,Bot*
G04 #@! TF.FilePolarity,Negative*
%FSLAX46Y46*%
G04 Gerber Fmt 4.6, Leading zero omitted, Abs format (unit mm)*
G04 Created by KiCad (PCBNEW (5.1.4)-1) date 2019-12-08 17:57:44*
%MOMM*%
%LPD*%
G04 APERTURE LIST*
%ADD10C,0.100000*%
G04 APERTURE END LIST*
D10*
G36*
X85051474Y-100459184D02*
G01*
X85269474Y-100549483D01*
X85423623Y-100613333D01*
X85758548Y-100837123D01*
X86043377Y-101121952D01*
X86267167Y-101456877D01*
X86326813Y-101600877D01*
X86421316Y-101829026D01*
X86499900Y-102224094D01*
X86499900Y-102626906D01*
X86421316Y-103021974D01*
X86359363Y-103171541D01*
X86267167Y-103394123D01*
X86043377Y-103729048D01*
X85758548Y-104013877D01*
X85423623Y-104237667D01*
X85269474Y-104301517D01*
X85051474Y-104391816D01*
X84656406Y-104470400D01*
X84253594Y-104470400D01*
X83858526Y-104391816D01*
X83640526Y-104301517D01*
X83486377Y-104237667D01*
X83151452Y-104013877D01*
X82866623Y-103729048D01*
X82642833Y-103394123D01*
X82550637Y-103171541D01*
X82488684Y-103021974D01*
X82410100Y-102626906D01*
X82410100Y-102224094D01*
X82488684Y-101829026D01*
X82583187Y-101600877D01*
X82642833Y-101456877D01*
X82866623Y-101121952D01*
X83151452Y-100837123D01*
X83486377Y-100613333D01*
X83640526Y-100549483D01*
X83858526Y-100459184D01*
X84253594Y-100380600D01*
X84656406Y-100380600D01*
X85051474Y-100459184D01*
X85051474Y-100459184D01*
G37*
G36*
X69674411Y-100911026D02*
G01*
X69793137Y-100960204D01*
X69961041Y-101029752D01*
X69961042Y-101029753D01*
X70219004Y-101202117D01*
X70438383Y-101421496D01*
X70462024Y-101456878D01*
X70610748Y-101679459D01*
X70663066Y-101805767D01*
X70729474Y-101966089D01*
X70733219Y-101984918D01*
X70790000Y-102270375D01*
X70790000Y-102580625D01*
X70759737Y-102732767D01*
X70729474Y-102884911D01*
X70695092Y-102967915D01*
X70610748Y-103171541D01*
X70610747Y-103171542D01*
X70438383Y-103429504D01*
X70219004Y-103648883D01*
X70099028Y-103729048D01*
X69961041Y-103821248D01*
X69793137Y-103890796D01*
X69674411Y-103939974D01*
X69370125Y-104000500D01*
X69059875Y-104000500D01*
X68755589Y-103939974D01*
X68636863Y-103890796D01*
X68468959Y-103821248D01*
X68330972Y-103729048D01*
X68210996Y-103648883D01*
X67991617Y-103429504D01*
X67819253Y-103171542D01*
X67819252Y-103171541D01*
X67734908Y-102967915D01*
X67700526Y-102884911D01*
X67640000Y-102580625D01*
X67640000Y-102270375D01*
X67696781Y-101984918D01*
X67700526Y-101966089D01*
X67766934Y-101805767D01*
X67819252Y-101679459D01*
X67967976Y-101456878D01*
X67991617Y-101421496D01*
X68210996Y-101202117D01*
X68468958Y-101029753D01*
X68468959Y-101029752D01*
X68636863Y-100960204D01*
X68755589Y-100911026D01*
X68907733Y-100880763D01*
X69059875Y-100850500D01*
X69370125Y-100850500D01*
X69674411Y-100911026D01*
X69674411Y-100911026D01*
G37*
G36*
X92891583Y-101184585D02*
G01*
X93060340Y-101254486D01*
X93212218Y-101355968D01*
X93341382Y-101485132D01*
X93442864Y-101637010D01*
X93512765Y-101805767D01*
X93548400Y-101984918D01*
X93548400Y-102167582D01*
X93512765Y-102346733D01*
X93442864Y-102515490D01*
X93341382Y-102667368D01*
X93212218Y-102796532D01*
X93060340Y-102898014D01*
X92891583Y-102967915D01*
X92712432Y-103003550D01*
X92529768Y-103003550D01*
X92350617Y-102967915D01*
X92181860Y-102898014D01*
X92029982Y-102796532D01*
X91900818Y-102667368D01*
X91799336Y-102515490D01*
X91729435Y-102346733D01*
X91693800Y-102167582D01*
X91693800Y-101984918D01*
X91729435Y-101805767D01*
X91799336Y-101637010D01*
X91900818Y-101485132D01*
X92029982Y-101355968D01*
X92181860Y-101254486D01*
X92350617Y-101184585D01*
X92529768Y-101148950D01*
X92712432Y-101148950D01*
X92891583Y-101184585D01*
X92891583Y-101184585D01*
G37*
G36*
X107674383Y-101184585D02*
G01*
X107843140Y-101254486D01*
X107995018Y-101355968D01*
X108124182Y-101485132D01*
X108225664Y-101637010D01*
X108295565Y-101805767D01*
X108331200Y-101984918D01*
X108331200Y-102167582D01*
X108295565Y-102346733D01*
X108225664Y-102515490D01*
X108124182Y-102667368D01*
X107995018Y-102796532D01*
X107843140Y-102898014D01*
X107674383Y-102967915D01*
X107495232Y-103003550D01*
X107312568Y-103003550D01*
X107133417Y-102967915D01*
X106964660Y-102898014D01*
X106812782Y-102796532D01*
X106683618Y-102667368D01*
X106582136Y-102515490D01*
X106512235Y-102346733D01*
X106476600Y-102167582D01*
X106476600Y-101984918D01*
X106512235Y-101805767D01*
X106582136Y-101637010D01*
X106683618Y-101485132D01*
X106812782Y-101355968D01*
X106964660Y-101254486D01*
X107133417Y-101184585D01*
X107312568Y-101148950D01*
X107495232Y-101148950D01*
X107674383Y-101184585D01*
X107674383Y-101184585D01*
G37*
G36*
X55365224Y-98046184D02*
G01*
X55583224Y-98136483D01*
X55737373Y-98200333D01*
X56072298Y-98424123D01*
X56357127Y-98708952D01*
X56580917Y-99043877D01*
X56613312Y-99122086D01*
X56735066Y-99416026D01*
X56813650Y-99811094D01*
X56813650Y-100213906D01*
X56735066Y-100608974D01*
X56684201Y-100731772D01*
X56580917Y-100981123D01*
X56357127Y-101316048D01*
X56072298Y-101600877D01*
X55737373Y-101824667D01*
X55583224Y-101888517D01*
X55365224Y-101978816D01*
X54970156Y-102057400D01*
X54567344Y-102057400D01*
X54172276Y-101978816D01*
X53954276Y-101888517D01*
X53800127Y-101824667D01*
X53465202Y-101600877D01*
X53180373Y-101316048D01*
X52956583Y-100981123D01*
X52853299Y-100731772D01*
X52802434Y-100608974D01*
X52723850Y-100213906D01*
X52723850Y-99811094D01*
X52802434Y-99416026D01*
X52924188Y-99122086D01*
X52956583Y-99043877D01*
X53180373Y-98708952D01*
X53465202Y-98424123D01*
X53800127Y-98200333D01*
X53954276Y-98136483D01*
X54172276Y-98046184D01*
X54567344Y-97967600D01*
X54970156Y-97967600D01*
X55365224Y-98046184D01*
X55365224Y-98046184D01*
G37*
G36*
X60118854Y-99122085D02*
G01*
X60287376Y-99191889D01*
X60439041Y-99293228D01*
X60568022Y-99422209D01*
X60669361Y-99573874D01*
X60739165Y-99742396D01*
X60774750Y-99921297D01*
X60774750Y-100103703D01*
X60739165Y-100282604D01*
X60669361Y-100451126D01*
X60568022Y-100602791D01*
X60439041Y-100731772D01*
X60287376Y-100833111D01*
X60118854Y-100902915D01*
X59939953Y-100938500D01*
X59757547Y-100938500D01*
X59578646Y-100902915D01*
X59410124Y-100833111D01*
X59258459Y-100731772D01*
X59129478Y-100602791D01*
X59028139Y-100451126D01*
X58958335Y-100282604D01*
X58922750Y-100103703D01*
X58922750Y-99921297D01*
X58958335Y-99742396D01*
X59028139Y-99573874D01*
X59129478Y-99422209D01*
X59258459Y-99293228D01*
X59410124Y-99191889D01*
X59578646Y-99122085D01*
X59757547Y-99086500D01*
X59939953Y-99086500D01*
X60118854Y-99122085D01*
X60118854Y-99122085D01*
G37*
G36*
X49958854Y-99122085D02*
G01*
X50127376Y-99191889D01*
X50279041Y-99293228D01*
X50408022Y-99422209D01*
X50509361Y-99573874D01*
X50579165Y-99742396D01*
X50614750Y-99921297D01*
X50614750Y-100103703D01*
X50579165Y-100282604D01*
X50509361Y-100451126D01*
X50408022Y-100602791D01*
X50279041Y-100731772D01*
X50127376Y-100833111D01*
X49958854Y-100902915D01*
X49779953Y-100938500D01*
X49597547Y-100938500D01*
X49418646Y-100902915D01*
X49250124Y-100833111D01*
X49098459Y-100731772D01*
X48969478Y-100602791D01*
X48868139Y-100451126D01*
X48798335Y-100282604D01*
X48762750Y-100103703D01*
X48762750Y-99921297D01*
X48798335Y-99742396D01*
X48868139Y-99573874D01*
X48969478Y-99422209D01*
X49098459Y-99293228D01*
X49250124Y-99191889D01*
X49418646Y-99122085D01*
X49597547Y-99086500D01*
X49779953Y-99086500D01*
X49958854Y-99122085D01*
X49958854Y-99122085D01*
G37*
G36*
X108131583Y-98644585D02*
G01*
X108300340Y-98714486D01*
X108452218Y-98815968D01*
X108581382Y-98945132D01*
X108682864Y-99097010D01*
X108752765Y-99265767D01*
X108788400Y-99444918D01*
X108788400Y-99627582D01*
X108752765Y-99806733D01*
X108682864Y-99975490D01*
X108581382Y-100127368D01*
X108452218Y-100256532D01*
X108300340Y-100358014D01*
X108131583Y-100427915D01*
X107952432Y-100463550D01*
X107769768Y-100463550D01*
X107590617Y-100427915D01*
X107421860Y-100358014D01*
X107269982Y-100256532D01*
X107140818Y-100127368D01*
X107039336Y-99975490D01*
X106969435Y-99806733D01*
X106933800Y-99627582D01*
X106933800Y-99444918D01*
X106969435Y-99265767D01*
X107039336Y-99097010D01*
X107140818Y-98945132D01*
X107269982Y-98815968D01*
X107421860Y-98714486D01*
X107590617Y-98644585D01*
X107769768Y-98608950D01*
X107952432Y-98608950D01*
X108131583Y-98644585D01*
X108131583Y-98644585D01*
G37*
G36*
X92434383Y-98644585D02*
G01*
X92603140Y-98714486D01*
X92755018Y-98815968D01*
X92884182Y-98945132D01*
X92985664Y-99097010D01*
X93055565Y-99265767D01*
X93091200Y-99444918D01*
X93091200Y-99627582D01*
X93055565Y-99806733D01*
X92985664Y-99975490D01*
X92884182Y-100127368D01*
X92755018Y-100256532D01*
X92603140Y-100358014D01*
X92434383Y-100427915D01*
X92255232Y-100463550D01*
X92072568Y-100463550D01*
X91893417Y-100427915D01*
X91724660Y-100358014D01*
X91572782Y-100256532D01*
X91443618Y-100127368D01*
X91342136Y-99975490D01*
X91272235Y-99806733D01*
X91236600Y-99627582D01*
X91236600Y-99444918D01*
X91272235Y-99265767D01*
X91342136Y-99097010D01*
X91443618Y-98945132D01*
X91572782Y-98815968D01*
X91724660Y-98714486D01*
X91893417Y-98644585D01*
X92072568Y-98608950D01*
X92255232Y-98608950D01*
X92434383Y-98644585D01*
X92434383Y-98644585D01*
G37*
G36*
X52291955Y-94836381D02*
G01*
X52297395Y-94836500D01*
X52384578Y-94836500D01*
X52400847Y-94839736D01*
X52419706Y-94842015D01*
X52436282Y-94842746D01*
X52520973Y-94863510D01*
X52526268Y-94864684D01*
X52611777Y-94881693D01*
X52627112Y-94888045D01*
X52645151Y-94893955D01*
X52661271Y-94897907D01*
X52740254Y-94934780D01*
X52745244Y-94936977D01*
X52825795Y-94970342D01*
X52839591Y-94979560D01*
X52856143Y-94988882D01*
X52871176Y-94995900D01*
X52941444Y-95047471D01*
X52945942Y-95050622D01*
X53018406Y-95099041D01*
X53030133Y-95110768D01*
X53044559Y-95123148D01*
X53057929Y-95132961D01*
X53057930Y-95132962D01*
X53116771Y-95197233D01*
X53120579Y-95201214D01*
X53182209Y-95262844D01*
X53191424Y-95276635D01*
X53203146Y-95291578D01*
X53214355Y-95303821D01*
X53259549Y-95378374D01*
X53262496Y-95383001D01*
X53274495Y-95400959D01*
X53310908Y-95455455D01*
X53317255Y-95470777D01*
X53325842Y-95487731D01*
X53334441Y-95501917D01*
X53364228Y-95583868D01*
X53366202Y-95588948D01*
X53399557Y-95669473D01*
X53399557Y-95669474D01*
X53402791Y-95685733D01*
X53407908Y-95704042D01*
X53413575Y-95719634D01*
X53426805Y-95805845D01*
X53427751Y-95811213D01*
X53444750Y-95896673D01*
X53444750Y-95913252D01*
X53446194Y-95932192D01*
X53448713Y-95948604D01*
X53444870Y-96035749D01*
X53444750Y-96041189D01*
X53444750Y-96128326D01*
X53441946Y-96142425D01*
X53441516Y-96144583D01*
X53439238Y-96163441D01*
X53438506Y-96180031D01*
X53417738Y-96264737D01*
X53416562Y-96270037D01*
X53399557Y-96355527D01*
X53393207Y-96370857D01*
X53387299Y-96388893D01*
X53383345Y-96405020D01*
X53346461Y-96484026D01*
X53344261Y-96489023D01*
X53310908Y-96569545D01*
X53301694Y-96583335D01*
X53292372Y-96599887D01*
X53285352Y-96614924D01*
X53233761Y-96685220D01*
X53230616Y-96689710D01*
X53182211Y-96762154D01*
X53125210Y-96819155D01*
X53120561Y-96824063D01*
X52723370Y-97266733D01*
X51795473Y-98300876D01*
X51667429Y-98418102D01*
X51568380Y-98478146D01*
X51469333Y-98538189D01*
X51251616Y-98617323D01*
X51022645Y-98652461D01*
X50791220Y-98642254D01*
X50566231Y-98587093D01*
X50461477Y-98538189D01*
X50356329Y-98489102D01*
X50259588Y-98418102D01*
X50169573Y-98352039D01*
X50095144Y-98270741D01*
X50013148Y-98181179D01*
X49931314Y-98046185D01*
X49893061Y-97983083D01*
X49813927Y-97765366D01*
X49778789Y-97536395D01*
X49788996Y-97304970D01*
X49844157Y-97079981D01*
X49895722Y-96969528D01*
X49942148Y-96870080D01*
X49942150Y-96870077D01*
X50044864Y-96730122D01*
X50777810Y-95913252D01*
X51331537Y-95296121D01*
X51342431Y-95282089D01*
X51355289Y-95262846D01*
X51412323Y-95205812D01*
X51416973Y-95200903D01*
X51432028Y-95184124D01*
X51453451Y-95164511D01*
X51457432Y-95160703D01*
X51519096Y-95099039D01*
X51532893Y-95089820D01*
X51547852Y-95078085D01*
X51560071Y-95066898D01*
X51592288Y-95047368D01*
X51634580Y-95021731D01*
X51639171Y-95018808D01*
X51711705Y-94970342D01*
X51727050Y-94963986D01*
X51743998Y-94955401D01*
X51758166Y-94946812D01*
X51758167Y-94946812D01*
X51758168Y-94946811D01*
X51840062Y-94917045D01*
X51845160Y-94915063D01*
X51925723Y-94881693D01*
X51942002Y-94878455D01*
X51960292Y-94873344D01*
X51975885Y-94867677D01*
X52062050Y-94854454D01*
X52067413Y-94853509D01*
X52152923Y-94836500D01*
X52169516Y-94836500D01*
X52188459Y-94835055D01*
X52204856Y-94832539D01*
X52291955Y-94836381D01*
X52291955Y-94836381D01*
G37*
G36*
X107674383Y-96104585D02*
G01*
X107843140Y-96174486D01*
X107995018Y-96275968D01*
X108124182Y-96405132D01*
X108225664Y-96557010D01*
X108295565Y-96725767D01*
X108331200Y-96904918D01*
X108331200Y-97087582D01*
X108295565Y-97266733D01*
X108225664Y-97435490D01*
X108124182Y-97587368D01*
X107995018Y-97716532D01*
X107843140Y-97818014D01*
X107674383Y-97887915D01*
X107495232Y-97923550D01*
X107312568Y-97923550D01*
X107133417Y-97887915D01*
X106964660Y-97818014D01*
X106812782Y-97716532D01*
X106683618Y-97587368D01*
X106582136Y-97435490D01*
X106512235Y-97266733D01*
X106476600Y-97087582D01*
X106476600Y-96904918D01*
X106512235Y-96725767D01*
X106582136Y-96557010D01*
X106683618Y-96405132D01*
X106812782Y-96275968D01*
X106964660Y-96174486D01*
X107133417Y-96104585D01*
X107312568Y-96068950D01*
X107495232Y-96068950D01*
X107674383Y-96104585D01*
X107674383Y-96104585D01*
G37*
G36*
X92891583Y-96104585D02*
G01*
X93060340Y-96174486D01*
X93212218Y-96275968D01*
X93341382Y-96405132D01*
X93442864Y-96557010D01*
X93512765Y-96725767D01*
X93548400Y-96904918D01*
X93548400Y-97087582D01*
X93512765Y-97266733D01*
X93442864Y-97435490D01*
X93341382Y-97587368D01*
X93212218Y-97716532D01*
X93060340Y-97818014D01*
X92891583Y-97887915D01*
X92712432Y-97923550D01*
X92529768Y-97923550D01*
X92350617Y-97887915D01*
X92181860Y-97818014D01*
X92029982Y-97716532D01*
X91900818Y-97587368D01*
X91799336Y-97435490D01*
X91729435Y-97266733D01*
X91693800Y-97087582D01*
X91693800Y-96904918D01*
X91729435Y-96725767D01*
X91799336Y-96557010D01*
X91900818Y-96405132D01*
X92029982Y-96275968D01*
X92181860Y-96174486D01*
X92350617Y-96104585D01*
X92529768Y-96068950D01*
X92712432Y-96068950D01*
X92891583Y-96104585D01*
X92891583Y-96104585D01*
G37*
G36*
X57396877Y-93754761D02*
G01*
X57417650Y-93756500D01*
X57424577Y-93756500D01*
X57519504Y-93775382D01*
X57523098Y-93776042D01*
X57618480Y-93792124D01*
X57624953Y-93794585D01*
X57644978Y-93800341D01*
X57651777Y-93801693D01*
X57714164Y-93827534D01*
X57741193Y-93838730D01*
X57744594Y-93840081D01*
X57835005Y-93874461D01*
X57840877Y-93878140D01*
X57859386Y-93887687D01*
X57865795Y-93890342D01*
X57946313Y-93944142D01*
X57949304Y-93946078D01*
X58031307Y-93997459D01*
X58036334Y-94002200D01*
X58052646Y-94015191D01*
X58058402Y-94019037D01*
X58126860Y-94087495D01*
X58129439Y-94089999D01*
X58199840Y-94156389D01*
X58203845Y-94162019D01*
X58217309Y-94177944D01*
X58222209Y-94182844D01*
X58275994Y-94263339D01*
X58278041Y-94266307D01*
X58334130Y-94345145D01*
X58336964Y-94351458D01*
X58347058Y-94369693D01*
X58350908Y-94375455D01*
X58387970Y-94464930D01*
X58389374Y-94468185D01*
X58429015Y-94556473D01*
X58430565Y-94563225D01*
X58436902Y-94583062D01*
X58439557Y-94589473D01*
X58458442Y-94684417D01*
X58459188Y-94687901D01*
X58480848Y-94782251D01*
X58480848Y-94782254D01*
X58481050Y-94789154D01*
X58483397Y-94809870D01*
X58484750Y-94816674D01*
X58484750Y-94913486D01*
X58484803Y-94917084D01*
X58485938Y-94955777D01*
X58485045Y-94968725D01*
X58484750Y-94977297D01*
X58484750Y-95048326D01*
X58478831Y-95078085D01*
X58478354Y-95080479D01*
X58476250Y-95096250D01*
X58437988Y-95651045D01*
X58409126Y-95822230D01*
X58326788Y-96038755D01*
X58203791Y-96235057D01*
X58044861Y-96403590D01*
X57856105Y-96537880D01*
X57644777Y-96632765D01*
X57418999Y-96684598D01*
X57187448Y-96691389D01*
X57187447Y-96691389D01*
X57141762Y-96683686D01*
X56959020Y-96652876D01*
X56742495Y-96570538D01*
X56546193Y-96447541D01*
X56377660Y-96288611D01*
X56243370Y-96099855D01*
X56148485Y-95888527D01*
X56096652Y-95662749D01*
X56091562Y-95489223D01*
X56132454Y-94896294D01*
X56132750Y-94887696D01*
X56132750Y-94816675D01*
X56142383Y-94768247D01*
X56151638Y-94721719D01*
X56152294Y-94718145D01*
X56155310Y-94700259D01*
X56168374Y-94622770D01*
X56170835Y-94616299D01*
X56176592Y-94596267D01*
X56177943Y-94589474D01*
X56180593Y-94583076D01*
X56215014Y-94499976D01*
X56216303Y-94496730D01*
X56250712Y-94406245D01*
X56254386Y-94400381D01*
X56263937Y-94381865D01*
X56266592Y-94375455D01*
X56320407Y-94294915D01*
X56322327Y-94291949D01*
X56373709Y-94209943D01*
X56378461Y-94204904D01*
X56391439Y-94188607D01*
X56395287Y-94182848D01*
X56463743Y-94114392D01*
X56466296Y-94111762D01*
X56469677Y-94108177D01*
X56532639Y-94041410D01*
X56538271Y-94037403D01*
X56554197Y-94023938D01*
X56559096Y-94019039D01*
X56620762Y-93977836D01*
X56639583Y-93965259D01*
X56642556Y-93963210D01*
X56721395Y-93907120D01*
X56727705Y-93904287D01*
X56745944Y-93894191D01*
X56751701Y-93890344D01*
X56751704Y-93890343D01*
X56751705Y-93890342D01*
X56841179Y-93853281D01*
X56844437Y-93851875D01*
X56932723Y-93812235D01*
X56939475Y-93810685D01*
X56959312Y-93804348D01*
X56965723Y-93801693D01*
X57060649Y-93782811D01*
X57064196Y-93782051D01*
X57158501Y-93760401D01*
X57160880Y-93760331D01*
X57165415Y-93760198D01*
X57186131Y-93757851D01*
X57192924Y-93756500D01*
X57289709Y-93756500D01*
X57293334Y-93756447D01*
X57390052Y-93753610D01*
X57396877Y-93754761D01*
X57396877Y-93754761D01*
G37*
G36*
X76375952Y-94682930D02*
G01*
X76463075Y-94700259D01*
X76572498Y-94745584D01*
X76627211Y-94768247D01*
X76754815Y-94853509D01*
X76774928Y-94866948D01*
X76900552Y-94992572D01*
X76900554Y-94992575D01*
X76999253Y-95140289D01*
X77009286Y-95164511D01*
X77067241Y-95304425D01*
X77081946Y-95378355D01*
X77101900Y-95478669D01*
X77101900Y-95656331D01*
X77092409Y-95704043D01*
X77067241Y-95830575D01*
X77021916Y-95939998D01*
X76999253Y-95994711D01*
X76928998Y-96099855D01*
X76900552Y-96142428D01*
X76774928Y-96268052D01*
X76774925Y-96268054D01*
X76627211Y-96366753D01*
X76573709Y-96388914D01*
X76463075Y-96434741D01*
X76375952Y-96452070D01*
X76288831Y-96469400D01*
X76111169Y-96469400D01*
X76024048Y-96452070D01*
X75936925Y-96434741D01*
X75826291Y-96388914D01*
X75772789Y-96366753D01*
X75625075Y-96268054D01*
X75625072Y-96268052D01*
X75499448Y-96142428D01*
X75471002Y-96099855D01*
X75400747Y-95994711D01*
X75378084Y-95939998D01*
X75332759Y-95830575D01*
X75307591Y-95704043D01*
X75298100Y-95656331D01*
X75298100Y-95478669D01*
X75318054Y-95378355D01*
X75332759Y-95304425D01*
X75390714Y-95164511D01*
X75400747Y-95140289D01*
X75499446Y-94992575D01*
X75499448Y-94992572D01*
X75625072Y-94866948D01*
X75645185Y-94853509D01*
X75772789Y-94768247D01*
X75827502Y-94745584D01*
X75936925Y-94700259D01*
X76024048Y-94682929D01*
X76111169Y-94665600D01*
X76288831Y-94665600D01*
X76375952Y-94682930D01*
X76375952Y-94682930D01*
G37*
G36*
X73891560Y-93826564D02*
G01*
X74043027Y-93856693D01*
X74257045Y-93945342D01*
X74283749Y-93963185D01*
X74449654Y-94074039D01*
X74613461Y-94237846D01*
X74685157Y-94345147D01*
X74742158Y-94430455D01*
X74830807Y-94644473D01*
X74845461Y-94718145D01*
X74876000Y-94871673D01*
X74876000Y-95103327D01*
X74864587Y-95160703D01*
X74830807Y-95330527D01*
X74742158Y-95544545D01*
X74742157Y-95544546D01*
X74613461Y-95737154D01*
X74449654Y-95900961D01*
X74378349Y-95948605D01*
X74257045Y-96029658D01*
X74043027Y-96118307D01*
X73921777Y-96142425D01*
X73815827Y-96163500D01*
X73584173Y-96163500D01*
X73478223Y-96142425D01*
X73356973Y-96118307D01*
X73142955Y-96029658D01*
X73021651Y-95948605D01*
X72950346Y-95900961D01*
X72786539Y-95737154D01*
X72657843Y-95544546D01*
X72657842Y-95544545D01*
X72569193Y-95330527D01*
X72535413Y-95160703D01*
X72524000Y-95103327D01*
X72524000Y-94871673D01*
X72554539Y-94718145D01*
X72569193Y-94644473D01*
X72657842Y-94430455D01*
X72714843Y-94345147D01*
X72786539Y-94237846D01*
X72950346Y-94074039D01*
X73116251Y-93963185D01*
X73142955Y-93945342D01*
X73356973Y-93856693D01*
X73508440Y-93826564D01*
X73584173Y-93811500D01*
X73815827Y-93811500D01*
X73891560Y-93826564D01*
X73891560Y-93826564D01*
G37*
G36*
X81316228Y-91851204D02*
G01*
X81324824Y-91851500D01*
X81395827Y-91851500D01*
X81490693Y-91870370D01*
X81494298Y-91871032D01*
X81589727Y-91887121D01*
X81596204Y-91889584D01*
X81616238Y-91895343D01*
X81623027Y-91896693D01*
X81623030Y-91896694D01*
X81623029Y-91896694D01*
X81712395Y-91933710D01*
X81715799Y-91935062D01*
X81806252Y-91969458D01*
X81812137Y-91973145D01*
X81830646Y-91982692D01*
X81837045Y-91985342D01*
X81917500Y-92039100D01*
X81920529Y-92041060D01*
X82002554Y-92092455D01*
X82007594Y-92097208D01*
X82023896Y-92110191D01*
X82029653Y-92114038D01*
X82098077Y-92182462D01*
X82100675Y-92184984D01*
X82171088Y-92251384D01*
X82175105Y-92257030D01*
X82188564Y-92272949D01*
X82193461Y-92277846D01*
X82208041Y-92299667D01*
X82247235Y-92358326D01*
X82249233Y-92361223D01*
X82305378Y-92440139D01*
X82308221Y-92446471D01*
X82318308Y-92464693D01*
X82322158Y-92470455D01*
X82359211Y-92559909D01*
X82360592Y-92563110D01*
X82400264Y-92651467D01*
X82401816Y-92658229D01*
X82408155Y-92678070D01*
X82410807Y-92684473D01*
X82421457Y-92738014D01*
X82429686Y-92779386D01*
X82430454Y-92782970D01*
X82452098Y-92877245D01*
X82452301Y-92884161D01*
X82454648Y-92904876D01*
X82454912Y-92906202D01*
X82456000Y-92911675D01*
X82456000Y-93008467D01*
X82456053Y-93012092D01*
X82458890Y-93108796D01*
X82457738Y-93115631D01*
X82456000Y-93136395D01*
X82456000Y-93143326D01*
X82437110Y-93238294D01*
X82436468Y-93241786D01*
X82420377Y-93337224D01*
X82420376Y-93337227D01*
X82417919Y-93343689D01*
X82412159Y-93363728D01*
X82410807Y-93370527D01*
X82373746Y-93460000D01*
X82372435Y-93463301D01*
X82338041Y-93553749D01*
X82334365Y-93559617D01*
X82324813Y-93578134D01*
X82322158Y-93584545D01*
X82268332Y-93665102D01*
X82266410Y-93668071D01*
X82215044Y-93750051D01*
X82210299Y-93755083D01*
X82197315Y-93771386D01*
X82193461Y-93777154D01*
X82124960Y-93845655D01*
X82122458Y-93848232D01*
X82056114Y-93918586D01*
X82050480Y-93922594D01*
X82034566Y-93936049D01*
X82029656Y-93940959D01*
X81949118Y-93994773D01*
X81946142Y-93996825D01*
X81867359Y-94052876D01*
X81861045Y-94055711D01*
X81842821Y-94065798D01*
X81837045Y-94069658D01*
X81747503Y-94106748D01*
X81744255Y-94108149D01*
X81656031Y-94147761D01*
X81649303Y-94149306D01*
X81629447Y-94155648D01*
X81623027Y-94158307D01*
X81527999Y-94177209D01*
X81524475Y-94177964D01*
X81460311Y-94192695D01*
X81430254Y-94199596D01*
X81429702Y-94199612D01*
X81423351Y-94199798D01*
X81402637Y-94202145D01*
X81395826Y-94203500D01*
X81298951Y-94203500D01*
X81295351Y-94203553D01*
X81256727Y-94204686D01*
X81243807Y-94203795D01*
X81235236Y-94203500D01*
X81164174Y-94203500D01*
X81132000Y-94197100D01*
X81116236Y-94194997D01*
X80561459Y-94156738D01*
X80390274Y-94127877D01*
X80173749Y-94045540D01*
X79986861Y-93928441D01*
X79964926Y-93917531D01*
X79941278Y-93911109D01*
X79916832Y-93909423D01*
X79892527Y-93912538D01*
X79869297Y-93920336D01*
X79848034Y-93932516D01*
X79829556Y-93948610D01*
X79814573Y-93967999D01*
X79803660Y-93989939D01*
X79797238Y-94013587D01*
X79795552Y-94038033D01*
X79798667Y-94062338D01*
X79805010Y-94082193D01*
X79830807Y-94144473D01*
X79849380Y-94237846D01*
X79876000Y-94371673D01*
X79876000Y-94603327D01*
X79872132Y-94622772D01*
X79830807Y-94830527D01*
X79742158Y-95044545D01*
X79711906Y-95089820D01*
X79613461Y-95237154D01*
X79449654Y-95400961D01*
X79345177Y-95470770D01*
X79257045Y-95529658D01*
X79043027Y-95618307D01*
X78891560Y-95648436D01*
X78815827Y-95663500D01*
X78584173Y-95663500D01*
X78508440Y-95648436D01*
X78356973Y-95618307D01*
X78142955Y-95529658D01*
X78054823Y-95470770D01*
X77950346Y-95400961D01*
X77786539Y-95237154D01*
X77688094Y-95089820D01*
X77657842Y-95044545D01*
X77569193Y-94830527D01*
X77527868Y-94622772D01*
X77524000Y-94603327D01*
X77524000Y-94371673D01*
X77550620Y-94237846D01*
X77569193Y-94144473D01*
X77657842Y-93930455D01*
X77714504Y-93845655D01*
X77786539Y-93737846D01*
X77950346Y-93574039D01*
X78110154Y-93467259D01*
X78142955Y-93445342D01*
X78356973Y-93356693D01*
X78508440Y-93326564D01*
X78584173Y-93311500D01*
X78815827Y-93311500D01*
X78891560Y-93326564D01*
X79043027Y-93356693D01*
X79257045Y-93445342D01*
X79257046Y-93445343D01*
X79408897Y-93546806D01*
X79430507Y-93558357D01*
X79453956Y-93565470D01*
X79478342Y-93567872D01*
X79502728Y-93565470D01*
X79526177Y-93558357D01*
X79547788Y-93546806D01*
X79566730Y-93531260D01*
X79582275Y-93512318D01*
X79593826Y-93490708D01*
X79600939Y-93467259D01*
X79603341Y-93442873D01*
X79600939Y-93418487D01*
X79592379Y-93391686D01*
X79579737Y-93363531D01*
X79527902Y-93137753D01*
X79521110Y-92906202D01*
X79559623Y-92677774D01*
X79641960Y-92461249D01*
X79764957Y-92264947D01*
X79923886Y-92096412D01*
X80112641Y-91962122D01*
X80323969Y-91867237D01*
X80549747Y-91815402D01*
X80723273Y-91810312D01*
X81316228Y-91851204D01*
X81316228Y-91851204D01*
G37*
G36*
X108131583Y-93564585D02*
G01*
X108300340Y-93634486D01*
X108452218Y-93735968D01*
X108581382Y-93865132D01*
X108682864Y-94017010D01*
X108752765Y-94185767D01*
X108788400Y-94364918D01*
X108788400Y-94547582D01*
X108752765Y-94726733D01*
X108682864Y-94895490D01*
X108581382Y-95047368D01*
X108452218Y-95176532D01*
X108300340Y-95278014D01*
X108131583Y-95347915D01*
X107952432Y-95383550D01*
X107769768Y-95383550D01*
X107590617Y-95347915D01*
X107421860Y-95278014D01*
X107269982Y-95176532D01*
X107140818Y-95047368D01*
X107039336Y-94895490D01*
X106969435Y-94726733D01*
X106933800Y-94547582D01*
X106933800Y-94364918D01*
X106969435Y-94185767D01*
X107039336Y-94017010D01*
X107140818Y-93865132D01*
X107269982Y-93735968D01*
X107421860Y-93634486D01*
X107590617Y-93564585D01*
X107769768Y-93528950D01*
X107952432Y-93528950D01*
X108131583Y-93564585D01*
X108131583Y-93564585D01*
G37*
G36*
X92434383Y-93564585D02*
G01*
X92603140Y-93634486D01*
X92755018Y-93735968D01*
X92884182Y-93865132D01*
X92985664Y-94017010D01*
X93055565Y-94185767D01*
X93091200Y-94364918D01*
X93091200Y-94547582D01*
X93055565Y-94726733D01*
X92985664Y-94895490D01*
X92884182Y-95047368D01*
X92755018Y-95176532D01*
X92603140Y-95278014D01*
X92434383Y-95347915D01*
X92255232Y-95383550D01*
X92072568Y-95383550D01*
X91893417Y-95347915D01*
X91724660Y-95278014D01*
X91572782Y-95176532D01*
X91443618Y-95047368D01*
X91342136Y-94895490D01*
X91272235Y-94726733D01*
X91236600Y-94547582D01*
X91236600Y-94364918D01*
X91272235Y-94185767D01*
X91342136Y-94017010D01*
X91443618Y-93865132D01*
X91572782Y-93735968D01*
X91724660Y-93634486D01*
X91893417Y-93564585D01*
X92072568Y-93528950D01*
X92255232Y-93528950D01*
X92434383Y-93564585D01*
X92434383Y-93564585D01*
G37*
G36*
X107674383Y-91024585D02*
G01*
X107843140Y-91094486D01*
X107995018Y-91195968D01*
X108124182Y-91325132D01*
X108225664Y-91477010D01*
X108295565Y-91645767D01*
X108331200Y-91824918D01*
X108331200Y-92007582D01*
X108295565Y-92186733D01*
X108225664Y-92355490D01*
X108124182Y-92507368D01*
X107995018Y-92636532D01*
X107843140Y-92738014D01*
X107674383Y-92807915D01*
X107495232Y-92843550D01*
X107312568Y-92843550D01*
X107133417Y-92807915D01*
X106964660Y-92738014D01*
X106812782Y-92636532D01*
X106683618Y-92507368D01*
X106582136Y-92355490D01*
X106512235Y-92186733D01*
X106476600Y-92007582D01*
X106476600Y-91824918D01*
X106512235Y-91645767D01*
X106582136Y-91477010D01*
X106683618Y-91325132D01*
X106812782Y-91195968D01*
X106964660Y-91094486D01*
X107133417Y-91024585D01*
X107312568Y-90988950D01*
X107495232Y-90988950D01*
X107674383Y-91024585D01*
X107674383Y-91024585D01*
G37*
G36*
X92891583Y-91024585D02*
G01*
X93060340Y-91094486D01*
X93212218Y-91195968D01*
X93341382Y-91325132D01*
X93442864Y-91477010D01*
X93512765Y-91645767D01*
X93548400Y-91824918D01*
X93548400Y-92007582D01*
X93512765Y-92186733D01*
X93442864Y-92355490D01*
X93341382Y-92507368D01*
X93212218Y-92636532D01*
X93060340Y-92738014D01*
X92891583Y-92807915D01*
X92712432Y-92843550D01*
X92529768Y-92843550D01*
X92350617Y-92807915D01*
X92181860Y-92738014D01*
X92029982Y-92636532D01*
X91900818Y-92507368D01*
X91799336Y-92355490D01*
X91729435Y-92186733D01*
X91693800Y-92007582D01*
X91693800Y-91824918D01*
X91729435Y-91645767D01*
X91799336Y-91477010D01*
X91900818Y-91325132D01*
X92029982Y-91195968D01*
X92181860Y-91094486D01*
X92350617Y-91024585D01*
X92529768Y-90988950D01*
X92712432Y-90988950D01*
X92891583Y-91024585D01*
X92891583Y-91024585D01*
G37*
G36*
X72123500Y-92761000D02*
G01*
X70116500Y-92761000D01*
X70116500Y-90754000D01*
X72123500Y-90754000D01*
X72123500Y-92761000D01*
X72123500Y-92761000D01*
G37*
G36*
X76796474Y-88521184D02*
G01*
X77014474Y-88611483D01*
X77168623Y-88675333D01*
X77503548Y-88899123D01*
X77788377Y-89183952D01*
X78012167Y-89518877D01*
X78012167Y-89518878D01*
X78166316Y-89891026D01*
X78244900Y-90286094D01*
X78244900Y-90688906D01*
X78166316Y-91083974D01*
X78161961Y-91094487D01*
X78012167Y-91456123D01*
X77788377Y-91791048D01*
X77503548Y-92075877D01*
X77168623Y-92299667D01*
X77033854Y-92355490D01*
X76796474Y-92453816D01*
X76401406Y-92532400D01*
X75998594Y-92532400D01*
X75603526Y-92453816D01*
X75366146Y-92355490D01*
X75231377Y-92299667D01*
X74896452Y-92075877D01*
X74611623Y-91791048D01*
X74387833Y-91456123D01*
X74238039Y-91094487D01*
X74233684Y-91083974D01*
X74155100Y-90688906D01*
X74155100Y-90286094D01*
X74233684Y-89891026D01*
X74387833Y-89518878D01*
X74387833Y-89518877D01*
X74611623Y-89183952D01*
X74896452Y-88899123D01*
X75231377Y-88675333D01*
X75385526Y-88611483D01*
X75603526Y-88521184D01*
X75998594Y-88442600D01*
X76401406Y-88442600D01*
X76796474Y-88521184D01*
X76796474Y-88521184D01*
G37*
G36*
X108131583Y-88484585D02*
G01*
X108300340Y-88554486D01*
X108452218Y-88655968D01*
X108581382Y-88785132D01*
X108682864Y-88937010D01*
X108752765Y-89105767D01*
X108788400Y-89284918D01*
X108788400Y-89467582D01*
X108752765Y-89646733D01*
X108682864Y-89815490D01*
X108581382Y-89967368D01*
X108452218Y-90096532D01*
X108300340Y-90198014D01*
X108131583Y-90267915D01*
X107952432Y-90303550D01*
X107769768Y-90303550D01*
X107590617Y-90267915D01*
X107421860Y-90198014D01*
X107269982Y-90096532D01*
X107140818Y-89967368D01*
X107039336Y-89815490D01*
X106969435Y-89646733D01*
X106933800Y-89467582D01*
X106933800Y-89284918D01*
X106969435Y-89105767D01*
X107039336Y-88937010D01*
X107140818Y-88785132D01*
X107269982Y-88655968D01*
X107421860Y-88554486D01*
X107590617Y-88484585D01*
X107769768Y-88448950D01*
X107952432Y-88448950D01*
X108131583Y-88484585D01*
X108131583Y-88484585D01*
G37*
G36*
X92434383Y-88484585D02*
G01*
X92603140Y-88554486D01*
X92755018Y-88655968D01*
X92884182Y-88785132D01*
X92985664Y-88937010D01*
X93055565Y-89105767D01*
X93091200Y-89284918D01*
X93091200Y-89467582D01*
X93055565Y-89646733D01*
X92985664Y-89815490D01*
X92884182Y-89967368D01*
X92755018Y-90096532D01*
X92603140Y-90198014D01*
X92434383Y-90267915D01*
X92255232Y-90303550D01*
X92072568Y-90303550D01*
X91893417Y-90267915D01*
X91724660Y-90198014D01*
X91572782Y-90096532D01*
X91443618Y-89967368D01*
X91342136Y-89815490D01*
X91272235Y-89646733D01*
X91236600Y-89467582D01*
X91236600Y-89284918D01*
X91272235Y-89105767D01*
X91342136Y-88937010D01*
X91443618Y-88785132D01*
X91572782Y-88655968D01*
X91724660Y-88554486D01*
X91893417Y-88484585D01*
X92072568Y-88448950D01*
X92255232Y-88448950D01*
X92434383Y-88484585D01*
X92434383Y-88484585D01*
G37*
G36*
X71246425Y-88219488D02*
G01*
X71412710Y-88252563D01*
X71595336Y-88328209D01*
X71759694Y-88438030D01*
X71899470Y-88577806D01*
X72009291Y-88742164D01*
X72084937Y-88924790D01*
X72123500Y-89118664D01*
X72123500Y-89316336D01*
X72084937Y-89510210D01*
X72009291Y-89692836D01*
X71899470Y-89857194D01*
X71759694Y-89996970D01*
X71595336Y-90106791D01*
X71412710Y-90182437D01*
X71246425Y-90215512D01*
X71218837Y-90221000D01*
X71021163Y-90221000D01*
X70993575Y-90215512D01*
X70827290Y-90182437D01*
X70644664Y-90106791D01*
X70480306Y-89996970D01*
X70340530Y-89857194D01*
X70230709Y-89692836D01*
X70155063Y-89510210D01*
X70116500Y-89316336D01*
X70116500Y-89118664D01*
X70155063Y-88924790D01*
X70230709Y-88742164D01*
X70340530Y-88577806D01*
X70480306Y-88438030D01*
X70644664Y-88328209D01*
X70827290Y-88252563D01*
X70993575Y-88219488D01*
X71021163Y-88214000D01*
X71218837Y-88214000D01*
X71246425Y-88219488D01*
X71246425Y-88219488D01*
G37*
G36*
X78907521Y-85507745D02*
G01*
X79132511Y-85562904D01*
X79342416Y-85660896D01*
X79482371Y-85763609D01*
X79482377Y-85763614D01*
X79482382Y-85763618D01*
X80916456Y-87050338D01*
X80930488Y-87061233D01*
X80949655Y-87074040D01*
X81006506Y-87130891D01*
X81011416Y-87135541D01*
X81028368Y-87150751D01*
X81028373Y-87150757D01*
X81028378Y-87150761D01*
X81048224Y-87172438D01*
X81052008Y-87176393D01*
X81113461Y-87237846D01*
X81122627Y-87251564D01*
X81134365Y-87266527D01*
X81145604Y-87278803D01*
X81190916Y-87353548D01*
X81193874Y-87358193D01*
X81242158Y-87430455D01*
X81248480Y-87445718D01*
X81257056Y-87462648D01*
X81265694Y-87476898D01*
X81295563Y-87559075D01*
X81297527Y-87564128D01*
X81330807Y-87644473D01*
X81330807Y-87644475D01*
X81334027Y-87660663D01*
X81339140Y-87678964D01*
X81344829Y-87694614D01*
X81355408Y-87763550D01*
X81358080Y-87780960D01*
X81359035Y-87786385D01*
X81376000Y-87871673D01*
X81376000Y-87888194D01*
X81377445Y-87907148D01*
X81379968Y-87923585D01*
X81376120Y-88010846D01*
X81376000Y-88016314D01*
X81376000Y-88103327D01*
X81372774Y-88119545D01*
X81370495Y-88138405D01*
X81369763Y-88155012D01*
X81348976Y-88239799D01*
X81347793Y-88245133D01*
X81330807Y-88330527D01*
X81324471Y-88345825D01*
X81318556Y-88363880D01*
X81315810Y-88375084D01*
X81314604Y-88380002D01*
X81277709Y-88459034D01*
X81275499Y-88464053D01*
X81242158Y-88544545D01*
X81242156Y-88544548D01*
X81232957Y-88558315D01*
X81223626Y-88574883D01*
X81216612Y-88589907D01*
X81165049Y-88660166D01*
X81161888Y-88664677D01*
X81113459Y-88737156D01*
X81101731Y-88748884D01*
X81089351Y-88763310D01*
X81079553Y-88776661D01*
X81015297Y-88835489D01*
X81011346Y-88839269D01*
X80949654Y-88900961D01*
X80935854Y-88910182D01*
X80920894Y-88921917D01*
X80908691Y-88933089D01*
X80834269Y-88978205D01*
X80829623Y-88981163D01*
X80757045Y-89029658D01*
X80741693Y-89036017D01*
X80724740Y-89044604D01*
X80710599Y-89053176D01*
X80628796Y-89082910D01*
X80623754Y-89084869D01*
X80543027Y-89118307D01*
X80526714Y-89121552D01*
X80508418Y-89126664D01*
X80492883Y-89132311D01*
X80406881Y-89145509D01*
X80401547Y-89146449D01*
X80315826Y-89163500D01*
X80299186Y-89163500D01*
X80280224Y-89164947D01*
X80263916Y-89167450D01*
X80263912Y-89167450D01*
X80177059Y-89163620D01*
X80171592Y-89163500D01*
X80084174Y-89163500D01*
X80067839Y-89160251D01*
X80048980Y-89157972D01*
X80032486Y-89157245D01*
X79948087Y-89136553D01*
X79942740Y-89135367D01*
X79856973Y-89118307D01*
X79841576Y-89111929D01*
X79823513Y-89106013D01*
X79807498Y-89102087D01*
X79728787Y-89065342D01*
X79723767Y-89063131D01*
X79642955Y-89029658D01*
X79629100Y-89020400D01*
X79612534Y-89011070D01*
X79597587Y-89004092D01*
X79527579Y-88952713D01*
X79523068Y-88949552D01*
X79450345Y-88900960D01*
X79393157Y-88843772D01*
X79388247Y-88839122D01*
X77911640Y-87514238D01*
X77911630Y-87514229D01*
X77794403Y-87386185D01*
X77674314Y-87188091D01*
X77595180Y-86970375D01*
X77577733Y-86856693D01*
X77560040Y-86741408D01*
X77560040Y-86741404D01*
X77570245Y-86509979D01*
X77625404Y-86284989D01*
X77723396Y-86075084D01*
X77860455Y-85888330D01*
X78031315Y-85731903D01*
X78229409Y-85611814D01*
X78447125Y-85532680D01*
X78492919Y-85525652D01*
X78676092Y-85497540D01*
X78676096Y-85497540D01*
X78907521Y-85507745D01*
X78907521Y-85507745D01*
G37*
G36*
X92891583Y-85944585D02*
G01*
X93060340Y-86014486D01*
X93212218Y-86115968D01*
X93341382Y-86245132D01*
X93442864Y-86397010D01*
X93512765Y-86565767D01*
X93548400Y-86744918D01*
X93548400Y-86927582D01*
X93512765Y-87106733D01*
X93442864Y-87275490D01*
X93341382Y-87427368D01*
X93212218Y-87556532D01*
X93060340Y-87658014D01*
X92891583Y-87727915D01*
X92712432Y-87763550D01*
X92529768Y-87763550D01*
X92350617Y-87727915D01*
X92181860Y-87658014D01*
X92029982Y-87556532D01*
X91900818Y-87427368D01*
X91799336Y-87275490D01*
X91729435Y-87106733D01*
X91693800Y-86927582D01*
X91693800Y-86744918D01*
X91729435Y-86565767D01*
X91799336Y-86397010D01*
X91900818Y-86245132D01*
X92029982Y-86115968D01*
X92181860Y-86014486D01*
X92350617Y-85944585D01*
X92529768Y-85908950D01*
X92712432Y-85908950D01*
X92891583Y-85944585D01*
X92891583Y-85944585D01*
G37*
G36*
X107674383Y-85944585D02*
G01*
X107843140Y-86014486D01*
X107995018Y-86115968D01*
X108124182Y-86245132D01*
X108225664Y-86397010D01*
X108295565Y-86565767D01*
X108331200Y-86744918D01*
X108331200Y-86927582D01*
X108295565Y-87106733D01*
X108225664Y-87275490D01*
X108124182Y-87427368D01*
X107995018Y-87556532D01*
X107843140Y-87658014D01*
X107674383Y-87727915D01*
X107495232Y-87763550D01*
X107312568Y-87763550D01*
X107133417Y-87727915D01*
X106964660Y-87658014D01*
X106812782Y-87556532D01*
X106683618Y-87427368D01*
X106582136Y-87275490D01*
X106512235Y-87106733D01*
X106476600Y-86927582D01*
X106476600Y-86744918D01*
X106512235Y-86565767D01*
X106582136Y-86397010D01*
X106683618Y-86245132D01*
X106812782Y-86115968D01*
X106964660Y-86014486D01*
X107133417Y-85944585D01*
X107312568Y-85908950D01*
X107495232Y-85908950D01*
X107674383Y-85944585D01*
X107674383Y-85944585D01*
G37*
G36*
X76375952Y-84522930D02*
G01*
X76463075Y-84540259D01*
X76572498Y-84585584D01*
X76627211Y-84608247D01*
X76773933Y-84706283D01*
X76774928Y-84706948D01*
X76900552Y-84832572D01*
X76900554Y-84832575D01*
X76999253Y-84980289D01*
X76999253Y-84980290D01*
X77067241Y-85144425D01*
X77082980Y-85223550D01*
X77101900Y-85318669D01*
X77101900Y-85496331D01*
X77088658Y-85562904D01*
X77067241Y-85670575D01*
X77028704Y-85763609D01*
X76999253Y-85834711D01*
X76963426Y-85888330D01*
X76900552Y-85982428D01*
X76774928Y-86108052D01*
X76774925Y-86108054D01*
X76627211Y-86206753D01*
X76572498Y-86229416D01*
X76463075Y-86274741D01*
X76375952Y-86292071D01*
X76288831Y-86309400D01*
X76111169Y-86309400D01*
X76024048Y-86292071D01*
X75936925Y-86274741D01*
X75827502Y-86229416D01*
X75772789Y-86206753D01*
X75625075Y-86108054D01*
X75625072Y-86108052D01*
X75499448Y-85982428D01*
X75436574Y-85888330D01*
X75400747Y-85834711D01*
X75371296Y-85763609D01*
X75332759Y-85670575D01*
X75311342Y-85562904D01*
X75298100Y-85496331D01*
X75298100Y-85318669D01*
X75317020Y-85223550D01*
X75332759Y-85144425D01*
X75400747Y-84980290D01*
X75400747Y-84980289D01*
X75499446Y-84832575D01*
X75499448Y-84832572D01*
X75625072Y-84706948D01*
X75626067Y-84706283D01*
X75772789Y-84608247D01*
X75827502Y-84585584D01*
X75936925Y-84540259D01*
X76024048Y-84522930D01*
X76111169Y-84505600D01*
X76288831Y-84505600D01*
X76375952Y-84522930D01*
X76375952Y-84522930D01*
G37*
G36*
X108131583Y-83404585D02*
G01*
X108300340Y-83474486D01*
X108452218Y-83575968D01*
X108581382Y-83705132D01*
X108682864Y-83857010D01*
X108752765Y-84025767D01*
X108788400Y-84204918D01*
X108788400Y-84387582D01*
X108752765Y-84566733D01*
X108682864Y-84735490D01*
X108581382Y-84887368D01*
X108452218Y-85016532D01*
X108300340Y-85118014D01*
X108131583Y-85187915D01*
X107952432Y-85223550D01*
X107769768Y-85223550D01*
X107590617Y-85187915D01*
X107421860Y-85118014D01*
X107269982Y-85016532D01*
X107140818Y-84887368D01*
X107039336Y-84735490D01*
X106969435Y-84566733D01*
X106933800Y-84387582D01*
X106933800Y-84204918D01*
X106969435Y-84025767D01*
X107039336Y-83857010D01*
X107140818Y-83705132D01*
X107269982Y-83575968D01*
X107421860Y-83474486D01*
X107590617Y-83404585D01*
X107769768Y-83368950D01*
X107952432Y-83368950D01*
X108131583Y-83404585D01*
X108131583Y-83404585D01*
G37*
G36*
X92434383Y-83404585D02*
G01*
X92603140Y-83474486D01*
X92755018Y-83575968D01*
X92884182Y-83705132D01*
X92985664Y-83857010D01*
X93055565Y-84025767D01*
X93091200Y-84204918D01*
X93091200Y-84387582D01*
X93055565Y-84566733D01*
X92985664Y-84735490D01*
X92884182Y-84887368D01*
X92755018Y-85016532D01*
X92603140Y-85118014D01*
X92434383Y-85187915D01*
X92255232Y-85223550D01*
X92072568Y-85223550D01*
X91893417Y-85187915D01*
X91724660Y-85118014D01*
X91572782Y-85016532D01*
X91443618Y-84887368D01*
X91342136Y-84735490D01*
X91272235Y-84566733D01*
X91236600Y-84387582D01*
X91236600Y-84204918D01*
X91272235Y-84025767D01*
X91342136Y-83857010D01*
X91443618Y-83705132D01*
X91572782Y-83575968D01*
X91724660Y-83474486D01*
X91893417Y-83404585D01*
X92072568Y-83368950D01*
X92255232Y-83368950D01*
X92434383Y-83404585D01*
X92434383Y-83404585D01*
G37*
G36*
X92891583Y-80864585D02*
G01*
X93060340Y-80934486D01*
X93212218Y-81035968D01*
X93341382Y-81165132D01*
X93442864Y-81317010D01*
X93512765Y-81485767D01*
X93548400Y-81664918D01*
X93548400Y-81847582D01*
X93512765Y-82026733D01*
X93442864Y-82195490D01*
X93341382Y-82347368D01*
X93212218Y-82476532D01*
X93060340Y-82578014D01*
X92891583Y-82647915D01*
X92712432Y-82683550D01*
X92529768Y-82683550D01*
X92350617Y-82647915D01*
X92181860Y-82578014D01*
X92029982Y-82476532D01*
X91900818Y-82347368D01*
X91799336Y-82195490D01*
X91729435Y-82026733D01*
X91693800Y-81847582D01*
X91693800Y-81664918D01*
X91729435Y-81485767D01*
X91799336Y-81317010D01*
X91900818Y-81165132D01*
X92029982Y-81035968D01*
X92181860Y-80934486D01*
X92350617Y-80864585D01*
X92529768Y-80828950D01*
X92712432Y-80828950D01*
X92891583Y-80864585D01*
X92891583Y-80864585D01*
G37*
G36*
X107674383Y-80864585D02*
G01*
X107843140Y-80934486D01*
X107995018Y-81035968D01*
X108124182Y-81165132D01*
X108225664Y-81317010D01*
X108295565Y-81485767D01*
X108331200Y-81664918D01*
X108331200Y-81847582D01*
X108295565Y-82026733D01*
X108225664Y-82195490D01*
X108124182Y-82347368D01*
X107995018Y-82476532D01*
X107843140Y-82578014D01*
X107674383Y-82647915D01*
X107495232Y-82683550D01*
X107312568Y-82683550D01*
X107133417Y-82647915D01*
X106964660Y-82578014D01*
X106812782Y-82476532D01*
X106683618Y-82347368D01*
X106582136Y-82195490D01*
X106512235Y-82026733D01*
X106476600Y-81847582D01*
X106476600Y-81664918D01*
X106512235Y-81485767D01*
X106582136Y-81317010D01*
X106683618Y-81165132D01*
X106812782Y-81035968D01*
X106964660Y-80934486D01*
X107133417Y-80864585D01*
X107312568Y-80828950D01*
X107495232Y-80828950D01*
X107674383Y-80864585D01*
X107674383Y-80864585D01*
G37*
G36*
X85051474Y-76583184D02*
G01*
X85269474Y-76673483D01*
X85423623Y-76737333D01*
X85758548Y-76961123D01*
X86043377Y-77245952D01*
X86267167Y-77580877D01*
X86267167Y-77580878D01*
X86421316Y-77953026D01*
X86499900Y-78348094D01*
X86499900Y-78750906D01*
X86421316Y-79145974D01*
X86359363Y-79295541D01*
X86267167Y-79518123D01*
X86043377Y-79853048D01*
X85758548Y-80137877D01*
X85423623Y-80361667D01*
X85269474Y-80425517D01*
X85051474Y-80515816D01*
X84656406Y-80594400D01*
X84253594Y-80594400D01*
X83858526Y-80515816D01*
X83640526Y-80425517D01*
X83486377Y-80361667D01*
X83151452Y-80137877D01*
X82866623Y-79853048D01*
X82642833Y-79518123D01*
X82550637Y-79295541D01*
X82488684Y-79145974D01*
X82410100Y-78750906D01*
X82410100Y-78348094D01*
X82488684Y-77953026D01*
X82642833Y-77580878D01*
X82642833Y-77580877D01*
X82866623Y-77245952D01*
X83151452Y-76961123D01*
X83486377Y-76737333D01*
X83640526Y-76673483D01*
X83858526Y-76583184D01*
X84253594Y-76504600D01*
X84656406Y-76504600D01*
X85051474Y-76583184D01*
X85051474Y-76583184D01*
G37*
G36*
X92434383Y-78324585D02*
G01*
X92603140Y-78394486D01*
X92755018Y-78495968D01*
X92884182Y-78625132D01*
X92985664Y-78777010D01*
X93055565Y-78945767D01*
X93091200Y-79124918D01*
X93091200Y-79307582D01*
X93055565Y-79486733D01*
X92985664Y-79655490D01*
X92884182Y-79807368D01*
X92755018Y-79936532D01*
X92603140Y-80038014D01*
X92434383Y-80107915D01*
X92255232Y-80143550D01*
X92072568Y-80143550D01*
X91893417Y-80107915D01*
X91724660Y-80038014D01*
X91572782Y-79936532D01*
X91443618Y-79807368D01*
X91342136Y-79655490D01*
X91272235Y-79486733D01*
X91236600Y-79307582D01*
X91236600Y-79124918D01*
X91272235Y-78945767D01*
X91342136Y-78777010D01*
X91443618Y-78625132D01*
X91572782Y-78495968D01*
X91724660Y-78394486D01*
X91893417Y-78324585D01*
X92072568Y-78288950D01*
X92255232Y-78288950D01*
X92434383Y-78324585D01*
X92434383Y-78324585D01*
G37*
G36*
X108131583Y-78324585D02*
G01*
X108300340Y-78394486D01*
X108452218Y-78495968D01*
X108581382Y-78625132D01*
X108682864Y-78777010D01*
X108752765Y-78945767D01*
X108788400Y-79124918D01*
X108788400Y-79307582D01*
X108752765Y-79486733D01*
X108682864Y-79655490D01*
X108581382Y-79807368D01*
X108452218Y-79936532D01*
X108300340Y-80038014D01*
X108131583Y-80107915D01*
X107952432Y-80143550D01*
X107769768Y-80143550D01*
X107590617Y-80107915D01*
X107421860Y-80038014D01*
X107269982Y-79936532D01*
X107140818Y-79807368D01*
X107039336Y-79655490D01*
X106969435Y-79486733D01*
X106933800Y-79307582D01*
X106933800Y-79124918D01*
X106969435Y-78945767D01*
X107039336Y-78777010D01*
X107140818Y-78625132D01*
X107269982Y-78495968D01*
X107421860Y-78394486D01*
X107590617Y-78324585D01*
X107769768Y-78288950D01*
X107952432Y-78288950D01*
X108131583Y-78324585D01*
X108131583Y-78324585D01*
G37*
G36*
X69522267Y-77004763D02*
G01*
X69674411Y-77035026D01*
X69793137Y-77084204D01*
X69961041Y-77153752D01*
X69961042Y-77153753D01*
X70219004Y-77326117D01*
X70438383Y-77545496D01*
X70462024Y-77580878D01*
X70610748Y-77803459D01*
X70729474Y-78090090D01*
X70790000Y-78394375D01*
X70790000Y-78704625D01*
X70729474Y-79008910D01*
X70610748Y-79295541D01*
X70610747Y-79295542D01*
X70438383Y-79553504D01*
X70219004Y-79772883D01*
X70099028Y-79853048D01*
X69961041Y-79945248D01*
X69793137Y-80014796D01*
X69674411Y-80063974D01*
X69522267Y-80094237D01*
X69370125Y-80124500D01*
X69059875Y-80124500D01*
X68907733Y-80094237D01*
X68755589Y-80063974D01*
X68636863Y-80014796D01*
X68468959Y-79945248D01*
X68330972Y-79853048D01*
X68210996Y-79772883D01*
X67991617Y-79553504D01*
X67819253Y-79295542D01*
X67819252Y-79295541D01*
X67700526Y-79008910D01*
X67640000Y-78704625D01*
X67640000Y-78394375D01*
X67700526Y-78090090D01*
X67819252Y-77803459D01*
X67967976Y-77580878D01*
X67991617Y-77545496D01*
X68210996Y-77326117D01*
X68468958Y-77153753D01*
X68468959Y-77153752D01*
X68636863Y-77084204D01*
X68755589Y-77035026D01*
X68907733Y-77004763D01*
X69059875Y-76974500D01*
X69370125Y-76974500D01*
X69522267Y-77004763D01*
X69522267Y-77004763D01*
G37*
G36*
X107674383Y-75784585D02*
G01*
X107843140Y-75854486D01*
X107995018Y-75955968D01*
X108124182Y-76085132D01*
X108225664Y-76237010D01*
X108295565Y-76405767D01*
X108331200Y-76584918D01*
X108331200Y-76767582D01*
X108295565Y-76946733D01*
X108225664Y-77115490D01*
X108124182Y-77267368D01*
X107995018Y-77396532D01*
X107843140Y-77498014D01*
X107674383Y-77567915D01*
X107495232Y-77603550D01*
X107312568Y-77603550D01*
X107133417Y-77567915D01*
X106964660Y-77498014D01*
X106812782Y-77396532D01*
X106683618Y-77267368D01*
X106582136Y-77115490D01*
X106512235Y-76946733D01*
X106476600Y-76767582D01*
X106476600Y-76584918D01*
X106512235Y-76405767D01*
X106582136Y-76237010D01*
X106683618Y-76085132D01*
X106812782Y-75955968D01*
X106964660Y-75854486D01*
X107133417Y-75784585D01*
X107312568Y-75748950D01*
X107495232Y-75748950D01*
X107674383Y-75784585D01*
X107674383Y-75784585D01*
G37*
G36*
X92891583Y-75784585D02*
G01*
X93060340Y-75854486D01*
X93212218Y-75955968D01*
X93341382Y-76085132D01*
X93442864Y-76237010D01*
X93512765Y-76405767D01*
X93548400Y-76584918D01*
X93548400Y-76767582D01*
X93512765Y-76946733D01*
X93442864Y-77115490D01*
X93341382Y-77267368D01*
X93212218Y-77396532D01*
X93060340Y-77498014D01*
X92891583Y-77567915D01*
X92712432Y-77603550D01*
X92529768Y-77603550D01*
X92350617Y-77567915D01*
X92181860Y-77498014D01*
X92029982Y-77396532D01*
X91900818Y-77267368D01*
X91799336Y-77115490D01*
X91729435Y-76946733D01*
X91693800Y-76767582D01*
X91693800Y-76584918D01*
X91729435Y-76405767D01*
X91799336Y-76237010D01*
X91900818Y-76085132D01*
X92029982Y-75955968D01*
X92181860Y-75854486D01*
X92350617Y-75784585D01*
X92529768Y-75748950D01*
X92712432Y-75748950D01*
X92891583Y-75784585D01*
X92891583Y-75784585D01*
G37*
G36*
X55439795Y-73800156D02*
G01*
X55546150Y-73821311D01*
X55646334Y-73862809D01*
X55746520Y-73904307D01*
X55926844Y-74024795D01*
X56080205Y-74178156D01*
X56200693Y-74358480D01*
X56283689Y-74558851D01*
X56326000Y-74771560D01*
X56326000Y-74988440D01*
X56283689Y-75201149D01*
X56200693Y-75401520D01*
X56080205Y-75581844D01*
X55926844Y-75735205D01*
X55746520Y-75855693D01*
X55546150Y-75938689D01*
X55459283Y-75955968D01*
X55333440Y-75981000D01*
X55116560Y-75981000D01*
X54990717Y-75955968D01*
X54903850Y-75938689D01*
X54703480Y-75855693D01*
X54523156Y-75735205D01*
X54369795Y-75581844D01*
X54249307Y-75401520D01*
X54166311Y-75201149D01*
X54124000Y-74988440D01*
X54124000Y-74771560D01*
X54166311Y-74558851D01*
X54249307Y-74358480D01*
X54369795Y-74178156D01*
X54523156Y-74024795D01*
X54703480Y-73904307D01*
X54803666Y-73862809D01*
X54903850Y-73821311D01*
X55010205Y-73800156D01*
X55116560Y-73779000D01*
X55333440Y-73779000D01*
X55439795Y-73800156D01*
X55439795Y-73800156D01*
G37*
G36*
X48429795Y-73800156D02*
G01*
X48536150Y-73821311D01*
X48636334Y-73862809D01*
X48736520Y-73904307D01*
X48916844Y-74024795D01*
X49070205Y-74178156D01*
X49190693Y-74358480D01*
X49273689Y-74558851D01*
X49316000Y-74771560D01*
X49316000Y-74988440D01*
X49273689Y-75201149D01*
X49190693Y-75401520D01*
X49070205Y-75581844D01*
X48916844Y-75735205D01*
X48736520Y-75855693D01*
X48536150Y-75938689D01*
X48449283Y-75955968D01*
X48323440Y-75981000D01*
X48106560Y-75981000D01*
X47980717Y-75955968D01*
X47893850Y-75938689D01*
X47693480Y-75855693D01*
X47513156Y-75735205D01*
X47359795Y-75581844D01*
X47239307Y-75401520D01*
X47156311Y-75201149D01*
X47114000Y-74988440D01*
X47114000Y-74771560D01*
X47156311Y-74558851D01*
X47239307Y-74358480D01*
X47359795Y-74178156D01*
X47513156Y-74024795D01*
X47693480Y-73904307D01*
X47793666Y-73862809D01*
X47893850Y-73821311D01*
X48000205Y-73800156D01*
X48106560Y-73779000D01*
X48323440Y-73779000D01*
X48429795Y-73800156D01*
X48429795Y-73800156D01*
G37*
G36*
X93091200Y-75063550D02*
G01*
X91236600Y-75063550D01*
X91236600Y-73208950D01*
X93091200Y-73208950D01*
X93091200Y-75063550D01*
X93091200Y-75063550D01*
G37*
G36*
X108131583Y-73244585D02*
G01*
X108300340Y-73314486D01*
X108452218Y-73415968D01*
X108581382Y-73545132D01*
X108682864Y-73697010D01*
X108752765Y-73865767D01*
X108788400Y-74044918D01*
X108788400Y-74227582D01*
X108752765Y-74406733D01*
X108682864Y-74575490D01*
X108581382Y-74727368D01*
X108452218Y-74856532D01*
X108300340Y-74958014D01*
X108131583Y-75027915D01*
X107952432Y-75063550D01*
X107769768Y-75063550D01*
X107590617Y-75027915D01*
X107421860Y-74958014D01*
X107269982Y-74856532D01*
X107140818Y-74727368D01*
X107039336Y-74575490D01*
X106969435Y-74406733D01*
X106933800Y-74227582D01*
X106933800Y-74044918D01*
X106969435Y-73865767D01*
X107039336Y-73697010D01*
X107140818Y-73545132D01*
X107269982Y-73415968D01*
X107421860Y-73314486D01*
X107590617Y-73244585D01*
X107769768Y-73208950D01*
X107952432Y-73208950D01*
X108131583Y-73244585D01*
X108131583Y-73244585D01*
G37*
G36*
X49745104Y-71499585D02*
G01*
X49913626Y-71569389D01*
X50065291Y-71670728D01*
X50194272Y-71799709D01*
X50295611Y-71951374D01*
X50365415Y-72119896D01*
X50401000Y-72298797D01*
X50401000Y-72481203D01*
X50365415Y-72660104D01*
X50295611Y-72828626D01*
X50194272Y-72980291D01*
X50065291Y-73109272D01*
X49913626Y-73210611D01*
X49745104Y-73280415D01*
X49566203Y-73316000D01*
X49383797Y-73316000D01*
X49204896Y-73280415D01*
X49036374Y-73210611D01*
X48884709Y-73109272D01*
X48755728Y-72980291D01*
X48654389Y-72828626D01*
X48584585Y-72660104D01*
X48549000Y-72481203D01*
X48549000Y-72298797D01*
X48584585Y-72119896D01*
X48654389Y-71951374D01*
X48755728Y-71799709D01*
X48884709Y-71670728D01*
X49036374Y-71569389D01*
X49204896Y-71499585D01*
X49383797Y-71464000D01*
X49566203Y-71464000D01*
X49745104Y-71499585D01*
X49745104Y-71499585D01*
G37*
G36*
X54245104Y-71499585D02*
G01*
X54413626Y-71569389D01*
X54565291Y-71670728D01*
X54694272Y-71799709D01*
X54795611Y-71951374D01*
X54865415Y-72119896D01*
X54901000Y-72298797D01*
X54901000Y-72481203D01*
X54865415Y-72660104D01*
X54795611Y-72828626D01*
X54694272Y-72980291D01*
X54565291Y-73109272D01*
X54413626Y-73210611D01*
X54245104Y-73280415D01*
X54066203Y-73316000D01*
X53883797Y-73316000D01*
X53704896Y-73280415D01*
X53536374Y-73210611D01*
X53384709Y-73109272D01*
X53255728Y-72980291D01*
X53154389Y-72828626D01*
X53084585Y-72660104D01*
X53049000Y-72481203D01*
X53049000Y-72298797D01*
X53084585Y-72119896D01*
X53154389Y-71951374D01*
X53255728Y-71799709D01*
X53384709Y-71670728D01*
X53536374Y-71569389D01*
X53704896Y-71499585D01*
X53883797Y-71464000D01*
X54066203Y-71464000D01*
X54245104Y-71499585D01*
X54245104Y-71499585D01*
G37*
M02*
